<svg id="svg" xmlns="http://www.w3.org/2000/svg" viewBox="48.33000183105469 6.689998626708984 381.3399658203125 508.3399658203125" height="508.3399658203125"><path d="M 269.67,105.86" fill="none" stroke="#3794ff" stroke-width="2"></path><rect x="310.83" y="16.69" fill="none" stroke="#3794ff" stroke-width="2" width="108.66000000000003" height="227.5" rx="10" ry="10" d="M 310.83 26.69 a 10 10 0 0 1 10 -10 h 88.66000000000003 a 10 10 0 0 1 10 10 v 207.5 a 10 10 0 0 1 -10 10 h -88.66000000000003 a 10 10 0 0 1 -10 -10 Z"></rect><rect x="310.83" y="280.86" fill="none" stroke="#3794ff" stroke-width="2" width="108.84000000000003" height="224.17000000000002" rx="10" ry="10" d="M 310.83 290.86 a 10 10 0 0 1 10 -10 h 88.84000000000003 a 10 10 0 0 1 10 10 v 204.17000000000002 a 10 10 0 0 1 -10 10 h -88.84000000000003 a 10 10 0 0 1 -10 -10 Z"></rect><line x1="417.17" y1="80.86" x2="311.67" y2="81.69" fill="none" stroke="#3794ff" stroke-width="2" d="M 417.17 80.86 L 311.67 81.69"></line><line x1="418.84" y1="119.19" x2="313.33" y2="120.03" fill="none" stroke="#3794ff" stroke-width="2" d="M 418.84 119.19 L 313.33 120.03"></line><line x1="418.01" y1="359.19" x2="310" y2="357.53" fill="none" stroke="#3794ff" stroke-width="2" d="M 418.01 359.19 L 310 357.53"></line><line x1="418.84" y1="400.03" x2="313.33" y2="399.19" fill="none" stroke="#3794ff" stroke-width="2" d="M 418.84 400.03 L 313.33 399.19"></line><path d="M 338.01,96.69 L 338.33,96.69 L 338.33,96.69 L 338.33,96.69 L 338.33,96.69 L 338.33,96.69 L 338.33,96.69 L 338.33,96.69 L 338.33,96.69 L 338.33,96.69 L 338.33,96.69 L 338.33,96.69 L 339.17,96.69 L 339.17,96.69 L 339.17,96.69 L 339.17,96.69 L 340,96.69 L 341.67,96.69 L 343.33,96.69 L 345,96.69 L 345.83,95.86 L 346.67,95.86 L 346.67,95.86 L 346.67,95.86 L 346.67,95.86 L 344.17,95.86 L 341.67,96.69 L 339.17,96.69 L 336.67,97.53 L 335,97.53 L 335,98.36 L 334.17,98.36 L 334.17,98.36 L 334.17,98.36 L 334.17,99.19 L 335,100.03 L 335.83,101.69 L 335.83,103.36 L 335.83,104.19 L 335,104.19 L 335,105.03 L 335,105.03 L 335,105.03 L 335,104.19 L 335,104.19 L 335,103.36 L 335.83,103.36 L 337.5,103.36 L 339.17,103.36 L 340.83,102.53 L 343.33,102.53 L 345,103.36 L 345,103.36 L 345.83,103.36 L 345.83,104.19 L 345.83,105.03 L 345,105.86 L 343.33,106.69 L 340.83,108.36 L 337.5,109.19 L 335,110.03 L 333.33,110.03 L 332.5,110.03 L 332.5,110.03 L 331.67,110.86 L 331.67,110.86 L 331.67,110.86 L 331.67,110.86" fill="none" stroke="#cca700" stroke-width="2"></path><path d="M 358.01,94.19 L 358.33,94.19 L 358.33,94.19 L 358.33,94.19 L 358.33,94.19 L 357.5,94.19 L 357.5,94.19 L 357.5,94.19 L 357.5,94.19 L 357.5,94.19 L 357.5,94.19 L 357.5,95.86 L 358.33,98.36 L 358.33,100.03 L 360,102.53 L 360,103.36 L 360.83,105.03 L 360.83,105.03 L 360.83,105.03 L 360.83,105.03 L 360.83,105.03 L 360.83,104.19 L 360.83,103.36 L 361.67,101.69 L 362.5,100.86 L 363.33,100.86 L 363.33,100.03 L 364.17,100.03 L 365,100.03 L 365.83,100.03 L 367.5,100.03 L 368.33,101.69 L 368.33,102.53 L 368.33,103.36 L 367.5,104.19 L 365.83,104.19 L 364.17,105.03 L 360.83,105.03 L 360,105.03 L 359.17,105.03 L 359.17,105.03 L 358.33,105.03" fill="none" stroke="#cca700" stroke-width="2"></path><path d="M 382.17,100.86 L 382.5,100.86 L 382.5,100.86 L 382.5,100.03 L 382.5,100.03 L 382.5,100.03 L 382.5,100.03 L 380.83,100.03 L 379.17,100.03 L 376.67,100.86 L 375,100.86 L 373.33,101.69 L 372.5,103.36 L 371.67,103.36 L 371.67,104.19 L 373.33,104.19 L 374.17,104.19 L 375.83,104.19 L 377.5,103.36 L 380,102.53 L 381.67,101.69 L 382.5,100.86 L 382.5,100.86 L 382.5,100.86 L 382.5,100.86 L 382.5,100.86 L 382.5,101.69 L 382.5,102.53 L 382.5,103.36 L 382.5,103.36 L 383.33,103.36 L 383.33,103.36 L 383.33,103.36 L 384.17,103.36 L 385,101.69 L 385.83,101.69 L 385.83,101.69 L 385.83,101.69 L 385.83,101.69 L 386.67,102.53 L 386.67,102.53 L 387.5,102.53 L 387.5,103.36 L 388.33,103.36 L 388.33,103.36 L 388.33,103.36 L 389.17,102.53 L 390.83,101.69 L 391.67,101.69 L 392.5,101.69 L 392.5,101.69 L 393.33,102.53 L 394.17,103.36 L 395.83,103.36 L 395.83,104.19 L 396.67,104.19 L 397.5,104.19 L 398.33,104.19 L 398.33,103.36" fill="none" stroke="#cca700" stroke-width="2"></path><path d="M 402.17,91.69 L 402.17,91.69 L 402.5,90.86 L 402.5,90.03 L 401.67,90.03 L 401.67,89.19 L 401.67,89.19 L 401.67,89.19 L 402.5,90.86 L 403.33,94.19 L 404.17,96.69 L 405,99.19 L 405,100.86 L 405,103.36 L 404.17,105.03 L 404.17,105.86 L 404.17,106.69 L 404.17,106.69 L 403.33,106.69 L 403.33,105.03 L 405,102.53 L 406.67,100.86 L 407.5,99.19 L 409.17,97.53 L 410,96.69 L 410.83,95.86 L 410.83,95.86 L 411.67,95.03 L 411.67,95.03 L 411.67,95.03 L 411.67,95.03 L 410,95.86 L 407.5,96.69 L 405.83,97.53 L 405.83,98.36 L 405.83,99.19 L 407.5,100.03 L 412.5,101.69 L 415,102.53 L 417.5,103.36 L 419.17,105.86 L 419.17,106.69" fill="none" stroke="#cca700" stroke-width="2"></path><path d="M 341.34,374.19 L 341.67,374.19 L 341.67,373.36 L 341.67,373.36 L 342.5,373.36 L 342.5,372.53 L 342.5,372.53 L 342.5,372.53 L 343.33,372.53 L 343.33,372.53 L 343.33,372.53 L 342.5,372.53 L 340,372.53 L 337.5,372.53 L 335.83,373.36 L 334.17,373.36 L 333.33,373.36 L 333.33,373.36 L 333.33,373.36 L 333.33,374.19 L 333.33,375.03 L 334.17,377.53 L 333.33,379.19 L 333.33,380.86 L 333.33,381.69 L 333.33,382.53 L 333.33,382.53 L 333.33,382.53 L 333.33,382.53 L 333.33,382.53 L 335,381.69 L 337.5,381.69 L 340,380.86 L 341.67,380.86 L 342.5,380.86 L 344.17,381.69 L 345,382.53 L 345.83,383.36 L 345.83,384.19 L 345,385.03 L 341.67,385.86 L 339.17,386.69 L 338.33,387.53 L 337.5,387.53 L 336.67,387.53" fill="none" stroke="#cca700" stroke-width="2"></path><path d="M 358.84,374.19 L 358.84,373.36 L 358.33,373.36 L 358.33,373.36 L 358.33,372.53 L 358.33,372.53 L 357.5,372.53 L 357.5,372.53 L 356.67,372.53 L 356.67,371.69 L 355.83,371.69 L 355.83,371.69 L 355,371.69 L 355,371.69 L 355,370.86 L 355,370.86 L 355,370.86 L 355,370.03 L 355,370.03 L 355,370.03 L 355.83,370.86 L 358.33,372.53 L 360,374.19 L 362.5,376.69 L 363.33,379.19 L 365,381.69 L 365,382.53 L 365,383.36 L 364.17,384.19 L 364.17,384.19 L 363.33,384.19 L 363.33,384.19 L 362.5,384.19 L 362.5,383.36 L 364.17,381.69 L 365.83,380.03 L 367.5,379.19 L 369.17,379.19 L 370,378.36 L 371.67,378.36 L 371.67,377.53 L 371.67,378.36 L 372.5,379.19 L 372.5,380.86 L 372.5,381.69 L 371.67,381.69 L 370.83,382.53 L 369.17,382.53 L 368.33,382.53 L 367.5,382.53 L 366.67,382.53 L 366.67,382.53 L 365.83,382.53 L 365.83,382.53" fill="none" stroke="#cca700" stroke-width="2"></path><path d="M 388.01,379.19 L 388.33,379.19 L 387.5,379.19 L 387.5,379.19 L 387.5,379.19 L 386.67,379.19 L 384.17,379.19 L 382.5,380.03 L 380,380.86 L 379.17,381.69 L 379.17,382.53 L 379.17,382.53 L 380,382.53 L 380.83,382.53 L 382.5,382.53 L 384.17,382.53 L 385.83,381.69 L 386.67,380.86 L 387.5,380.86 L 387.5,380.86 L 387.5,380.86 L 387.5,381.69 L 387.5,382.53 L 387.5,383.36 L 387.5,383.36 L 387.5,383.36 L 387.5,383.36 L 388.33,383.36 L 390,381.69 L 390.83,380.86 L 390.83,380.86 L 390.83,380.86 L 390.83,380.86 L 390.83,380.86 L 390.83,380.86 L 390.83,380.86 L 391.67,381.69 L 391.67,381.69 L 392.5,381.69 L 392.5,381.69 L 393.33,381.69 L 393.33,381.69 L 394.17,381.69 L 395,382.53 L 395.83,383.36 L 395.83,384.19 L 396.67,384.19 L 396.67,384.19 L 396.67,384.19 L 396.67,384.19 L 396.67,382.53 L 396.67,380.86 L 398.33,375.86 L 399.17,371.69 L 400,369.19 L 400,367.53 L 400,366.69 L 400,366.69 L 400,366.69 L 400,366.69 L 400,368.36 L 400.83,372.53 L 401.67,375.86 L 402.5,378.36 L 402.5,381.69 L 403.33,383.36 L 403.33,385.03 L 403.33,385.03 L 404.17,385.03 L 404.17,385.03 L 403.33,384.19 L 403.33,383.36 L 404.17,380.86 L 406.67,377.53 L 408.33,375.03 L 410,373.36 L 410.83,372.53 L 410.83,372.53 L 410.83,372.53 L 410.83,372.53 L 410,373.36 L 407.5,374.19 L 405,375.86 L 404.17,376.69 L 404.17,376.69 L 405,377.53 L 407.5,379.19 L 410.83,380.03 L 415,382.53 L 417.5,383.36 L 419.17,385.03 L 419.17,385.86" fill="none" stroke="#cca700" stroke-width="2"></path><path d="M 132.17,64.19 L 132.5,64.19 L 131.67,64.19 L 131.67,64.19" fill="none" stroke="#d18616" stroke-width="2"></path><path d="M 150.51,63.36 L 150.51,63.36 L 150.83,63.36 L 150.83,62.53 L 150.83,62.53 L 150.83,62.53 L 150.83,62.53 L 150.83,62.53 L 150.83,62.53 L 151.67,61.69 L 154.17,61.69 L 158.33,61.69 L 165.83,60.86 L 170.83,60.86 L 175.83,60.86 L 181.67,60.03 L 185.83,60.03 L 190,60.03 L 193.33,60.03 L 197.5,60.86 L 201.67,60.86 L 207.5,62.53 L 210,63.36 L 212.5,64.19 L 213.33,66.69 L 213.33,68.36 L 213.33,71.69 L 211.67,74.19 L 210,76.69 L 208.33,80.03 L 207.5,84.19 L 209.17,86.69 L 211.67,89.19 L 215,92.53 L 217.5,94.19 L 220.83,95.03 L 225,95.86 L 229.17,96.69 L 234.17,97.53 L 240.83,98.36 L 245.83,98.36 L 251.67,98.36 L 257.5,98.36 L 265,98.36 L 270,98.36 L 275,98.36 L 280,98.36 L 284.17,98.36 L 289.17,98.36 L 290.83,98.36 L 291.67,98.36 L 291.67,98.36 L 291.67,98.36 L 291.67,98.36 L 290.83,98.36 L 290,97.53 L 288.33,96.69 L 287.5,95.03 L 286.67,94.19 L 285.83,93.36 L 285.83,92.53 L 285.83,91.69 L 285,91.69 L 285,91.69 L 285,91.69 L 285,91.69 L 285,91.69 L 285,91.69 L 285,91.69 L 285.83,92.53 L 287.5,93.36 L 290.83,95.03 L 294.17,95.86 L 297.5,96.69 L 300.83,96.69 L 303.33,97.53 L 304.17,97.53 L 304.17,97.53 L 304.17,97.53 L 302.5,98.36 L 300,99.19 L 295.83,100.03 L 292.5,101.69 L 290,102.53 L 287.5,102.53 L 287.5,103.36 L 287.5,103.36 L 286.67,103.36 L 286.67,103.36 L 285.83,102.53 L 285.83,101.69 L 285,100.86 L 284.17,99.19 L 283.33,97.53 L 281.67,96.69 L 280,95.86" fill="none" stroke="#d18616" stroke-width="2"></path><path d="M 98.01,48.36 L 97.5,47.53 L 95.83,47.53 L 95.83,47.53 L 94.17,48.36 L 93.33,49.19 L 92.5,50.03 L 91.67,51.69 L 92.5,52.53 L 95,54.19 L 96.67,54.19 L 99.17,54.19 L 100.83,53.36 L 102.5,52.53 L 103.33,50.86 L 103.33,50.03 L 103.33,49.19 L 102.5,48.36 L 100,47.53 L 97.5,47.53" fill="none" stroke="#d18616" stroke-width="2"></path><path d="M 108.01,40.86 L 108.33,40.86 L 108.33,39.19 L 108.33,39.19 L 109.17,38.36 L 109.17,38.36 L 109.17,38.36 L 109.17,38.36 L 110,39.19 L 111.67,40.86 L 114.17,44.19 L 116.67,46.69 L 118.33,49.19 L 119.17,50.86 L 120,52.53 L 120,53.36 L 120,53.36 L 120,53.36 L 119.17,52.53 L 117.5,51.69 L 116.67,49.19 L 115.83,47.53 L 116.67,46.69 L 118.33,46.69 L 120,45.86 L 124.17,45.03 L 125.83,45.03 L 127.5,45.03 L 128.33,45.86 L 130,46.69 L 130,47.53 L 130,48.36 L 128.33,50.03 L 125,50.86 L 121.67,51.69 L 119.17,51.69 L 117.5,51.69 L 117.5,51.69" fill="none" stroke="#d18616" stroke-width="2"></path><path d="M 132.17,40.86 L 132.5,40.86 L 133.33,40.03 L 133.33,40.03 L 134.17,40.03 L 135,40.86 L 136.67,41.69 L 140.83,44.19 L 142.5,46.69 L 144.17,48.36 L 145.83,50.86 L 146.67,53.36 L 145.83,54.19 L 144.17,55.03 L 142.5,55.86 L 139.17,55.86 L 133.33,56.69 L 130.83,56.69 L 130,56.69" fill="none" stroke="#d18616" stroke-width="2"></path><path d="M 103.01,65.86 L 103.84,65.86 L 108.33,65.86 L 119.17,66.69 L 125.83,66.69 L 132.5,67.53 L 135.83,68.36 L 138.33,68.36 L 137.5,69.19 L 134.17,70.03 L 126.67,70.86 L 119.17,71.69 L 108.33,72.53 L 105,72.53 L 105,72.53 L 107.5,72.53 L 112.5,72.53 L 120,72.53 L 127.5,73.36 L 135,73.36 L 139.17,74.19 L 138.33,75.03 L 136.67,75.86 L 132.5,76.69 L 126.67,78.36 L 123.33,78.36 L 122.5,79.19" fill="none" stroke="#d18616" stroke-width="2"></path><path d="M 79.67,136.69 L 80,136.69 L 80,136.69 L 80,136.69 L 80,136.69 L 80,136.69 L 80,136.69 L 80,136.69 L 80,136.69 L 80,136.69 L 80,136.69 L 80,136.69 L 80,136.69 L 80,136.69 L 80,138.36 L 80.83,140.03 L 80.83,142.53 L 80.83,144.19 L 80.83,145.03 L 80.83,145.86 L 80.83,145.86 L 80.83,145.86 L 80,145.86 L 80,143.36 L 80.83,140.86 L 81.67,138.36 L 81.67,137.53 L 82.5,136.69 L 83.33,135.86 L 83.33,135.86 L 84.17,136.69 L 85,137.53 L 86.67,140.03 L 87.5,140.86 L 88.33,141.69 L 88.33,141.69 L 89.17,141.69 L 89.17,141.69 L 90.83,140.03 L 92.5,139.19 L 93.33,139.19 L 93.33,139.19 L 93.33,139.19 L 95,140.03 L 97.5,141.69 L 98.33,143.36 L 100,144.19 L 100.83,145.03 L 101.67,145.03 L 102.5,144.19" fill="none" stroke="#b180d7" stroke-width="2"></path><path d="M 107.17,137.53 L 107.5,137.53 L 107.5,137.53 L 107.5,137.53 L 107.5,137.53 L 106.67,138.36 L 106.67,140.03 L 106.67,140.86 L 106.67,141.69 L 107.5,142.53 L 108.33,142.53 L 109.17,142.53 L 110.83,142.53 L 111.67,141.69 L 112.5,140.03 L 112.5,138.36 L 112.5,137.53 L 110.83,136.69 L 109.17,135.86 L 107.5,135.86 L 105,135.86" fill="none" stroke="#b180d7" stroke-width="2"></path><path d="M 115.51,135.03 L 115.83,135.03 L 117.5,135.03 L 119.17,135.86 L 121.67,136.69 L 124.17,138.36 L 125.83,140.03 L 126.67,140.86 L 127.5,141.69 L 127.5,141.69 L 127.5,140.86 L 127.5,140.03 L 127.5,138.36 L 128.33,135.03 L 128.33,132.53 L 128.33,131.69 L 129.17,130.86 L 129.17,130.03 L 129.17,130.03" fill="none" stroke="#b180d7" stroke-width="2"></path><path d="M 136.34,138.36 L 136.67,138.36 L 136.67,138.36 L 137.5,138.36 L 138.33,139.19 L 138.33,139.19 L 138.33,139.19 L 140,138.36 L 141.67,138.36 L 142.5,137.53 L 143.33,136.69 L 143.33,135.86 L 143.33,135.03 L 142.5,135.03 L 141.67,135.03 L 139.17,135.03 L 136.67,135.86 L 135,136.69 L 133.33,137.53 L 132.5,138.36 L 132.5,140.03 L 131.67,141.69 L 131.67,142.53 L 132.5,143.36 L 134.17,144.19 L 136.67,144.19 L 140.83,144.19 L 148.33,143.36 L 150,143.36" fill="none" stroke="#b180d7" stroke-width="2"></path><path d="M 158.84,133.36 L 159.17,133.36 L 159.17,133.36 L 159.17,133.36 L 159.17,133.36 L 160,133.36 L 160,133.36 L 159.17,134.19 L 158.33,135.03 L 157.5,135.86 L 156.67,136.69 L 156.67,138.36 L 156.67,139.19 L 157.5,140.03 L 158.33,140.03 L 159.17,140.86 L 160.83,140.86 L 164.17,140.03 L 165.83,140.03 L 166.67,139.19 L 166.67,138.36 L 167.5,137.53 L 166.67,136.69 L 165.83,135.86 L 163.33,135.86 L 160,135.03 L 155.83,135.03 L 154.17,135.03" fill="none" stroke="#b180d7" stroke-width="2"></path><path d="M 172.17,125.03 L 172.5,125.03 L 173.33,124.19 L 174.17,124.19 L 174.17,124.19 L 175,125.03 L 176.67,127.53 L 177.5,130.03 L 178.33,132.53 L 179.17,135.03 L 179.17,136.69 L 178.33,138.36 L 178.33,139.19 L 177.5,139.19 L 177.5,139.19 L 176.67,139.19 L 176.67,138.36 L 175.83,136.69 L 175.83,135.86 L 176.67,135.03 L 178.33,134.19 L 180.83,134.19 L 182.5,134.19 L 184.17,134.19 L 185.83,134.19 L 186.67,135.86 L 186.67,137.53 L 185.83,138.36 L 184.17,139.19 L 180.83,140.03 L 178.33,140.03 L 176.67,140.03" fill="none" stroke="#b180d7" stroke-width="2"></path><path d="M 190.51,128.36 L 190,128.36 L 190,128.36 L 190,128.36 L 190,128.36 L 190,128.36 L 190,128.36 L 190,128.36 L 190,128.36 L 190.83,130.86 L 192.5,132.53 L 195,134.19 L 196.67,135.86 L 198.33,137.53 L 200,139.19 L 200.83,140.86 L 200.83,142.53 L 199.17,143.36 L 193.33,145.03 L 188.33,146.69 L 182.5,147.53 L 177.5,148.36" fill="none" stroke="#b180d7" stroke-width="2"></path><path d="M 157.17,441.69 L 157.5,441.69 L 158.33,442.53 L 158.33,442.53 L 160.83,443.36 L 162.5,443.36 L 165.83,443.36 L 169.17,443.36 L 172.5,443.36 L 176.67,442.53 L 183.33,440.86 L 188.33,439.19 L 193.33,438.36 L 200.83,435.03 L 205,433.36 L 209.17,430.86 L 211.67,428.36 L 214.17,425.03 L 215.83,422.53 L 219.17,419.19 L 220.83,415.86 L 221.67,413.36 L 222.5,408.36 L 223.33,405.03 L 223.33,403.36 L 223.33,400.86 L 224.17,399.19 L 225.83,397.53 L 228.33,395.86 L 230.83,395.03 L 233.33,394.19 L 238.33,393.36 L 242.5,392.53 L 248.33,392.53 L 254.17,391.69 L 262.5,391.69 L 270,391.69 L 271.67,391.69 L 275,390.86 L 278.33,390.86 L 284.17,390.86 L 285.83,390.03 L 290,389.19 L 291.67,388.36 L 294.17,388.36 L 296.67,387.53 L 299.17,387.53 L 300,386.69 L 300.83,386.69 L 300.83,386.69 L 300.83,386.69 L 300.83,386.69 L 298.33,386.69 L 296.67,386.69 L 295,386.69 L 292.5,385.86 L 291.67,385.03 L 290.83,384.19 L 290.83,384.19 L 290,383.36 L 290,383.36 L 290,383.36 L 290,383.36 L 290,383.36 L 290,383.36 L 290.83,384.19 L 294.17,384.19 L 300,385.86 L 304.17,385.86 L 308.33,386.69 L 312.5,386.69 L 315,386.69 L 315,386.69 L 315,386.69 L 313.33,387.53 L 310,388.36 L 303.33,391.69 L 299.17,394.19 L 295.83,396.69 L 294.17,398.36 L 292.5,399.19 L 292.5,399.19 L 291.67,399.19 L 291.67,399.19 L 291.67,397.53 L 291.67,395.86 L 290.83,392.53 L 289.17,390.03 L 287.5,388.36 L 286.67,386.69 L 285.83,385.86 L 285,385.86 L 283.33,385.86 L 282.5,385.86" fill="none" stroke="#b180d7" stroke-width="2"></path><path d="M 58.84,423.36 L 59.17,423.36 L 59.17,422.53 L 59.17,422.53 L 59.17,422.53 L 59.17,422.53 L 59.17,423.36 L 59.17,425.86 L 59.17,429.19 L 58.33,432.53 L 58.33,434.19 L 58.33,435.03 L 58.33,435.03 L 58.33,435.03 L 59.17,434.19 L 61.67,430.03 L 62.5,427.53 L 63.33,425.03 L 63.33,424.19 L 63.33,424.19 L 63.33,424.19 L 64.17,425.86 L 65,427.53 L 66.67,429.19 L 66.67,429.19 L 66.67,429.19 L 66.67,429.19 L 67.5,429.19 L 68.33,427.53 L 70.83,425.03 L 71.67,424.19 L 72.5,424.19 L 72.5,424.19 L 73.33,425.03 L 74.17,426.69 L 75.83,427.53 L 77.5,429.19 L 78.33,430.03 L 80,431.69 L 81.67,432.53 L 83.33,432.53 L 84.17,432.53" fill="none" stroke="#b180d7" stroke-width="2"></path><path d="M 86.34,425.86 L 86.67,425.86 L 86.67,425.86 L 86.67,425.03 L 86.67,425.03 L 86.67,425.86 L 87.5,426.69 L 87.5,426.69 L 89.17,427.53 L 90.83,427.53 L 92.5,427.53 L 93.33,426.69 L 93.33,426.69 L 94.17,425.03 L 94.17,424.19 L 93.33,424.19 L 92.5,424.19 L 90.83,423.36 L 88.33,423.36 L 85.83,423.36 L 84.17,424.19 L 83.33,424.19" fill="none" stroke="#b180d7" stroke-width="2"></path><path d="M 98.84,419.19 L 99.17,419.19 L 99.17,419.19 L 99.17,419.19 L 99.17,419.19 L 99.17,419.19 L 99.17,419.19 L 99.17,420.03 L 100,421.69 L 100,423.36 L 101.67,425.86 L 101.67,426.69 L 101.67,426.69 L 101.67,426.69 L 102.5,426.69 L 104.17,425.03 L 106.67,422.53 L 108.33,420.03 L 109.17,418.36 L 109.17,415.86 L 109.17,415.03 L 109.17,414.19 L 109.17,414.19 L 108.33,414.19 L 108.33,415.03" fill="none" stroke="#b180d7" stroke-width="2"></path><path d="M 113.01,421.69 L 113.33,421.69 L 114.17,421.69 L 115.83,420.86 L 116.67,420.86 L 118.33,420.86 L 120,420.03 L 121.67,419.19 L 121.67,418.36 L 122.5,418.36 L 121.67,417.53 L 120.83,417.53 L 117.5,418.36 L 115,420.03 L 113.33,420.86 L 111.67,422.53 L 112.5,424.19 L 113.33,425.86 L 115.83,426.69 L 118.33,427.53 L 120.83,427.53 L 124.17,427.53 L 127.5,426.69" fill="none" stroke="#b180d7" stroke-width="2"></path><path d="M 142.17,416.69 L 142.5,416.69 L 142.5,416.69 L 142.5,416.69 L 141.67,417.53 L 140,418.36 L 137.5,420.86 L 137.5,420.86 L 137.5,421.69 L 137.5,422.53 L 137.5,422.53 L 139.17,422.53 L 140.83,421.69 L 143.33,420.86 L 144.17,420.03 L 145,419.19 L 145,418.36 L 145,417.53 L 144.17,417.53 L 140.83,416.69 L 138.33,416.69 L 135.83,416.69" fill="none" stroke="#b180d7" stroke-width="2"></path><path d="M 138.01,416.69 L 138.33,416.69 L 138.33,415.86 L 138.33,415.86 L 138.33,415.86 L 138.33,415.86 L 136.67,415.86 L 135,416.69 L 133.33,417.53 L 131.67,418.36 L 130.83,418.36 L 130,420.03 L 130.83,420.86 L 133.33,421.69 L 135.83,421.69 L 140,422.53 L 141.67,422.53 L 143.33,422.53 L 145,422.53 L 145.83,421.69 L 146.67,420.86 L 146.67,419.19 L 146.67,418.36 L 145,417.53 L 143.33,416.69 L 142.5,415.86 L 140.83,415.86 L 139.17,415.86 L 137.5,415.86 L 135.83,416.69 L 135,416.69" fill="none" stroke="#b180d7" stroke-width="2"></path><path d="M 146.34,408.36 L 146.34,408.36 L 145.83,408.36 L 145.83,407.53 L 145.83,407.53 L 145,407.53 L 145,407.53 L 145,407.53 L 145.83,409.19 L 148.33,410.86 L 150,413.36 L 152.5,415.86 L 154.17,418.36 L 154.17,420.86 L 154.17,421.69 L 154.17,421.69 L 154.17,421.69 L 154.17,420.86 L 154.17,420.03 L 154.17,418.36 L 155,417.53 L 157.5,416.69 L 160,415.86 L 161.67,415.86 L 161.67,415.86 L 161.67,415.86 L 161.67,417.53 L 161.67,418.36 L 160.83,419.19 L 159.17,420.86 L 157.5,420.86 L 155,422.53 L 154.17,422.53" fill="none" stroke="#b180d7" stroke-width="2"></path><path d="M 167.17,411.69 L 167.17,411.69 L 167.5,411.69 L 167.5,411.69 L 167.5,411.69 L 167.5,411.69 L 168.33,412.53 L 170,413.36 L 171.67,415.03 L 174.17,415.86 L 176.67,418.36 L 178.33,420.03 L 179.17,420.86 L 179.17,421.69 L 179.17,423.36 L 177.5,424.19 L 171.67,426.69 L 165,427.53 L 158.33,429.19" fill="none" stroke="#b180d7" stroke-width="2"></path><path d="M 130.51,345.86 L 130.83,345.86 L 130.83,345.86 L 130.83,345.86 L 130.83,345.86 L 130.83,345.86 L 130,345.86 L 129.17,345.86 L 125,348.36 L 123.33,350.03 L 122.5,351.69 L 122.5,352.53 L 123.33,353.36 L 124.17,353.36 L 125.83,353.36 L 129.17,352.53 L 135,350.03 L 136.67,349.19 L 138.33,347.53 L 139.17,345.86 L 139.17,345.03 L 139.17,344.19 L 136.67,344.19 L 134.17,344.19 L 130.83,344.19 L 129.17,344.19" fill="none" stroke="#d18616" stroke-width="2"></path><path d="M 143.84,333.36 L 144.17,333.36 L 144.17,333.36 L 144.17,332.53 L 144.17,332.53 L 144.17,332.53 L 144.17,333.36 L 145.83,335.03 L 147.5,338.36 L 148.33,341.69 L 149.17,345.86 L 149.17,348.36 L 149.17,350.03 L 148.33,350.86 L 148.33,350.86 L 148.33,350.86 L 148.33,349.19 L 149.17,348.36 L 150,346.69 L 153.33,344.19 L 155,343.36 L 155.83,343.36 L 157.5,342.53 L 158.33,342.53 L 160,343.36 L 160,344.19 L 160.83,345.03 L 160,346.69 L 158.33,348.36 L 155.83,350.03 L 155,350.03 L 153.33,350.86 L 152.5,350.86" fill="none" stroke="#d18616" stroke-width="2"></path><path d="M 172.17,336.69 L 172.5,336.69 L 172.5,336.69 L 172.5,336.69 L 173.33,337.53 L 175,339.19 L 177.5,340.86 L 179.17,343.36 L 181.67,345.86 L 182.5,348.36 L 183.33,350.86 L 183.33,352.53 L 182.5,353.36 L 180.83,354.19 L 175.83,355.86 L 171.67,356.69 L 167.5,357.53 L 163.33,357.53 L 160.83,357.53" fill="none" stroke="#d18616" stroke-width="2"></path></svg>