<svg id="svg" xmlns="http://www.w3.org/2000/svg" viewBox="24.720001220703125 47.95000076293945 772.090087890625 476.51995849609375" height="476.51995849609375"><rect x="393.75" y="265.86" fill="none" stroke="#3794ff" stroke-width="2" width="113.33999999999997" height="206.52" rx="10" ry="10" d="M 393.75 275.86 a 10 10 0 0 1 10 -10 h 93.33999999999997 a 10 10 0 0 1 10 10 v 186.52 a 10 10 0 0 1 -10 10 h -93.33999999999997 a 10 10 0 0 1 -10 -10 Z"></rect><line x1="507.78" y1="380.18" x2="392.36" y2="381.14" fill="none" stroke="#3794ff" stroke-width="2" d="M 507.78 380.18 L 392.36 381.14"></line><line x1="505.7" y1="420.45" x2="393.06" y2="421.42" fill="none" stroke="#3794ff" stroke-width="2" d="M 505.7 420.45 L 393.06 421.42"></line><path d="M 443.89,396.15 L 443.89,396.15 L 443.75,395.72 L 443.75,395.72 L 443.75,395.03 L 443.75,394.34 L 443.06,394.34 L 443.06,394.34 L 443.06,394.34 L 443.06,394.34 L 443.06,395.72 L 443.06,398.5 L 443.06,401.28 L 443.75,404.06 L 443.75,406.84 L 444.44,409.61 L 444.44,411 L 445.14,412.39" fill="none" stroke="#89d185" stroke-width="2"></path><path d="M 459.17,399.62 L 459.17,399.62 L 459.03,399.89 L 458.33,399.89 L 458.33,399.89 L 458.33,399.89 L 457.64,400.59 L 454.86,401.97 L 453.47,403.36 L 452.08,404.75 L 451.39,406.14 L 450.69,407.53 L 450,408.22 L 450,408.22 L 450,408.22 L 451.39,408.22 L 454.17,408.22 L 456.25,407.53 L 459.03,406.84 L 461.11,405.45 L 463.89,403.36 L 463.89,401.97 L 463.89,401.28 L 461.81,400.59 L 459.03,400.59 L 452.78,400.59" fill="none" stroke="#89d185" stroke-width="2"></path><path d="M 255.7,312.81 L 255.56,313.09 L 255.56,313.09 L 255.56,313.09 L 255.56,313.09 L 255.56,313.09" fill="none" stroke="#f14c4c" stroke-width="2"></path><path d="M 404.31,487.81 L 404.17,488.09 L 404.17,488.09 L 404.17,488.09 L 404.17,488.09 L 404.86,487.39 L 404.86,488.09 L 406.25,490.17 L 407.64,492.25 L 409.03,495.72 L 409.72,497.11 L 409.72,497.81 L 409.72,497.81 L 409.72,497.81 L 409.72,496.42 L 409.72,494.34 L 409.72,492.25 L 410.42,491.56 L 411.11,490.86 L 411.11,490.86 L 411.81,490.86 L 414.58,492.25 L 415.28,493.64 L 416.67,495.03 L 416.67,496.42 L 416.67,497.81 L 416.67,497.81 L 416.67,497.11 L 416.67,495.72 L 417.36,493.64 L 418.06,492.25 L 418.75,492.25 L 420.14,492.25 L 420.83,492.95 L 422.92,493.64 L 423.61,495.03 L 425,496.42 L 425.69,497.11 L 426.39,497.81 L 426.39,497.81" fill="none" stroke="#3794ff" stroke-width="2"></path><path d="M 428.61,494.06 L 428.47,494.34 L 428.47,493.64 L 429.17,494.34 L 430.56,494.34 L 432.64,494.34 L 434.03,493.64 L 436.11,492.25 L 437.5,490.86 L 438.19,489.47 L 437.5,488.78 L 436.81,488.09 L 434.72,488.78 L 431.94,490.17 L 430.56,491.56 L 428.47,492.95 L 427.78,494.34 L 427.08,495.72 L 428.47,497.11 L 431.94,499.2 L 434.72,499.2 L 436.81,499.2 L 440.28,498.5 L 443.06,497.11 L 444.44,495.03 L 445.14,492.95 L 445.83,492.25 L 445.83,491.56 L 445.83,491.56 L 445.83,491.56 L 445.83,492.25 L 447.22,494.34 L 447.22,495.03 L 447.92,495.03 L 447.92,495.72 L 447.92,495.72 L 448.61,494.34 L 449.31,492.95 L 450,492.95 L 450.69,492.25 L 450.69,492.25 L 451.39,492.95 L 452.08,493.64 L 452.78,494.34 L 452.78,495.03 L 453.47,495.03 L 453.47,495.03 L 453.47,493.64 L 454.17,492.95 L 454.86,492.25 L 455.56,492.25 L 455.56,492.25 L 456.94,492.95 L 458.33,494.34 L 459.72,495.72 L 461.11,496.42 L 461.81,497.11 L 463.89,497.11 L 465.97,495.03" fill="none" stroke="#3794ff" stroke-width="2"></path><path d="M 468.2,491.29 L 468.2,491.29 L 468.06,491.56 L 468.06,491.56 L 467.36,492.25 L 467.36,493.64 L 467.36,494.34 L 468.75,495.03 L 470.14,494.34 L 472.22,493.64 L 474.31,492.25 L 475.69,491.56 L 475.69,490.17 L 474.31,489.47 L 472.22,489.47 L 470.14,489.47 L 467.36,490.17 L 464.58,490.86" fill="none" stroke="#3794ff" stroke-width="2"></path><path d="M 477.92,487.81 L 478.47,488.09 L 481.25,488.09 L 484.72,488.78 L 486.11,489.47 L 487.5,490.17 L 488.19,490.86 L 488.19,490.86 L 488.19,490.86 L 488.19,489.47 L 488.19,487.39 L 488.19,484.61 L 488.89,481.14 L 489.58,481.14 L 489.58,481.14" fill="none" stroke="#3794ff" stroke-width="2"></path><path d="M 496.67,485.04 L 496.53,485.31 L 497.22,486 L 498.61,487.39 L 499.31,488.09 L 501.39,488.78 L 502.78,488.78 L 506.25,487.39 L 506.94,485.31 L 507.64,483.22 L 507.64,481.84 L 507.64,481.14 L 506.94,481.84 L 506.94,483.22 L 506.25,485.31 L 506.25,488.09 L 508.33,490.86 L 510.42,492.25 L 512.5,493.64 L 513.89,495.03 L 513.19,497.81 L 509.72,500.59 L 502.78,503.36 L 493.06,506.84 L 481.94,510.31 L 467.36,513.78 L 463.89,514.47" fill="none" stroke="#3794ff" stroke-width="2"></path><path d="M 61.84,66.98 L 61.81,67.25 L 61.81,67.25 L 61.81,67.25 L 61.81,66.56 L 61.81,66.56 L 61.81,66.56 L 61.81,67.25 L 61.81,67.95 L 61.81,70.72 L 62.5,74.2 L 63.89,79.06 L 64.58,81.84 L 64.58,83.92 L 64.58,85.31 L 64.58,86 L 64.58,86" fill="none" stroke="#3794ff" stroke-width="2"></path><path d="M 59.75,61.43 L 59.72,61 L 59.72,60.31 L 60.42,59.61 L 60.42,59.61 L 60.42,59.61 L 60.42,59.61 L 61.11,59.61" fill="none" stroke="#3794ff" stroke-width="2"></path><path d="M 75.03,73.93 L 75,74.2 L 75,74.89 L 75,75.59 L 75,76.28 L 75.69,77.67 L 75.69,79.06 L 76.39,79.75 L 75.69,80.45 L 75.69,80.45 L 75.69,80.45 L 75.69,79.75 L 75.69,78.36 L 76.39,76.28 L 78.47,73.5 L 79.17,73.5 L 79.86,72.81 L 79.86,72.81 L 81.25,73.5 L 84.72,75.59 L 86.11,76.97 L 87.5,79.06 L 88.19,80.45 L 88.89,81.14 L 89.58,81.84 L 89.58,81.84" fill="none" stroke="#3794ff" stroke-width="2"></path><path d="M 95.87,60.04 L 95.87,60.04 L 96.53,59.61 L 96.53,58.22 L 97.22,58.22 L 97.22,58.22 L 97.22,58.22 L 97.22,60.31 L 98.61,63.09 L 100,67.25 L 100.69,70.72 L 102.08,74.89 L 102.08,79.06 L 101.39,81.14 L 100.69,81.84" fill="none" stroke="#3794ff" stroke-width="2"></path><path d="M 109.06,68.37 L 109.06,68.37 L 109.72,68.64 L 109.72,67.95 L 109.72,67.95 L 109.72,67.95 L 109.72,67.95 L 109.72,67.95 L 109.03,67.95 L 106.94,67.95 L 102.08,67.95 L 96.53,67.95 L 95.83,67.95 L 95.14,67.95 L 95.14,67.95 L 95.14,67.95 L 95.14,67.95 L 96.53,67.95 L 98.61,67.25 L 103.47,67.25 L 106.94,67.25 L 107.64,67.25 L 107.64,67.25 L 107.64,67.25 L 107.64,67.25 L 106.25,67.25 L 103.47,67.25 L 100.69,67.25 L 97.22,67.25 L 96.53,67.25 L 96.53,67.25" fill="none" stroke="#3794ff" stroke-width="2"></path><path d="M 144.48,64.9 L 144.44,65.17 L 145.14,64.47 L 145.83,63.78 L 145.83,63.78 L 145.83,63.78 L 145.83,63.78 L 145.14,64.47 L 143.06,66.56 L 140.97,69.34 L 138.89,72.11 L 136.81,76.28 L 136.11,78.36 L 135.42,79.75 L 134.72,81.14 L 134.72,81.84 L 134.72,81.84" fill="none" stroke="#3794ff" stroke-width="2"></path><path d="M 131.98,66.29 L 131.94,66.56 L 131.94,66.56 L 131.94,66.56 L 131.94,66.56 L 132.64,66.56 L 134.72,67.95 L 138.19,70.03 L 141.67,72.11 L 147.92,76.28 L 150.69,78.36 L 152.08,79.75 L 152.78,80.45 L 152.78,80.45" fill="none" stroke="#3794ff" stroke-width="2"></path><path d="M 187.53,69.76 L 187.5,70.03 L 187.5,70.03 L 187.5,70.03 L 187.5,70.03 L 186.11,69.34 L 183.33,69.34 L 177.08,69.34 L 172.22,69.34 L 169.44,69.34 L 167.36,69.34 L 166.67,69.34 L 166.67,69.34 L 168.06,70.03" fill="none" stroke="#3794ff" stroke-width="2"></path><path d="M 188.23,77.4 L 188.19,77.67 L 188.19,77.67 L 187.5,78.36 L 186.81,78.36 L 184.72,79.06 L 182.64,79.06 L 180.56,79.06 L 175.69,79.06 L 172.92,79.06 L 171.53,79.06 L 171.53,79.06" fill="none" stroke="#3794ff" stroke-width="2"></path><path d="M 209.06,57.95 L 209.03,58.22 L 209.03,58.22 L 209.03,58.22 L 209.03,58.22 L 209.03,58.22 L 209.03,59.61 L 209.03,62.39 L 209.72,65.17 L 209.72,67.25 L 209.72,69.34 L 209.03,72.11 L 208.33,74.89 L 207.64,76.97 L 207.64,77.67 L 206.94,78.36 L 206.94,78.36 L 206.94,76.97 L 207.64,76.28" fill="none" stroke="#3794ff" stroke-width="2"></path><path d="M 227.12,65.59 L 227.08,65.86 L 227.08,65.86 L 227.08,65.86 L 227.08,65.86 L 227.78,65.86 L 227.78,66.56 L 227.78,67.25 L 227.08,67.95 L 225,67.95" fill="none" stroke="#3794ff" stroke-width="2"></path><path d="M 229.2,67.68 L 229.17,67.95 L 229.17,67.95 L 229.17,67.95 L 229.17,67.95 L 228.47,67.95 L 228.47,67.95 L 227.08,67.95 L 225,67.95 L 223.61,67.95 L 222.22,68.64 L 220.83,69.34 L 220.14,70.72 L 220.14,72.11 L 220.83,74.2 L 222.22,74.89 L 223.61,75.59 L 224.31,75.59 L 225.69,75.59 L 227.78,74.89 L 229.17,73.5 L 230.56,72.11 L 231.94,70.03 L 231.94,68.64 L 231.94,67.95 L 231.25,67.25 L 229.86,67.25 L 227.78,67.25 L 227.08,67.25" fill="none" stroke="#3794ff" stroke-width="2"></path><path d="M 246.56,65.59 L 246.56,65.59 L 247.22,65.86 L 247.22,65.86 L 247.22,65.86 L 247.22,65.17 L 247.22,65.17 L 247.22,65.17 L 247.22,65.17 L 247.22,65.86 L 247.22,66.56 L 247.22,67.25" fill="none" stroke="#3794ff" stroke-width="2"></path><path d="M 245.87,78.09 L 245.83,78.36 L 245.14,78.36 L 245.14,78.36 L 244.44,78.36 L 243.75,78.36 L 243.75,76.97 L 243.75,76.28 L 245.83,74.89 L 246.53,74.89 L 247.92,75.59 L 249.31,77.67 L 250,79.75 L 245.14,83.92 L 240.28,84.61" fill="none" stroke="#3794ff" stroke-width="2"></path><path d="M 65.31,108.65 L 65.28,108.92 L 65.28,108.92 L 65.28,108.92 L 65.28,108.92 L 65.28,108.92 L 65.28,108.92 L 65.28,108.92 L 65.28,108.92 L 65.28,110.31 L 65.97,113.78 L 65.97,115.86 L 65.97,117.95 L 65.28,120.03 L 64.58,122.81 L 64.58,124.2 L 64.58,124.2 L 63.89,124.2" fill="none" stroke="#cca700" stroke-width="2"></path><path d="M 66.7,104.48 L 66.67,104.75 L 66.67,104.75 L 66.67,104.75 L 66.67,104.75 L 65.97,104.75 L 65.28,104.75 L 65.28,104.75 L 65.28,104.75 L 65.28,104.75 L 65.28,104.75 L 65.28,104.75 L 65.28,104.06 L 65.28,104.06 L 65.28,103.36 L 65.28,103.36 L 65.28,103.36 L 65.28,103.36 L 65.28,103.36 L 64.58,103.36 L 63.89,104.06 L 63.19,104.06" fill="none" stroke="#cca700" stroke-width="2"></path><path d="M 78.5,112.12 L 78.47,111.7 L 78.47,111.7 L 78.47,111.7 L 78.47,111.7 L 78.47,111.7 L 78.47,112.39 L 79.17,113.78 L 79.86,117.25 L 79.86,119.34 L 79.17,121.42 L 78.47,122.81 L 77.78,124.2 L 77.78,124.2 L 77.08,124.2 L 77.78,122.81 L 79.17,120.72 L 80.56,118.64 L 83.33,116.56 L 84.03,115.86 L 84.03,115.86 L 84.72,115.86 L 86.11,117.25 L 87.5,118.64 L 88.89,120.03 L 90.28,121.42 L 90.97,122.81 L 91.67,123.5 L 92.36,123.5 L 93.06,122.81" fill="none" stroke="#cca700" stroke-width="2"></path><path d="M 104.2,101.01 L 104.17,101.28 L 104.86,100.59 L 105.56,99.2 L 106.25,99.2 L 106.25,99.2 L 106.25,99.2 L 106.25,99.89 L 106.25,103.36 L 106.25,106.14 L 106.25,108.92 L 106.94,112.39 L 106.94,115.86 L 106.94,117.95 L 106.25,120.03 L 105.56,120.72 L 104.17,121.42" fill="none" stroke="#cca700" stroke-width="2"></path><path d="M 113.23,107.95 L 113.19,108.22 L 113.89,108.22 L 113.89,108.22 L 113.89,108.22 L 113.89,108.22 L 113.19,107.53 L 111.11,108.22 L 104.86,108.22 L 100.69,108.92 L 96.53,108.92 L 94.44,108.92 L 93.75,108.92 L 94.44,108.92 L 95.83,108.92" fill="none" stroke="#cca700" stroke-width="2"></path><path d="M 128.5,114.9 L 129.17,115.17 L 130.56,113.78 L 133.33,113.09 L 137.5,111 L 140.28,108.92 L 143.06,106.84 L 143.75,105.45 L 144.44,104.06 L 144.44,103.36 L 143.75,103.36 L 142.36,102.67 L 138.19,102.67 L 136.11,103.36 L 131.25,104.06 L 129.86,104.75 L 129.17,105.45 L 128.47,106.14 L 129.86,107.53 L 132.64,108.22 L 136.81,109.61 L 140.97,111 L 145.83,112.39 L 147.92,113.09 L 149.31,113.78 L 149.31,114.47 L 150,115.17 L 149.31,116.56 L 147.22,117.25 L 144.44,117.95 L 141.67,118.64 L 140.97,119.34 L 139.58,119.34 L 139.58,119.34 L 139.58,119.34 L 139.58,119.34 L 139.58,119.34" fill="none" stroke="#cca700" stroke-width="2"></path><path d="M 170.17,105.87 L 170.14,105.45 L 170.14,105.45 L 170.14,105.45 L 170.14,105.45 L 170.14,105.45 L 170.14,104.75 L 170.14,104.75 L 170.14,104.06 L 170.14,103.36 L 169.44,102.67 L 169.44,101.97 L 169.44,101.97 L 168.75,101.97 L 168.75,101.97 L 169.44,101.97 L 169.44,103.36 L 169.44,106.14 L 170.14,111 L 170.14,113.78 L 169.44,116.56 L 169.44,117.95 L 169.44,118.64 L 169.44,118.64 L 169.44,118.64 L 169.44,118.64 L 170.14,118.64 L 170.83,118.64 L 172.92,117.95 L 174.31,117.95 L 177.08,117.95 L 179.17,118.64 L 179.86,118.64" fill="none" stroke="#cca700" stroke-width="2"></path><path d="M 188.23,110.04 L 188.19,110.31 L 188.19,110.31 L 188.19,110.31 L 188.19,110.31 L 188.19,110.31 L 188.19,111.7 L 188.19,113.78 L 188.89,115.86 L 189.58,117.95 L 190.97,120.03 L 191.67,120.03 L 191.67,120.03 L 192.36,120.03 L 193.75,118.64 L 196.53,115.86 L 197.22,113.78 L 197.92,112.39 L 198.61,111 L 198.61,110.31 L 198.61,109.61 L 198.61,109.61 L 198.61,109.61 L 197.92,110.31" fill="none" stroke="#cca700" stroke-width="2"></path><path d="M 211.84,113.51 L 211.81,113.09 L 211.11,113.09 L 210.42,113.09 L 209.03,113.09 L 204.17,114.47 L 201.39,115.86 L 199.31,118.64 L 199.31,119.34 L 200,120.03 L 202.08,119.34 L 204.86,118.64 L 208.33,116.56 L 211.11,115.17 L 212.5,114.47 L 212.5,114.47 L 212.5,114.47 L 213.19,114.47 L 213.19,115.86 L 213.89,117.25 L 215.28,118.64 L 215.97,118.64 L 217.36,118.64 L 218.75,117.95 L 220.14,115.86 L 220.83,113.09 L 221.53,108.92 L 222.22,102.67 L 222.22,99.89 L 222.22,98.5 L 222.22,97.81 L 222.22,97.81 L 222.22,97.81 L 222.22,98.5 L 222.92,100.59 L 223.61,104.06 L 224.31,108.92 L 224.31,111.7 L 224.31,114.47 L 224.31,115.86 L 223.61,117.95 L 223.61,117.95 L 223.61,117.95" fill="none" stroke="#cca700" stroke-width="2"></path><path d="M 243.78,115.59 L 243.75,115.86 L 243.75,115.86 L 243.75,115.86 L 243.06,115.86 L 240.28,116.56 L 235.42,116.56 L 231.94,117.25 L 229.17,117.25 L 227.78,117.25 L 227.78,117.25 L 227.78,117.25 L 228.47,117.25 L 230.56,117.25 L 232.64,117.25 L 236.11,116.56 L 237.5,116.56 L 238.19,116.56 L 238.19,116.56 L 238.89,116.56 L 239.58,116.56 L 239.58,116.56 L 239.58,116.56 L 238.89,116.56 L 236.81,116.56 L 234.72,116.56 L 233.33,117.25 L 233.33,117.25 L 233.33,117.25 L 233.33,117.25 L 234.03,117.25 L 234.72,117.25 L 236.81,116.56 L 237.5,116.56 L 237.5,116.56 L 237.5,116.56" fill="none" stroke="#cca700" stroke-width="2"></path><path d="M 256.98,103.09 L 256.98,103.09 L 256.94,103.36 L 256.94,103.36 L 256.94,103.36 L 256.94,103.36 L 256.94,103.36 L 256.94,104.06 L 256.25,105.45 L 254.86,108.92 L 252.78,111.7 L 252.08,113.09 L 251.39,114.47 L 250.69,115.86 L 250.69,116.56 L 250.69,117.25 L 250.69,117.25" fill="none" stroke="#cca700" stroke-width="2"></path><path d="M 244.48,105.18 L 244.44,105.45 L 244.44,105.45 L 244.44,105.45 L 244.44,105.45 L 244.44,105.45 L 244.44,105.45 L 245.83,106.14 L 249.31,107.53 L 252.08,108.92 L 255.56,111 L 260.42,113.09 L 262.5,113.78 L 263.89,114.47 L 265.28,115.17 L 265.97,115.86 L 265.97,115.86 L 265.97,115.86 L 265.97,115.86 L 265.97,115.86 L 265.97,115.86 L 265.97,115.86 L 265.97,115.86 L 265.97,115.86 L 265.97,115.86 L 265.28,115.86 L 264.58,115.86" fill="none" stroke="#cca700" stroke-width="2"></path><path d="M 269.48,108.65 L 269.48,108.65 L 269.44,108.92 L 269.44,108.92 L 270.14,108.92 L 271.53,108.92 L 272.92,110.31 L 275,112.39 L 275.69,113.78 L 275.69,115.17 L 276.39,115.86 L 276.39,115.86 L 276.39,115.86 L 276.39,114.47 L 277.08,113.09 L 278.47,110.31 L 279.86,106.84 L 280.56,104.75 L 281.25,103.36 L 282.64,101.97 L 284.03,101.28 L 284.03,100.59 L 284.03,100.59 L 284.03,100.59" fill="none" stroke="#cca700" stroke-width="2"></path><path d="M 291,107.26 L 290.97,107.53 L 291.67,108.22 L 292.36,108.22 L 294.44,108.22 L 296.53,108.22 L 298.61,107.53 L 300,106.14 L 300.69,104.75 L 300,104.06 L 300,104.06 L 298.61,104.06 L 295.83,104.75 L 292.36,106.14 L 290.28,107.53 L 288.89,108.92 L 288.89,111 L 290.97,112.39 L 293.75,113.09 L 297.92,113.09 L 302.78,112.39 L 307.64,111.7 L 311.81,109.61" fill="none" stroke="#cca700" stroke-width="2"></path><path d="M 317.39,98.23 L 316.7,97.54 L 316.67,97.11 L 315.97,96.42 L 315.28,95.72 L 315.28,95.03 L 314.58,95.03 L 311.81,95.03 L 309.03,95.03 L 306.94,95.03 L 304.86,95.72 L 302.78,95.72 L 302.78,96.42 L 302.78,97.81 L 303.47,99.89 L 305.56,101.97 L 309.03,104.75 L 311.11,106.84 L 313.19,108.92 L 313.89,111 L 313.89,111.7 L 314.58,113.09 L 313.89,113.78 L 313.89,114.47 L 313.19,114.47 L 313.19,114.47 L 313.19,114.47 L 312.5,113.78 L 313.19,112.39 L 314.58,111 L 318.06,109.61 L 318.75,108.92 L 319.44,108.22 L 320.14,107.53 L 320.83,107.53 L 320.83,106.84 L 320.83,106.84 L 320.83,106.84 L 319.44,106.84 L 317.36,106.84 L 315.28,106.84 L 313.89,106.84 L 313.19,106.84 L 313.19,106.84 L 313.19,106.84 L 313.19,106.84 L 313.89,106.84 L 314.58,106.84" fill="none" stroke="#cca700" stroke-width="2"></path><path d="M 347.25,103.79 L 347.22,104.06 L 347.22,104.06 L 346.53,104.06 L 345.83,104.06 L 343.75,104.06 L 340.28,104.06 L 337.5,104.06 L 336.11,104.06 L 336.11,104.75 L 335.42,104.75 L 336.81,105.45 L 339.58,106.14" fill="none" stroke="#cca700" stroke-width="2"></path><path d="M 352.12,110.04 L 352.08,110.31 L 352.08,110.31 L 352.08,111 L 350.69,111 L 349.31,111.7 L 346.53,111.7 L 343.75,111.7 L 341.67,111.7 L 340.28,111.7 L 338.89,111.7 L 338.89,111.7" fill="none" stroke="#cca700" stroke-width="2"></path><path d="M 402.81,94.76 L 402.81,94.76 L 402.78,95.03 L 403.47,95.03 L 403.47,95.03 L 403.47,95.03 L 403.47,95.03 L 404.17,95.03 L 404.86,96.42 L 405.56,97.81" fill="none" stroke="#cca700" stroke-width="2"></path><path d="M 406.98,107.95 L 406.25,108.22 L 405.56,108.22 L 404.86,108.22 L 404.86,108.22 L 406.25,107.53 L 407.64,106.84 L 409.03,106.14 L 409.72,106.14 L 411.11,106.14 L 413.19,107.53 L 413.89,108.92 L 411.81,111 L 403.47,113.09" fill="none" stroke="#cca700" stroke-width="2"></path><path d="M 68.78,153.09 L 68.75,153.36 L 68.75,153.36 L 68.75,152.67 L 68.75,152.67 L 68.75,152.67 L 68.75,152.67 L 68.75,152.67 L 69.44,152.67 L 69.44,151.97 L 69.44,151.97 L 69.44,151.97 L 69.44,151.97 L 70.14,153.36 L 70.83,155.45 L 72.22,159.61 L 72.92,162.39 L 72.92,164.47 L 72.92,166.56 L 72.92,167.25 L 72.22,167.25" fill="none" stroke="#89d185" stroke-width="2"></path><path d="M 72.25,148.93 L 72.22,149.2 L 72.22,149.2 L 72.22,148.5 L 72.92,148.5 L 72.92,148.5 L 72.92,147.81 L 72.92,147.81 L 72.92,147.81 L 72.22,147.81 L 72.22,147.81 L 71.53,147.81 L 70.83,147.11 L 70.83,147.11 L 70.83,147.11 L 70.83,146.42 L 70.83,146.42 L 70.83,146.42 L 70.83,146.42 L 69.44,147.11 L 69.44,147.11" fill="none" stroke="#89d185" stroke-width="2"></path><path d="M 81.28,153.79 L 81.28,153.79 L 81.25,154.06 L 81.94,154.06 L 82.64,154.06 L 83.33,154.75 L 84.72,155.45 L 85.42,156.84 L 85.42,158.92 L 85.42,160.31 L 85.42,161.7 L 84.72,161.7 L 84.72,161.7 L 84.72,161 L 86.11,160.31 L 87.5,158.92 L 90.28,157.53 L 91.67,156.84 L 92.36,156.84 L 92.36,156.84 L 94.44,158.22 L 95.83,159.61 L 97.22,161 L 97.92,162.39 L 98.61,163.09 L 99.31,163.78 L 99.31,163.78" fill="none" stroke="#89d185" stroke-width="2"></path><path d="M 106.28,142.68 L 106.25,142.95 L 106.25,142.25 L 106.25,142.25 L 106.25,142.25 L 106.94,141.56 L 107.64,141.56 L 107.64,142.25 L 108.33,143.64 L 109.72,146.42 L 111.81,151.28 L 113.19,154.75 L 113.89,157.53 L 113.89,161.7 L 112.5,163.78 L 111.81,165.17" fill="none" stroke="#89d185" stroke-width="2"></path><path d="M 122.25,151.01 L 122.25,151.01 L 122.92,150.59 L 122.92,150.59 L 123.61,150.59 L 123.61,150.59 L 122.92,150.59 L 118.75,150.59 L 113.89,150.59 L 108.33,150.59 L 102.78,150.59 L 102.78,150.59 L 102.78,151.28 L 103.47,151.28" fill="none" stroke="#89d185" stroke-width="2"></path><path d="M 140.31,158.65 L 140.28,158.92 L 140.28,158.92 L 140.28,158.92 L 140.28,158.92 L 140.97,158.92 L 142.36,158.22 L 143.06,156.84 L 145.14,154.06 L 145.83,150.59 L 145.83,148.5 L 144.44,146.42 L 142.36,145.03 L 140.97,143.64 L 140.28,143.64 L 138.89,143.64 L 138.19,144.34 L 137.5,145.03 L 138.19,146.42 L 140.97,147.81 L 143.75,149.2 L 147.92,149.89 L 152.08,151.28 L 156.94,153.36 L 159.03,154.75 L 160.42,156.84 L 159.72,157.53 L 156.94,159.61 L 154.17,160.31 L 152.08,160.31 L 150.69,160.31 L 149.31,160.31 L 148.61,160.31 L 148.61,160.31" fill="none" stroke="#89d185" stroke-width="2"></path><path d="M 175.73,157.95 L 175.69,158.22 L 175.69,158.22 L 175,158.22 L 175,158.22 L 175.69,157.53 L 175.69,156.84 L 176.39,155.45 L 177.08,153.36 L 178.47,150.59 L 181.25,146.42 L 181.25,144.34 L 181.25,143.64 L 179.86,142.95 L 178.47,142.25 L 175.69,142.95 L 171.53,143.64 L 167.36,144.34 L 165.28,145.03 L 164.58,146.42 L 165.97,147.11 L 168.75,147.81 L 173.61,148.5 L 181.25,149.89 L 186.11,150.59 L 190.28,151.28 L 192.36,151.97 L 193.75,152.67 L 194.44,154.06 L 194.44,155.45 L 193.75,156.14 L 190.28,157.53 L 188.19,158.22 L 186.11,158.92 L 185.42,158.92 L 184.72,158.92 L 184.72,158.92" fill="none" stroke="#89d185" stroke-width="2"></path><path d="M 213.23,146.84 L 213.19,147.11 L 213.19,146.42 L 213.19,146.42 L 213.19,146.42 L 213.89,147.11 L 213.89,147.81 L 214.58,149.89 L 215.28,151.97 L 215.97,154.75 L 216.67,156.84 L 217.36,158.92 L 218.06,159.61 L 218.06,160.31 L 218.06,160.31 L 218.06,160.31 L 218.06,160.31 L 218.06,160.31 L 218.06,158.92 L 217.36,157.53 L 215.28,154.75 L 214.58,151.97 L 214.58,149.89 L 213.89,147.11 L 213.89,145.72 L 214.58,144.34 L 214.58,142.95 L 215.28,142.25 L 215.97,142.25 L 217.36,141.56 L 218.06,141.56 L 219.44,141.56 L 220.83,142.25 L 225,143.64 L 227.08,145.03 L 228.47,147.11 L 228.47,148.5 L 225.69,149.89 L 222.92,150.59 L 219.44,150.59 L 218.06,150.59 L 217.36,150.59 L 217.36,150.59 L 217.36,150.59 L 218.06,150.59 L 220.14,151.28 L 222.92,151.97 L 229.86,154.06 L 234.03,155.45 L 237.5,157.53 L 239.58,158.22 L 240.97,159.61 L 240.97,159.61 L 241.67,159.61 L 241.67,159.61 L 241.67,159.61 L 241.67,159.61 L 241.67,159.61 L 241.67,159.61 L 241.67,159.61 L 241.67,159.61 L 241.67,159.61 L 241.67,159.61 L 240.97,159.61" fill="none" stroke="#89d185" stroke-width="2"></path><path d="M 248.64,152.4 L 248.61,152.67 L 248.61,152.67 L 248.61,152.67 L 248.61,153.36 L 248.61,154.06 L 249.31,155.45 L 250.69,157.53 L 252.08,158.92 L 252.78,158.92 L 252.78,159.61 L 253.47,159.61 L 253.47,158.92 L 254.17,158.22 L 254.86,156.14 L 256.25,153.36 L 256.94,151.28 L 256.94,149.89 L 256.94,149.2 L 256.94,149.2 L 256.94,149.2 L 256.94,149.2 L 256.94,149.2 L 256.94,149.2" fill="none" stroke="#89d185" stroke-width="2"></path><path d="M 273.64,153.79 L 273.61,154.06 L 272.92,154.06 L 271.53,153.36 L 270.14,153.36 L 268.06,153.36 L 265.97,154.75 L 264.58,155.45 L 263.89,156.84 L 263.89,157.53 L 263.89,158.22 L 263.89,158.22 L 263.89,158.92 L 265.97,158.22 L 268.75,157.53 L 272.22,156.84 L 273.61,156.84 L 273.61,156.84 L 273.61,156.84 L 273.61,156.84 L 273.61,158.22 L 274.31,159.61 L 275,160.31 L 276.39,161 L 277.08,161 L 278.47,159.61 L 279.86,157.53 L 280.56,154.06 L 281.25,149.89 L 280.56,144.34 L 279.17,140.86 L 278.47,139.47 L 278.47,138.09 L 278.47,138.09 L 278.47,138.09 L 278.47,138.09 L 278.47,139.47 L 279.17,142.95 L 280.56,146.42 L 281.25,149.2 L 281.94,151.97 L 282.64,154.75 L 282.64,156.84 L 282.64,157.53 L 282.64,158.22" fill="none" stroke="#89d185" stroke-width="2"></path><path d="M 291,157.95 L 291,157.95 L 289.58,158.22 L 288.89,158.22 L 288.89,158.22 L 288.89,158.22 L 288.89,158.22 L 288.89,158.22 L 288.89,158.22 L 289.58,158.22 L 290.97,157.53 L 293.75,157.53 L 297.22,157.53 L 300,157.53 L 302.78,157.53 L 305.56,157.53 L 307.64,157.53 L 308.33,157.53 L 308.33,157.53 L 308.33,157.53 L 308.33,157.53 L 308.33,157.53 L 308.33,157.53 L 306.94,157.53 L 304.17,157.53 L 300,157.53 L 298.61,157.53 L 297.22,157.53 L 297.22,157.53 L 297.22,157.53 L 297.22,157.53 L 297.22,157.53 L 297.22,157.53 L 297.22,157.53 L 297.22,157.53 L 297.22,157.53 L 297.92,157.53 L 298.61,157.53 L 300.69,157.53 L 302.78,157.53" fill="none" stroke="#89d185" stroke-width="2"></path><path d="M 319.48,148.23 L 318.75,148.5 L 318.75,148.5 L 318.75,148.5 L 318.75,148.5 L 318.75,147.81 L 318.75,147.81 L 318.75,147.81 L 318.75,147.81 L 318.75,147.81 L 318.75,147.81 L 318.75,147.81 L 318.75,149.2 L 318.75,150.59 L 319.44,151.97 L 321.53,155.45 L 322.22,156.84 L 322.92,157.53 L 323.61,158.22 L 323.61,158.22 L 323.61,158.22 L 323.61,157.53 L 323.61,156.84 L 324.31,155.45 L 326.39,152.67 L 329.17,150.59 L 332.64,148.5 L 336.11,147.11 L 340.28,145.72 L 341.67,145.03 L 341.67,145.03 L 342.36,145.03" fill="none" stroke="#89d185" stroke-width="2"></path><path d="M 339.62,149.62 L 339.58,149.89 L 339.58,149.89 L 339.58,149.89 L 339.58,149.89 L 339.58,149.89 L 339.58,150.59 L 340.28,151.28 L 340.97,151.97 L 342.36,151.97 L 345.14,151.97 L 346.53,151.97 L 347.92,151.97 L 350,151.28 L 350,150.59 L 350.69,149.2 L 350,148.5 L 347.92,148.5 L 345.14,147.81 L 341.67,148.5 L 339.58,149.2 L 338.19,149.89 L 337.5,151.28 L 336.81,153.36 L 338.19,154.75 L 339.58,155.45 L 342.36,156.14 L 345.14,156.84 L 350,156.14 L 353.47,155.45 L 356.94,153.36 L 363.19,148.5 L 365.97,145.72 L 366.67,142.95 L 367.36,140.17 L 366.67,138.09 L 366.67,136.7 L 366.67,136 L 365.97,136 L 363.19,136 L 359.72,135.31 L 354.86,136 L 353.47,136 L 352.78,137.39 L 352.78,138.78 L 353.47,140.86 L 356.94,144.34 L 359.72,147.11 L 361.81,149.89 L 363.89,152.67 L 364.58,155.45 L 363.89,157.53 L 363.19,158.92 L 361.81,159.61 L 361.11,160.31 L 361.11,160.31 L 361.11,160.31 L 361.11,160.31 L 360.42,159.61 L 360.42,158.22 L 361.81,156.84 L 363.89,155.45 L 365.28,154.75 L 366.67,153.36 L 368.75,152.67 L 369.44,152.67 L 370.14,151.97 L 370.83,151.97 L 371.53,151.97 L 371.53,151.97 L 371.53,151.97 L 371.53,151.97 L 370.14,151.28 L 366.67,151.28 L 365.28,151.28 L 365.28,151.28 L 365.28,151.28 L 365.28,151.28 L 365.28,151.28 L 365.28,151.28 L 365.97,151.97 L 368.75,151.97 L 370.83,151.97 L 370.83,151.97 L 370.83,151.97 L 370.83,151.97 L 370.14,151.97" fill="none" stroke="#89d185" stroke-width="2"></path><path d="M 397.95,141.98 L 397.95,141.98 L 397.22,142.25 L 395.83,142.25 L 395.14,142.95 L 394.44,142.95 L 394.44,142.95 L 393.75,142.95 L 393.06,143.64 L 393.06,143.64 L 393.06,143.64 L 393.06,143.64 L 393.75,143.64 L 394.44,143.64 L 395.83,143.64 L 396.53,143.64 L 396.53,143.64 L 396.53,143.64 L 395.83,143.64 L 393.75,143.64 L 390.28,144.34 L 386.11,144.34 L 379.86,144.34 L 377.78,144.34 L 376.39,144.34 L 376.39,144.34 L 377.78,145.03 L 379.86,145.03" fill="none" stroke="#89d185" stroke-width="2"></path><path d="M 406.98,151.7 L 406.98,151.7 L 406.25,151.97 L 406.25,151.97 L 406.25,151.97 L 404.86,151.97 L 404.17,151.97 L 402.78,151.97 L 400.69,151.97 L 397.92,152.67 L 393.06,152.67 L 390.97,153.36 L 390.28,153.36 L 389.58,153.36 L 389.58,153.36 L 389.58,153.36 L 389.58,153.36" fill="none" stroke="#89d185" stroke-width="2"></path><path d="M 242.39,305.87 L 242.36,305.45 L 243.06,304.75 L 244.44,304.06 L 246.53,302.67 L 252.08,301.28 L 256.94,300.59 L 262.5,300.59 L 268.75,301.28 L 275,302.67 L 286.11,304.75 L 295.14,306.14 L 304.17,308.92 L 311.81,311.7 L 319.44,316.56 L 322.92,320.03 L 325.69,324.2 L 328.47,328.36 L 330.56,333.22 L 333.33,339.47 L 334.72,344.34 L 336.81,350.59 L 338.19,355.45 L 339.58,359.61 L 340.97,363.78 L 343.06,367.95 L 344.44,370.72 L 346.53,374.2 L 351.39,378.36 L 354.86,381.14 L 359.03,383.92 L 364.58,386.7 L 368.06,388.78 L 370.83,390.17 L 375.69,390.86 L 377.78,391.56 L 383.33,391.56 L 387.5,391.56 L 390.28,391.56 L 391.67,391.56 L 393.06,391.56 L 393.06,391.56 L 393.06,391.56 L 393.06,391.56 L 393.06,391.56 L 393.06,391.56 L 393.06,391.56 L 393.06,391.56 L 392.36,390.86 L 390.28,388.78 L 388.89,387.39 L 388.19,385.31 L 387.5,384.61 L 386.81,383.92 L 385.42,383.22 L 385.42,382.53 L 385.42,382.53 L 384.72,382.53 L 384.03,382.53 L 384.03,382.53 L 383.33,382.53 L 383.33,382.53 L 383.33,383.22 L 383.33,383.92 L 385.42,385.31 L 387.5,386 L 389.58,387.39 L 393.06,388.09 L 394.44,388.78 L 395.14,388.78 L 395.83,389.47 L 395.83,390.17 L 395.83,390.86 L 395.14,391.56 L 393.75,392.25 L 390.28,392.95 L 387.5,393.64 L 384.72,394.34 L 382.64,395.03 L 380.56,395.03 L 380.56,395.03 L 380.56,395.03 L 379.86,395.03 L 379.86,393.64 L 379.17,390.86 L 379.86,388.78 L 379.86,387.39 L 380.56,386 L 380.56,385.31 L 381.25,384.61 L 381.25,383.92 L 381.94,383.92 L 381.94,383.22 L 381.94,382.53 L 382.64,381.84 L 382.64,381.84 L 382.64,381.84 L 382.64,381.84 L 382.64,381.84 L 382.64,381.84 L 382.64,381.84 L 382.64,381.84 L 382.64,381.84 L 382.64,381.84 L 382.64,381.84 L 382.64,381.84 L 382.64,382.53 L 381.94,383.22" fill="none" stroke="#3794ff" stroke-width="2"></path><path d="M 230.59,292.68 L 230.59,292.68 L 230.56,292.95 L 230.56,292.25 L 230.56,292.25 L 230.56,292.25 L 230.56,292.25 L 230.56,292.95 L 227.08,296.42 L 223.61,299.89 L 220.14,304.06 L 217.36,307.53 L 214.58,311 L 213.89,312.39 L 213.89,312.39 L 213.89,312.39 L 213.89,312.39" fill="none" stroke="#3794ff" stroke-width="2"></path><path d="M 213.92,292.68 L 213.92,292.68 L 213.89,292.95 L 213.89,292.25 L 213.89,292.25 L 213.89,292.25 L 215.28,292.95 L 220.83,295.72 L 225.69,298.5 L 230.56,301.97 L 235.42,304.75 L 238.89,307.53 L 241.67,311" fill="none" stroke="#3794ff" stroke-width="2"></path><path d="M 386.14,91.29 L 386.11,91.56 L 386.11,91.56 L 386.11,91.56 L 386.11,91.56 L 386.11,91.56 L 386.11,91.56 L 385.42,92.25 L 385.42,94.34 L 382.64,99.2 L 381.25,102.67 L 380.56,106.14 L 379.17,108.92 L 377.78,111.7 L 377.08,113.78 L 377.08,114.47 L 376.39,114.47 L 376.39,114.47 L 376.39,114.47 L 376.39,114.47 L 376.39,113.78" fill="none" stroke="#cca700" stroke-width="2"></path><path d="M 368.09,98.23 L 368.06,98.5 L 368.06,97.81 L 367.36,97.81 L 367.36,97.11 L 367.36,97.11 L 367.36,97.11 L 367.36,97.11 L 367.36,97.11 L 367.36,97.11 L 367.36,97.11 L 367.36,97.11 L 369.44,97.81 L 375.69,100.59 L 381.25,103.36 L 386.11,106.14 L 390.28,108.22 L 394.44,111 L 395.83,112.39 L 397.22,113.09 L 397.92,113.78 L 398.61,113.78 L 398.61,114.47 L 398.61,114.47 L 398.61,113.78 L 398.61,113.78 L 397.92,113.09 L 397.92,112.39 L 397.22,111.7" fill="none" stroke="#cca700" stroke-width="2"></path><path d="M 422.25,132.26 L 422.22,132.53 L 422.22,132.53 L 422.22,132.53 L 422.22,132.53 L 422.22,132.53 L 422.22,132.53 L 422.22,133.22 L 422.22,138.09 L 422.92,141.56 L 424.31,144.34 L 425,147.11 L 425.69,149.2 L 425.69,150.59 L 425.69,150.59 L 425,150.59" fill="none" stroke="#89d185" stroke-width="2"></path><path d="M 445.87,131.56 L 445.83,131.84 L 445.14,131.14 L 445.14,131.14 L 444.44,131.14 L 443.06,131.84 L 439.58,131.84 L 436.81,132.53 L 434.72,133.22 L 431.94,133.22 L 431.25,133.92 L 430.56,134.61 L 430.56,135.31 L 431.25,136.7 L 431.94,138.09 L 434.03,140.17 L 434.72,141.56 L 434.72,142.95 L 434.72,143.64 L 434.72,144.34 L 434.72,144.34 L 434.72,144.34 L 435.42,143.64 L 436.11,142.25 L 438.89,141.56 L 441.67,140.86 L 444.44,140.86 L 447.22,140.86 L 450,141.56 L 452.78,143.64 L 452.78,145.03 L 452.78,145.72 L 451.39,147.11 L 447.22,148.5 L 444.44,149.2 L 440.97,149.89 L 438.89,149.89 L 437.5,149.89 L 436.81,149.2" fill="none" stroke="#89d185" stroke-width="2"></path><path d="M 472.95,129.48 L 472.92,129.75 L 473.61,129.06 L 473.61,129.06 L 474.31,128.36 L 474.31,128.36 L 474.31,128.36 L 474.31,130.45 L 474.31,131.14" fill="none" stroke="#89d185" stroke-width="2"></path><path d="M 479.2,141.29 L 479.17,142.25 L 479.17,142.95 L 479.17,143.64 L 479.17,144.34 L 479.17,144.34 L 478.47,143.64 L 478.47,142.95 L 479.86,141.56 L 480.56,140.86 L 481.94,140.86 L 484.03,141.56 L 485.42,142.95 L 484.03,147.11 L 475,151.28" fill="none" stroke="#89d185" stroke-width="2"></path><path d="M 127.81,409.34 L 128.47,408.92 L 129.17,407.53 L 129.86,406.14 L 131.25,405.45 L 131.94,404.06 L 133.33,402.67 L 136.11,399.2 L 138.19,395.72 L 140.97,392.25 L 143.06,388.09 L 145.83,383.92 L 150,379.06 L 152.78,375.59 L 156.25,372.11 L 161.11,367.95 L 165.97,363.09 L 174.31,356.14 L 179.86,351.28 L 184.03,347.81 L 187.5,345.03 L 191.67,341.56 L 193.06,340.17 L 193.75,338.78 L 194.44,337.39 L 195.83,336 L 197.22,334.61 L 198.61,333.92 L 200,332.53 L 201.39,330.45 L 203.47,329.06 L 204.86,328.36 L 204.86,327.67 L 205.56,326.97 L 206.25,326.28 L 206.94,326.28 L 206.94,325.59 L 206.94,325.59 L 206.94,325.59 L 206.94,325.59 L 207.64,325.59 L 207.64,324.89 L 208.33,324.2 L 209.03,324.2 L 209.03,323.5 L 209.72,323.5 L 209.72,323.5 L 209.72,323.5 L 209.72,323.5 L 209.03,323.5 L 207.64,324.2 L 204.86,324.89 L 201.39,326.28 L 199.31,326.97 L 193.06,328.36 L 192.36,328.36 L 192.36,328.36 L 192.36,328.36 L 192.36,328.36 L 195.14,327.67 L 198.61,326.97 L 202.08,325.59 L 206.25,324.2 L 209.03,322.81 L 212.5,321.42 L 213.19,321.42 L 213.19,321.42 L 213.19,321.42 L 213.19,321.42 L 213.19,322.11 L 213.19,323.5 L 213.19,325.59 L 212.5,327.67 L 211.11,331.14 L 209.72,333.22 L 209.72,333.92 L 209.03,334.61 L 209.03,334.61 L 209.03,334.61 L 208.33,333.92 L 206.25,332.53 L 203.47,330.45 L 200,328.36 L 198.61,327.67 L 197.92,327.67 L 197.22,326.97 L 197.22,326.97 L 197.22,327.67 L 197.92,328.36" fill="none" stroke="#cca700" stroke-width="2"></path><path d="M 216.7,335.73 L 216.67,336 L 216.67,336 L 216.67,335.31 L 216.67,335.31 L 216.67,335.31 L 216.67,334.61 L 216.67,334.61 L 216.67,334.61" fill="none" stroke="#cca700" stroke-width="2"></path><path d="M 220.87,332.95 L 220.83,333.22 L 220.83,333.22 L 220.83,333.22 L 220.14,333.22 L 220.14,333.22 L 220.14,333.22 L 220.14,332.53 L 220.14,332.53 L 220.83,331.84 L 221.53,331.14 L 223.61,329.75 L 225.69,329.06 L 227.78,328.36 L 228.47,327.67 L 228.47,327.67 L 228.47,327.67 L 228.47,327.67" fill="none" stroke="#cca700" stroke-width="2"></path><path d="M 235.45,324.62 L 235.45,324.62 L 235.42,324.2 L 236.11,324.2 L 236.81,323.5 L 238.89,322.81 L 240.28,322.81 L 241.67,322.11 L 243.06,322.11 L 245.14,322.11 L 247.22,322.11 L 247.22,322.11" fill="none" stroke="#cca700" stroke-width="2"></path><path d="M 255.59,320.45 L 255.59,320.45 L 256.25,320.72 L 257.64,320.03 L 259.03,319.34 L 260.42,319.34 L 261.81,318.64 L 263.89,318.64 L 265.28,318.64 L 267.36,318.64 L 268.06,318.64 L 269.44,318.64 L 270.83,319.34" fill="none" stroke="#cca700" stroke-width="2"></path><path d="M 286.14,322.54 L 286.11,322.81 L 286.11,322.81 L 286.11,322.81 L 286.11,322.81 L 286.81,322.81 L 287.5,323.5 L 288.89,323.5 L 292.36,324.2 L 294.44,324.89 L 296.53,325.59 L 297.92,325.59 L 299.31,326.28 L 299.31,326.97" fill="none" stroke="#cca700" stroke-width="2"></path><path d="M 304.2,335.73 L 304.2,335.73 L 304.86,336 L 306.25,336.7 L 307.64,336.7 L 309.72,337.39 L 311.11,338.09 L 312.5,338.78 L 313.19,340.17 L 315.28,341.56 L 316.67,342.25 L 316.67,342.25" fill="none" stroke="#cca700" stroke-width="2"></path><path d="M 322.25,354.48 L 322.22,354.75 L 322.22,354.75 L 322.22,354.75 L 322.22,354.06 L 322.22,354.06 L 322.22,354.06 L 322.22,354.06 L 322.22,355.45 L 323.61,356.14 L 324.31,357.53 L 325.69,359.61 L 327.08,361 L 328.47,362.39 L 329.86,363.09 L 330.56,364.47 L 330.56,365.17" fill="none" stroke="#cca700" stroke-width="2"></path><path d="M 334.75,373.23 L 334.75,373.23 L 334.72,373.5 L 336.11,373.5 L 337.5,374.2 L 338.19,374.89 L 339.58,375.59 L 340.97,376.28 L 341.67,376.97 L 342.36,377.67 L 343.06,378.36 L 344.44,379.75" fill="none" stroke="#cca700" stroke-width="2"></path><path d="M 352.12,389.2 L 352.12,389.2 L 352.08,389.47 L 352.78,390.17 L 352.78,390.17 L 353.47,390.86 L 354.17,390.86 L 354.86,391.56 L 356.25,392.95 L 356.94,393.64 L 358.33,394.34 L 359.72,395.03 L 361.11,396.42 L 362.5,397.11 L 363.89,397.11 L 364.58,397.81" fill="none" stroke="#cca700" stroke-width="2"></path><path d="M 369.48,399.62 L 369.48,399.62 L 370.14,399.89 L 370.83,399.89 L 370.83,400.59 L 372.22,400.59 L 372.22,400.59 L 372.92,400.59 L 373.61,401.28 L 375,401.28 L 375.69,401.97 L 376.39,402.67 L 377.08,402.67 L 377.78,402.67 L 378.47,403.36 L 378.47,404.06" fill="none" stroke="#cca700" stroke-width="2"></path><path d="M 386.14,398.93 L 386.11,399.2 L 386.11,399.2 L 386.11,399.2 L 386.11,398.5 L 386.11,398.5 L 386.11,398.5 L 386.81,399.2 L 387.5,399.2 L 388.89,399.89 L 390.28,400.59 L 390.97,401.28 L 392.36,401.28 L 393.75,401.97 L 393.75,401.97 L 395.14,402.67 L 395.14,402.67 L 395.83,402.67 L 395.83,402.67 L 396.53,403.36 L 396.53,403.36 L 396.53,404.06 L 396.53,404.75 L 395.83,405.45 L 394.44,406.14 L 392.36,407.53 L 390.97,408.22 L 388.89,409.61 L 388.19,409.61 L 387.5,410.31 L 387.5,410.31 L 387.5,410.31 L 387.5,410.31 L 386.81,410.31 L 386.81,410.31 L 386.81,410.31 L 386.81,410.31 L 386.81,410.31 L 386.81,410.31 L 386.81,410.31 L 386.81,409.61 L 386.81,408.22 L 386.11,406.14 L 386.11,404.75 L 386.11,402.67 L 386.11,401.28 L 386.11,400.59 L 386.11,400.59 L 386.11,399.89 L 386.11,399.2 L 386.11,397.81 L 386.11,397.11 L 386.11,397.11 L 386.11,396.42 L 386.11,396.42 L 386.11,396.42 L 386.11,396.42 L 386.11,396.42 L 386.11,396.42 L 386.11,397.11 L 386.11,397.11 L 386.11,397.81 L 386.11,398.5 L 386.11,399.2" fill="none" stroke="#cca700" stroke-width="2"></path><path d="M 381.28,402.4 L 381.28,402.4 L 381.25,402.67 L 381.94,402.67 L 382.64,402.67 L 382.64,402.67 L 384.03,403.36 L 384.03,403.36 L 384.72,403.36 L 385.42,404.06 L 386.11,404.06 L 386.11,404.06" fill="none" stroke="#cca700" stroke-width="2"></path><path d="M 58.37,421.15 L 57.64,421.42 L 57.64,420.72 L 57.64,420.03 L 57.64,419.34 L 56.94,418.64 L 56.94,417.95 L 56.94,417.25 L 56.94,417.25 L 56.94,417.25 L 57.64,417.95 L 59.03,420.72 L 61.11,426.28 L 62.5,429.75 L 61.81,433.22 L 61.81,436.7 L 61.11,437.39 L 61.11,437.39 L 61.81,437.39 L 62.5,438.09 L 63.89,438.09 L 68.06,437.39 L 71.53,437.39 L 76.39,437.39 L 79.17,437.39 L 80.56,438.09" fill="none" stroke="#cca700" stroke-width="2"></path><path d="M 81.98,426.7 L 81.94,426.28 L 81.94,426.28 L 81.94,425.59 L 81.94,424.89 L 81.94,424.89 L 81.94,424.89 L 82.64,426.28 L 84.03,429.06 L 86.11,432.53 L 87.5,434.61 L 88.19,435.31 L 88.89,436 L 88.89,436 L 88.89,436 L 88.89,436 L 89.58,435.31 L 90.28,433.22 L 90.97,430.45 L 90.97,427.67 L 90.97,426.28 L 90.97,425.59 L 90.97,425.59 L 90.97,425.59" fill="none" stroke="#cca700" stroke-width="2"></path><path d="M 104.89,430.87 L 104.89,430.87 L 104.86,431.14 L 104.17,430.45 L 103.47,430.45 L 101.39,431.14 L 99.31,432.53 L 97.22,433.92 L 95.83,435.31 L 95.83,436.7 L 96.53,437.39 L 97.22,437.39 L 99.31,436.7 L 101.39,434.61 L 103.47,431.84 L 104.17,430.45 L 104.86,430.45 L 104.86,430.45 L 104.17,431.84 L 104.17,433.22 L 104.17,434.61 L 104.86,436 L 105.56,436 L 106.94,435.31 L 109.72,433.22 L 111.81,429.75 L 113.19,425.59 L 113.19,419.34 L 112.5,416.56 L 111.11,415.86 L 110.42,415.17 L 110.42,415.17 L 109.72,415.86 L 109.72,418.64 L 109.03,422.11 L 109.03,426.28 L 109.72,431.14 L 109.72,433.92 L 109.72,436 L 109.72,438.09 L 110.42,439.47" fill="none" stroke="#cca700" stroke-width="2"></path><path d="M 122.95,437.12 L 122.95,437.12 L 122.92,437.39 L 123.61,437.39 L 124.31,436.7 L 125.69,436 L 126.39,436 L 126.39,436 L 126.39,436 L 125.69,436 L 124.31,436.7 L 122.22,437.39 L 120.83,437.39 L 119.44,438.09 L 117.36,438.09 L 117.36,438.09 L 117.36,438.09 L 117.36,438.09 L 118.06,438.09 L 119.44,437.39 L 120.83,437.39 L 122.22,437.39 L 122.92,437.39 L 122.92,437.39 L 122.92,437.39 L 122.92,437.39 L 122.22,437.39 L 121.53,437.39 L 120.83,437.39 L 120.14,438.09 L 119.44,438.09" fill="none" stroke="#cca700" stroke-width="2"></path><path d="M 141,425.31 L 140.97,425.59 L 140.97,425.59 L 140.97,425.59 L 139.58,427.67 L 137.5,430.45 L 134.72,435.31 L 133.33,438.09 L 132.64,440.17 L 132.64,441.56 L 132.64,441.56 L 132.64,441.56" fill="none" stroke="#cca700" stroke-width="2"></path><path d="M 130.59,429.48 L 130.56,429.75 L 130.56,429.75 L 130.56,429.75 L 130.56,429.06 L 130.56,429.06 L 131.25,429.75 L 134.03,431.84 L 136.81,433.92 L 139.58,436.7 L 142.36,439.47 L 144.44,441.56" fill="none" stroke="#cca700" stroke-width="2"></path><path d="M 150.73,428.79 L 150.73,428.79 L 150.69,429.06 L 150.69,429.06 L 152.08,429.06 L 153.47,429.75 L 154.86,431.14 L 156.94,433.92 L 156.94,435.31 L 156.94,436.7 L 156.25,437.39 L 156.25,437.39 L 155.56,436.7 L 155.56,434.61 L 156.25,431.84 L 156.94,428.36 L 159.72,424.89 L 161.11,424.2 L 161.81,423.5 L 162.5,424.2" fill="none" stroke="#cca700" stroke-width="2"></path><path d="M 166.7,428.09 L 166.7,428.09 L 167.36,428.36 L 168.06,429.06 L 169.44,429.06 L 172.22,428.36 L 173.61,427.67 L 175,426.28 L 175.69,425.59 L 176.39,424.89 L 175.69,424.2 L 174.31,424.89 L 170.83,425.59 L 167.36,426.97 L 163.89,428.36 L 163.19,429.75 L 163.19,431.14 L 165.28,431.84 L 168.06,431.84 L 174.31,431.84 L 179.17,431.14 L 183.33,429.75" fill="none" stroke="#cca700" stroke-width="2"></path><path d="M 197.95,412.81 L 197.95,412.81 L 197.22,412.39 L 196.53,410.31 L 195.83,409.61 L 193.75,408.92 L 190.97,408.92 L 186.11,409.61 L 182.64,411 L 180.56,411.7 L 178.47,413.09 L 177.78,414.47 L 177.78,417.25 L 179.17,419.34 L 181.94,421.42 L 185.42,424.2 L 188.19,426.28 L 190.97,429.75 L 192.36,431.14 L 192.36,433.22 L 192.36,435.31 L 191.67,437.39 L 190.28,438.78 L 190.28,438.78 L 189.58,438.78 L 190.28,438.09 L 191.67,435.31 L 193.75,432.53 L 195.83,431.14 L 197.22,429.75 L 197.92,429.06 L 198.61,428.36 L 198.61,427.67 L 198.61,427.67 L 198.61,427.67 L 197.22,428.36 L 195.14,428.36 L 193.75,428.36 L 193.06,428.36 L 192.36,429.06 L 192.36,429.06 L 192.36,429.06 L 193.75,429.06 L 195.14,428.36 L 196.53,428.36 L 196.53,428.36 L 197.22,428.36 L 197.22,428.36 L 197.22,428.36 L 195.83,429.06 L 193.75,429.75 L 190.97,429.75" fill="none" stroke="#cca700" stroke-width="2"></path><line x1="504.89" y1="319.06" x2="394.44" y2="320.72" fill="none" stroke="#b180d7" stroke-width="2" d="M 504.89 319.06 L 394.44 320.72"></line><line x1="505.59" y1="361.43" x2="397.22" y2="361.7" fill="none" stroke="#b180d7" stroke-width="2" d="M 505.59 361.43 L 397.22 361.7"></line><path d="M 435.45,334.34 L 435.45,334.34 L 434.72,333.92 L 434.72,333.22 L 434.72,333.22 L 434.72,333.22 L 434.72,333.22 L 435.42,333.22 L 435.42,333.22 L 436.11,334.61 L 438.19,337.39 L 440.97,340.86 L 442.36,343.64 L 443.06,346.42 L 443.06,349.2 L 443.06,350.59" fill="none" stroke="#b180d7" stroke-width="2"></path><path d="M 456.28,332.95 L 456.25,333.22 L 456.25,333.22 L 456.25,333.22 L 456.94,333.22 L 456.94,332.53 L 456.94,332.53 L 456.94,332.53 L 456.94,332.53 L 456.25,333.22 L 454.17,333.92 L 452.08,333.92 L 450,334.61 L 447.92,335.31 L 447.92,335.31 L 447.92,335.31 L 447.92,335.31 L 447.92,336 L 449.31,337.39 L 449.31,338.78 L 449.31,340.17 L 449.31,341.56 L 449.31,342.95 L 449.31,343.64 L 449.31,343.64 L 449.31,343.64 L 449.31,343.64 L 449.31,343.64 L 449.31,343.64 L 450,342.95 L 452.08,342.95 L 455.56,342.25 L 459.03,341.56 L 461.81,341.56 L 463.19,341.56 L 464.58,342.95 L 464.58,344.34 L 462.5,345.72 L 459.72,347.11 L 456.94,348.5 L 452.08,350.59 L 450.69,351.28 L 449.31,351.97 L 448.61,351.97" fill="none" stroke="#b180d7" stroke-width="2"></path><path d="M 558.37,266.98 L 558.33,267.25 L 558.33,267.25 L 558.33,267.25 L 558.33,267.25 L 558.33,267.25 L 559.03,268.64 L 560.42,271.42 L 561.81,274.2 L 565.28,279.06 L 568.06,282.53 L 570.14,286 L 571.53,289.47 L 572.22,295.72 L 572.22,299.2 L 571.53,303.36 L 568.75,306.84 L 565.97,310.31 L 559.03,315.17 L 554.17,317.95 L 548.61,321.42 L 543.06,324.89 L 537.5,327.67 L 530.56,330.45 L 526.39,332.53 L 522.92,334.61 L 520.83,336 L 519.44,336 L 519.44,335.31 L 518.75,334.61 L 518.06,333.92 L 518.06,333.22 L 518.06,331.84 L 518.06,330.45 L 518.06,329.06 L 518.75,327.67 L 518.75,326.97 L 518.75,326.97 L 518.75,326.97 L 518.75,326.97 L 520.83,328.36 L 520.83,330.45 L 520.83,332.53 L 519.44,334.61 L 517.36,336.7 L 515.97,338.09 L 515.28,338.09 L 515.28,338.09 L 515.28,338.09 L 515.28,338.09 L 518.75,338.09 L 523.61,337.39 L 529.86,336.7 L 534.72,336 L 538.19,336 L 538.19,336 L 538.19,336 L 538.19,336 L 538.89,336 L 538.89,336 L 537.5,336 L 534.72,334.61 L 531.25,331.84 L 525.69,328.36 L 523.61,326.97 L 521.53,325.59 L 520.83,325.59 L 520.14,324.89 L 520.14,324.89 L 519.44,324.89 L 519.44,324.89" fill="none" stroke="#89d185" stroke-width="2"></path><path d="M 537.53,248.23 L 537.53,248.23 L 536.81,248.5 L 536.81,248.5 L 537.5,248.5 L 538.19,249.2 L 539.58,250.59 L 541.67,252.67 L 543.75,255.45 L 545.14,256.14 L 547.22,258.92 L 547.92,259.61 L 547.92,260.31 L 547.92,260.31 L 547.92,260.31 L 547.22,258.92 L 545.14,257.53 L 543.06,255.45 L 541.67,252.67 L 540.28,249.89 L 539.58,248.5 L 538.89,246.42 L 538.89,245.72 L 538.89,245.03 L 539.58,244.34 L 539.58,244.34 L 540.97,244.34 L 543.06,245.03 L 546.53,246.42 L 547.92,247.11 L 549.31,248.5 L 548.61,249.2 L 546.53,250.59 L 544.44,251.97 L 542.36,251.97 L 541.67,251.97 L 540.97,252.67 L 540.97,252.67 L 540.97,252.67 L 543.06,252.67 L 547.22,252.67 L 548.61,253.36 L 553.47,254.06 L 556.25,254.75 L 558.33,256.14 L 559.72,256.84 L 561.81,258.92 L 563.19,259.61 L 563.19,259.61 L 563.89,259.61 L 563.89,260.31 L 563.89,260.31 L 563.89,260.31 L 563.89,259.61" fill="none" stroke="#89d185" stroke-width="2"></path><path d="M 561.84,251.7 L 561.81,251.97 L 561.11,251.97 L 561.11,251.97 L 561.11,251.97 L 561.11,251.97 L 561.81,251.97 L 563.19,251.97 L 565.97,252.67 L 568.06,253.36 L 569.44,253.36 L 570.83,254.06 L 570.83,254.06 L 570.83,254.06 L 570.83,254.06 L 570.83,253.36 L 570.83,251.28 L 570.83,249.2 L 570.83,246.42 L 570.83,245.03 L 570.14,244.34 L 570.14,244.34 L 570.14,244.34 L 570.14,245.03" fill="none" stroke="#89d185" stroke-width="2"></path><path d="M 581.98,246.15 L 581.25,246.42 L 581.25,246.42 L 581.25,246.42 L 581.25,246.42 L 580.56,247.11 L 579.86,248.5 L 579.86,249.89 L 579.86,251.97 L 579.86,251.97 L 579.86,251.97 L 580.56,251.97 L 580.56,251.97 L 581.25,250.59 L 581.94,249.89 L 581.94,249.2 L 581.94,249.2 L 582.64,249.2 L 583.33,249.89 L 585.42,251.28 L 586.81,251.97 L 588.89,252.67 L 590.28,252.67 L 590.97,252.67 L 590.97,251.28 L 590.97,249.2 L 589.58,243.64 L 587.5,239.47 L 584.72,235.31 L 581.94,231.84 L 579.17,227.67 L 579.17,226.97 L 579.17,226.97 L 579.17,226.97 L 579.17,227.67 L 581.94,231.14 L 584.72,234.61 L 588.19,238.09 L 590.28,241.56 L 593.06,245.03 L 595.14,247.81 L 595.83,249.2 L 595.83,249.89" fill="none" stroke="#89d185" stroke-width="2"></path><path d="M 599.34,243.37 L 599.31,243.64 L 599.31,243.64 L 599.31,243.64 L 599.31,243.64 L 599.31,243.64 L 599.31,243.64 L 599.31,243.64 L 599.31,243.64 L 599.31,243.64 L 599.31,243.64 L 599.31,243.64 L 599.31,243.64 L 599.31,243.64 L 599.31,243.64 L 599.31,243.64 L 599.31,243.64 L 599.31,243.64 L 599.31,243.64 L 599.31,243.64 L 599.31,243.64 L 599.31,243.64 L 599.31,243.64 L 599.31,243.64 L 599.31,243.64 L 599.31,243.64 L 599.31,243.64 L 600,244.34 L 600,244.34 L 600.69,244.34 L 601.39,244.34 L 601.39,244.34 L 602.08,244.34 L 602.08,243.64 L 602.08,243.64 L 602.08,243.64 L 602.08,243.64 L 602.08,243.64 L 602.08,243.64 L 602.08,243.64 L 602.08,243.64 L 602.08,243.64 L 602.08,243.64 L 602.08,243.64 L 602.08,243.64 L 602.08,243.64 L 602.08,243.64 L 602.08,243.64 L 602.08,243.64 L 602.08,243.64 L 602.08,243.64 L 602.08,243.64 L 602.08,243.64 L 602.08,243.64 L 602.08,243.64 L 602.08,243.64 L 602.08,243.64 L 602.08,243.64 L 602.08,243.64 L 602.08,243.64 L 602.08,243.64 L 602.08,243.64 L 602.08,243.64 L 602.08,243.64 L 602.08,243.64 L 602.08,243.64 L 602.08,243.64 L 603.47,243.64 L 605.56,242.95 L 609.03,242.25 L 611.11,242.25 L 611.81,241.56 L 612.5,241.56 L 612.5,241.56 L 612.5,241.56 L 612.5,241.56 L 611.81,241.56 L 609.72,242.25 L 606.25,243.64 L 604.17,244.34 L 604.17,244.34 L 603.47,244.34 L 603.47,244.34 L 603.47,244.34 L 604.17,244.34 L 604.17,243.64" fill="none" stroke="#89d185" stroke-width="2"></path><path d="M 613.23,230.87 L 613.19,231.14 L 613.19,231.14 L 613.19,231.14 L 613.89,231.14 L 615.28,231.84 L 618.06,233.22 L 620.14,234.61 L 622.22,236 L 624.31,236.7 L 624.31,237.39 L 624.31,237.39 L 624.31,238.09 L 623.61,237.39 L 622.92,236.7 L 622.22,234.61 L 622.22,231.84 L 622.22,229.06 L 622.92,227.67 L 624.31,226.28 L 624.31,225.59 L 624.31,225.59 L 625,225.59 L 625,226.28 L 625.69,226.28" fill="none" stroke="#89d185" stroke-width="2"></path><path d="M 631.98,228.79 L 631.98,228.79 L 631.94,229.06 L 632.64,229.06 L 633.33,229.06 L 634.72,229.06 L 636.11,229.06 L 638.19,228.36 L 639.58,226.97 L 640.97,226.28 L 640.97,224.2 L 640.97,224.2 L 639.58,224.2 L 638.19,224.2 L 636.11,224.89 L 634.72,226.28 L 633.33,227.67 L 633.33,229.75 L 634.72,231.14 L 636.11,231.84 L 638.19,231.84 L 642.36,231.84 L 645.14,231.84 L 647.92,231.14 L 650,229.06 L 651.39,226.97" fill="none" stroke="#89d185" stroke-width="2"></path><path d="M 652.12,212.12 L 652.08,211.7 L 650.69,209.61 L 650.69,209.61 L 650,208.92 L 649.31,208.92 L 647.22,209.61 L 644.44,210.31 L 642.36,211 L 642.36,211.7 L 641.67,213.09 L 644.44,215.17 L 647.22,216.56 L 651.39,218.64 L 656.25,220.72 L 661.81,224.2 L 663.89,226.28 L 665.28,228.36 L 665.28,229.75 L 665.28,231.14 L 665.28,232.53 L 665.28,232.53 L 665.28,232.53 L 664.58,231.14 L 664.58,229.75 L 664.58,226.97 L 665.28,225.59 L 665.28,224.2 L 665.28,222.81 L 665.28,222.11 L 665.28,221.42 L 665.28,221.42 L 664.58,221.42 L 663.19,221.42 L 661.11,222.11 L 659.72,222.11 L 659.03,222.11 L 659.03,222.81 L 659.03,222.81 L 659.03,222.11 L 661.11,221.42 L 665.28,220.72 L 665.97,220.72 L 666.67,220.03 L 666.67,220.03 L 665.97,220.72 L 664.58,222.11" fill="none" stroke="#89d185" stroke-width="2"></path><path d="M 597.25,271.15 L 597.25,271.15 L 597.22,271.42 L 597.22,270.72 L 597.22,270.72 L 597.22,270.72 L 597.22,270.72 L 597.92,272.81 L 599.31,275.59 L 600,279.06 L 600,281.84 L 600,283.92 L 599.31,286 L 598.61,286.7 L 598.61,286.7 L 597.92,286.7 L 597.22,285.31 L 597.22,283.22 L 598.61,281.84 L 600.69,280.45 L 602.08,280.45 L 604.17,279.75 L 605.56,279.75 L 606.94,280.45 L 608.33,281.14 L 609.03,281.84 L 609.72,283.92 L 609.72,284.61 L 609.72,285.31 L 608.33,286 L 605.56,286.7 L 603.47,286.7 L 601.39,286.7 L 600,287.39 L 599.31,287.39 L 599.31,287.39 L 599.31,287.39" fill="none" stroke="#f14c4c" stroke-width="2"></path><path d="M 616.7,280.18 L 616.7,280.18 L 616.67,280.45 L 617.36,280.45 L 618.06,281.14 L 619.44,283.22 L 619.44,283.92 L 619.44,285.31 L 618.75,286 L 616.67,286 L 615.28,285.31 L 615.28,283.22" fill="none" stroke="#f14c4c" stroke-width="2"></path><path d="M 616,274.62 L 615.97,273.5 L 615.97,272.81 L 615.97,272.11 L 616.67,271.42 L 617.36,270.72 L 617.36,270.72 L 617.36,271.42" fill="none" stroke="#f14c4c" stroke-width="2"></path><path d="M 626.42,280.18 L 626.42,280.18 L 627.08,281.14 L 628.47,282.53 L 629.17,283.22 L 629.17,283.92 L 629.17,283.92 L 629.86,283.22 L 629.86,282.53 L 630.56,281.14 L 631.25,280.45 L 631.25,280.45 L 631.94,280.45 L 632.64,281.14 L 633.33,282.53 L 634.03,283.22 L 635.42,283.92 L 635.42,284.61 L 636.11,283.92 L 636.81,283.92" fill="none" stroke="#f14c4c" stroke-width="2"></path><path d="M 641.7,269.06 L 641.67,268.64 L 641.67,267.25 L 641.67,265.86 L 641.67,265.86 L 642.36,265.86 L 643.06,266.56 L 645.14,268.64 L 647.22,274.2 L 648.61,277.67 L 649.31,281.14 L 649.31,283.92 L 647.22,286.7 L 645.14,288.09 L 643.75,288.78 L 643.06,288.78 L 642.36,288.09 L 641.67,285.31 L 641.67,283.22 L 642.36,281.84 L 642.36,281.14 L 643.75,279.75 L 644.44,279.06 L 644.44,278.36 L 645.14,278.36 L 645.83,278.36 L 650.69,279.75 L 655.56,280.45" fill="none" stroke="#f14c4c" stroke-width="2"></path><path d="M 675.73,265.59 L 675.73,265.59 L 675.69,265.17 L 675,264.47 L 675,264.47 L 675,263.78 L 675,263.78 L 675,264.47 L 675,266.56 L 675,270.03 L 675.69,274.2 L 675.69,276.28 L 675,279.06 L 674.31,281.14 L 674.31,281.14 L 673.61,281.84" fill="none" stroke="#f14c4c" stroke-width="2"></path><path d="M 679.2,273.93 L 679.2,273.93 L 679.17,273.5 L 679.17,272.81 L 679.17,272.81 L 679.17,272.81 L 679.17,272.81 L 677.08,272.81 L 675,272.81 L 672.92,273.5 L 671.53,273.5 L 671.53,273.5 L 670.83,274.2 L 670.83,274.2 L 672.22,274.2 L 672.92,273.5 L 675,273.5" fill="none" stroke="#f14c4c" stroke-width="2"></path><path d="M 684.75,276.01 L 684.75,276.01 L 684.72,276.28 L 684.03,276.97 L 684.03,276.97 L 684.03,276.97 L 684.03,276.97 L 684.03,276.97 L 684.03,276.97 L 684.03,276.97 L 684.03,276.97 L 684.72,276.97 L 684.72,276.97 L 685.42,276.97 L 685.42,276.28 L 685.42,276.28 L 686.11,275.59 L 686.11,275.59 L 686.11,275.59 L 686.11,275.59 L 686.11,275.59 L 684.72,275.59 L 682.64,276.28 L 680.56,276.97 L 679.17,277.67 L 678.47,278.36 L 679.17,279.06 L 679.86,279.06 L 681.94,279.06 L 684.72,279.06 L 686.81,278.36 L 687.5,277.67 L 688.19,276.28 L 688.19,276.28 L 687.5,275.59 L 686.11,275.59 L 684.03,274.89" fill="none" stroke="#f14c4c" stroke-width="2"></path><path d="M 696.56,267.68 L 696.56,267.68 L 696.53,267.95 L 696.53,267.25 L 696.53,267.25 L 696.53,267.95 L 697.22,268.64 L 698.61,270.72 L 699.31,272.81 L 699.31,274.89 L 699.31,276.28 L 698.61,278.36 L 698.61,279.06 L 698.61,279.75 L 698.61,279.75 L 698.61,279.75 L 697.92,279.06 L 697.22,277.67 L 697.22,275.59 L 696.53,274.2 L 695.83,271.42 L 695.14,270.03 L 694.44,267.95 L 694.44,266.56 L 695.14,266.56 L 695.83,265.86 L 696.53,265.17 L 697.92,265.17 L 700,265.17 L 701.39,265.17 L 702.78,265.86 L 704.17,266.56 L 704.86,267.25 L 705.56,268.64 L 704.17,270.03 L 702.08,270.72 L 699.31,272.11 L 698.61,272.11 L 697.22,272.11 L 697.22,272.11 L 697.22,272.11 L 697.92,272.81 L 699.31,273.5 L 702.78,274.2 L 705.56,275.59 L 707.64,276.28 L 709.03,277.67 L 710.42,279.06 L 711.11,279.75 L 711.81,280.45 L 711.81,280.45 L 711.81,280.45 L 711.81,280.45 L 711.81,280.45 L 711.81,280.45 L 710.42,279.75" fill="none" stroke="#f14c4c" stroke-width="2"></path><path d="M 716,270.45 L 716,270.45 L 715.28,270.72 L 715.28,270.72 L 715.28,270.72 L 715.28,271.42 L 715.28,274.2 L 716.67,276.28 L 717.36,277.67 L 718.06,278.36 L 718.75,279.06 L 718.75,279.06 L 720.14,279.06 L 720.83,278.36 L 721.53,276.97 L 722.92,272.81 L 723.61,270.03 L 723.61,267.95 L 723.61,267.25 L 723.61,266.56 L 723.61,266.56 L 722.22,267.25" fill="none" stroke="#f14c4c" stroke-width="2"></path><path d="M 733.37,270.45 L 733.37,270.45 L 732.64,270.72 L 731.94,271.42 L 730.56,272.11 L 729.86,273.5 L 729.17,274.89 L 729.17,275.59 L 729.17,276.28 L 729.17,276.97 L 729.86,276.97 L 730.56,276.28 L 731.25,274.89 L 732.64,272.81 L 733.33,271.42 L 733.33,270.72 L 733.33,270.03 L 733.33,270.72 L 733.33,272.11 L 734.03,274.2 L 735.42,276.28 L 737.5,277.67 L 738.89,277.67 L 740.28,276.97 L 740.97,274.89 L 740.97,271.42" fill="none" stroke="#f14c4c" stroke-width="2"></path><path d="M 741,258.65 L 740.28,258.92 L 739.58,257.53 L 738.89,256.14 L 738.89,256.14 L 739.58,256.14 L 740.97,257.53 L 743.06,260.31 L 745.14,264.47 L 745.83,267.95 L 746.53,272.81 L 745.14,274.89 L 744.44,275.59" fill="none" stroke="#f14c4c" stroke-width="2"></path><path d="M 750.73,270.45 L 750.69,270.72 L 750,270.03 L 750,270.72 L 750.69,271.42 L 751.39,272.81 L 751.39,273.5 L 752.08,274.2 L 752.08,274.89 L 752.78,274.2 L 753.47,272.81 L 754.86,270.03 L 755.56,268.64 L 755.56,268.64 L 755.56,268.64 L 756.25,268.64 L 759.03,271.42 L 760.42,272.11 L 760.42,272.81 L 761.11,272.81" fill="none" stroke="#f14c4c" stroke-width="2"></path><path d="M 770.17,266.98 L 770.14,267.25 L 770.14,267.25 L 770.83,268.64 L 772.22,269.34 L 772.92,269.34 L 773.61,270.03 L 774.31,269.34 L 776.39,267.95 L 776.39,267.25 L 775.69,265.86 L 775,265.17 L 772.92,265.86 L 768.75,267.95 L 766.67,270.03 L 766.67,272.11 L 768.75,274.2 L 777.78,275.59 L 786.81,275.59" fill="none" stroke="#f14c4c" stroke-width="2"></path><path d="M 37.53,460.04 L 38.19,459.61 L 38.19,458.92 L 38.89,458.22 L 39.58,457.53 L 39.58,457.53 L 39.58,457.53 L 39.58,457.53 L 39.58,458.22 L 40.97,461.7 L 41.67,465.17 L 41.67,467.95 L 41.67,470.72 L 41.67,472.11 L 41.67,472.11 L 41.67,472.11 L 40.97,472.11 L 40.97,469.34 L 42.36,467.25 L 44.44,466.56 L 45.14,465.86 L 47.92,465.17 L 50.69,465.86 L 53.47,466.56 L 54.86,467.25 L 55.56,468.64 L 55.56,470.03 L 54.86,470.72 L 52.78,472.11 L 50,472.11 L 44.44,472.81 L 41.67,472.81 L 38.19,472.81 L 36.11,472.81 L 34.72,472.81" fill="none" stroke="#f14c4c" stroke-width="2"></path><path d="M 59.06,466.29 L 59.03,466.56 L 59.03,466.56 L 59.03,466.56 L 59.72,467.25 L 59.72,468.64 L 60.42,470.03 L 60.42,471.42 L 61.11,472.11 L 61.11,472.81 L 60.42,472.81" fill="none" stroke="#f14c4c" stroke-width="2"></path><path d="M 59.75,460.73 L 59.75,460.73 L 59.72,460.31 L 60.42,459.61 L 61.81,458.92 L 61.81,458.92 L 62.5,458.92 L 62.5,459.61 L 62.5,460.31" fill="none" stroke="#f14c4c" stroke-width="2"></path><path d="M 63.23,466.98 L 63.19,467.95 L 63.19,468.64 L 63.89,470.03 L 64.58,470.03 L 64.58,470.72 L 64.58,470.72 L 64.58,470.72 L 65.28,470.03 L 65.97,469.34 L 67.36,467.95 L 68.06,467.25 L 68.75,467.25 L 68.75,467.25 L 69.44,467.95 L 70.83,468.64 L 71.53,470.03 L 72.22,470.72 L 72.92,470.72 L 72.92,471.42" fill="none" stroke="#f14c4c" stroke-width="2"></path><path d="M 81.98,457.26 L 81.94,457.53 L 81.94,457.53 L 82.64,457.53 L 82.64,456.84 L 81.94,456.84 L 80.56,456.84 L 79.17,456.84 L 79.17,456.84 L 79.17,456.84 L 79.17,456.84 L 79.17,456.84 L 79.17,456.84 L 79.17,456.84 L 79.17,456.84 L 79.17,456.84 L 79.17,456.84 L 79.86,456.14 L 81.25,457.53 L 84.03,458.92 L 86.81,461 L 89.58,463.09 L 91.67,465.17 L 92.36,467.25 L 90.97,467.95 L 88.89,469.34 L 86.81,470.72 L 81.94,471.42 L 79.86,471.42 L 79.17,471.42 L 77.78,471.42 L 77.78,470.03 L 78.47,469.34 L 79.86,467.95 L 81.94,467.25 L 83.33,465.86 L 86.11,465.17 L 86.81,464.47 L 87.5,464.47 L 88.19,464.47 L 89.58,465.17 L 90.97,466.56 L 91.67,466.56" fill="none" stroke="#f14c4c" stroke-width="2"></path><path d="M 109.06,455.87 L 109.06,455.87 L 109.03,455.45 L 109.03,454.75 L 109.03,454.06 L 109.03,454.06 L 109.03,453.36 L 109.03,453.36 L 109.03,452.67 L 109.03,452.67 L 109.03,451.97 L 108.33,450.59 L 108.33,450.59 L 108.33,450.59 L 108.33,451.28 L 109.72,452.67 L 111.81,456.84 L 113.19,459.61 L 113.89,462.39 L 114.58,464.47 L 113.19,467.25 L 111.11,467.95" fill="none" stroke="#f14c4c" stroke-width="2"></path><path d="M 116.7,458.65 L 116.67,458.92 L 116.67,458.92 L 116.67,458.92 L 115.97,458.22 L 114.58,458.22 L 110.42,458.22 L 107.64,458.92 L 106.94,458.92" fill="none" stroke="#f14c4c" stroke-width="2"></path><path d="M 116.7,458.65 L 116.67,458.92 L 117.36,458.92 L 118.06,458.92 L 118.06,458.22 L 118.75,458.22 L 118.75,458.22 L 118.75,458.22 L 118.06,458.22 L 115.97,458.22 L 113.89,458.92 L 111.11,458.92 L 109.03,459.61 L 108.33,459.61 L 108.33,459.61 L 108.33,459.61 L 109.03,459.61 L 109.72,459.61 L 111.11,459.61 L 112.5,458.92 L 113.19,458.92" fill="none" stroke="#f14c4c" stroke-width="2"></path><path d="M 121.56,457.26 L 121.53,457.53 L 121.53,457.53 L 121.53,457.53 L 120.83,458.22 L 119.44,459.61 L 118.06,461 L 117.36,462.39 L 116.67,463.78 L 117.36,463.78 L 119.44,464.47 L 121.53,464.47 L 124.31,463.78 L 127.08,462.39 L 129.86,461 L 131.25,460.31 L 131.25,458.92 L 129.86,458.22 L 127.78,458.22 L 122.22,458.22" fill="none" stroke="#f14c4c" stroke-width="2"></path><path d="M 152.81,450.31 L 152.78,449.89 L 152.78,449.89 L 152.78,450.59 L 152.78,451.97 L 153.47,454.75 L 154.17,456.84 L 154.17,461 L 154.17,463.09 L 153.47,464.47 L 153.47,465.17 L 153.47,465.86 L 153.47,465.86 L 153.47,465.86 L 154.86,465.86 L 156.94,465.86 L 161.81,465.17 L 164.58,465.17 L 166.67,465.17 L 168.06,465.17 L 168.75,465.17" fill="none" stroke="#f14c4c" stroke-width="2"></path><path d="M 170.87,455.18 L 170.83,455.45 L 170.83,455.45 L 170.83,455.45 L 170.83,455.45 L 172.22,456.84 L 174.31,458.92 L 175,461 L 175.69,462.39 L 177.08,463.78 L 178.47,464.47 L 179.86,464.47 L 180.56,463.78 L 181.94,462.39 L 183.33,458.92 L 183.33,456.84 L 183.33,455.45 L 183.33,454.06 L 183.33,454.06 L 183.33,453.36" fill="none" stroke="#f14c4c" stroke-width="2"></path><path d="M 193.78,459.34 L 193.75,459.61 L 193.75,459.61 L 193.75,459.61 L 194.44,459.61 L 194.44,459.61 L 194.44,459.61 L 194.44,458.92 L 194.44,458.92 L 193.75,458.92 L 193.06,458.92 L 192.36,458.92 L 190.97,458.92 L 188.89,458.92 L 186.81,460.31 L 185.42,461 L 184.03,462.39 L 184.03,463.78 L 184.72,465.17 L 185.42,465.86 L 186.11,465.86 L 187.5,465.86 L 190.28,465.17 L 192.36,463.78 L 193.06,462.39 L 193.75,461.7 L 193.75,460.31 L 193.75,459.61 L 194.44,458.92 L 194.44,458.92 L 194.44,458.92 L 194.44,459.61 L 194.44,461 L 194.44,462.39 L 195.83,463.78 L 195.83,464.47 L 197.22,465.17 L 197.92,464.47 L 199.31,463.09 L 199.31,462.39" fill="none" stroke="#f14c4c" stroke-width="2"></path><path d="M 200.03,450.31 L 200.03,450.31 L 199.31,449.2 L 198.61,447.81 L 198.61,447.11 L 198.61,446.42 L 198.61,446.42 L 198.61,446.42 L 198.61,446.42 L 199.31,448.5 L 202.08,455.45 L 202.78,456.84 L 202.78,459.61 L 203.47,462.39 L 204.17,463.09 L 204.86,462.39" fill="none" stroke="#f14c4c" stroke-width="2"></path><path d="M 209.06,453.79 L 209.03,454.06 L 209.03,454.06 L 209.03,454.06 L 209.03,455.45 L 209.72,456.84 L 210.42,458.22 L 210.42,459.61 L 211.11,459.61 L 211.11,460.31 L 211.81,459.61 L 212.5,458.92 L 213.19,457.53 L 213.89,456.14 L 214.58,455.45 L 214.58,455.45 L 214.58,455.45 L 214.58,455.45 L 215.28,456.84 L 215.97,458.22 L 216.67,458.92 L 217.36,458.92 L 218.06,458.92" fill="none" stroke="#f14c4c" stroke-width="2"></path><path d="M 222.95,452.4 L 222.92,452.67 L 222.92,454.06 L 222.92,455.45 L 223.61,456.84 L 225.69,457.53 L 225.69,457.53 L 226.39,457.53 L 227.78,457.53 L 228.47,456.14 L 229.86,453.36 L 230.56,451.28 L 229.86,450.59 L 229.86,450.59 L 228.47,450.59 L 227.08,451.97 L 225.69,454.06 L 225,456.84 L 224.31,458.92 L 225,460.31 L 227.78,461.7 L 232.64,461.7 L 239.58,461" fill="none" stroke="#f14c4c" stroke-width="2"></path><path d="M 521.56,394.76 L 521.56,394.76 L 522.22,394.34 L 522.92,394.34 L 522.92,394.34 L 522.92,394.34 L 522.92,394.34 L 522.92,394.34 L 522.92,394.34 L 522.92,394.34 L 524.31,397.11 L 525.69,399.2 L 526.39,401.97 L 527.08,404.06 L 527.78,406.14 L 528.47,407.53 L 528.47,409.61 L 529.17,409.61 L 529.17,409.61 L 529.17,409.61 L 529.17,409.61 L 529.17,409.61 L 529.17,408.92 L 529.17,407.53 L 529.17,406.14 L 528.47,404.75 L 528.47,403.36 L 528.47,402.67 L 528.47,402.67 L 528.47,402.67 L 527.78,402.67 L 525.69,403.36 L 522.92,404.75 L 520.14,406.14 L 515.97,407.53 L 514.58,408.22 L 513.89,408.22 L 513.89,408.22 L 513.19,406.84 L 513.19,405.45 L 513.89,404.06 L 513.89,402.67 L 513.89,401.28 L 513.89,400.59 L 513.89,399.89 L 513.89,399.2" fill="none" stroke="#d18616" stroke-width="2"></path><path d="M 514.62,349.62 L 514.62,349.62 L 513.89,349.2 L 513.19,347.11 L 513.19,346.42 L 513.19,345.72 L 513.19,345.03 L 514.58,344.34 L 515.28,343.64 L 517.36,342.95 L 518.06,342.95 L 519.44,342.25 L 519.44,342.25 L 520.14,342.95 L 520.83,344.34 L 520.14,345.72 L 518.75,348.5 L 516.67,351.28 L 514.58,352.67 L 513.19,354.75 L 513.19,355.45 L 512.5,356.84 L 513.19,357.53 L 513.89,357.53 L 515.97,358.22 L 519.44,357.53 L 522.22,356.14 L 523.61,355.45 L 524.31,354.06 L 523.61,352.67 L 521.53,351.28 L 518.06,349.89 L 513.19,349.89" fill="none" stroke="#d18616" stroke-width="2"></path></svg>