<svg id="svg" xmlns="http://www.w3.org/2000/svg" viewBox="12.920000076293945 187.80999755859375 660.9700317382812 357.5" height="357.5"><rect x="393.75" y="265.86" fill="none" stroke="#3794ff" stroke-width="2" width="113.33999999999997" height="206.52" rx="10" ry="10" d="M 393.75 275.86 a 10 10 0 0 1 10 -10 h 93.33999999999997 a 10 10 0 0 1 10 10 v 186.52 a 10 10 0 0 1 -10 10 h -93.33999999999997 a 10 10 0 0 1 -10 -10 Z"></rect><line x1="507.78" y1="380.18" x2="392.36" y2="381.14" fill="none" stroke="#3794ff" stroke-width="2" d="M 507.78 380.18 L 392.36 381.14"></line><line x1="505.7" y1="420.45" x2="393.06" y2="421.42" fill="none" stroke="#3794ff" stroke-width="2" d="M 505.7 420.45 L 393.06 421.42"></line><path d="M 103.61,204.48 L 103.47,204.75 L 104.17,204.75 L 104.17,204.06 L 104.17,204.06 L 104.17,204.75 L 104.86,206.84 L 104.86,210.31 L 106.25,217.25 L 106.25,218.64 L 106.94,220.72 L 107.64,222.11" fill="none" stroke="#89d185" stroke-width="2"></path><path d="M 116.11,207.95 L 115.97,208.22 L 115.97,208.22 L 115.97,208.22 L 115.97,208.92 L 115.97,212.39 L 115.97,214.47 L 116.67,215.86 L 116.67,217.25 L 116.67,217.25 L 116.67,217.25 L 117.36,217.25 L 118.06,215.86 L 120.14,213.78 L 123.61,211 L 123.61,211 L 124.31,210.31 L 124.31,210.31 L 125,211.7 L 127.08,214.47 L 129.17,216.56 L 130.56,217.95 L 133.33,219.34 L 134.03,219.34" fill="none" stroke="#89d185" stroke-width="2"></path><path d="M 137.64,198.23 L 137.5,197.81 L 138.19,197.81 L 138.19,197.81 L 138.19,197.81 L 138.19,199.2 L 138.19,201.97 L 138.19,205.45 L 138.19,209.61 L 138.19,213.78 L 138.19,217.95 L 137.5,219.34 L 136.81,220.03 L 136.11,220.03" fill="none" stroke="#89d185" stroke-width="2"></path><path d="M 148.75,206.56 L 148.61,206.14 L 148.61,206.14 L 148.61,206.14 L 147.92,206.14 L 145.83,206.14 L 141.67,206.84 L 134.72,207.53 L 130.56,207.53 L 128.47,208.22 L 127.78,208.22 L 127.78,208.22 L 128.47,208.22" fill="none" stroke="#89d185" stroke-width="2"></path><path d="M 174.45,203.79 L 173.61,204.06 L 173.61,204.06 L 173.61,204.06 L 172.92,204.75 L 170.14,207.53 L 168.06,210.31 L 165.28,213.09 L 163.19,215.86 L 161.11,218.64 L 161.11,219.34 L 160.42,220.03 L 160.42,220.03 L 160.42,219.34" fill="none" stroke="#89d185" stroke-width="2"></path><path d="M 161.25,207.26 L 161.11,207.53 L 161.11,206.84 L 161.11,206.84 L 161.81,206.84 L 161.81,207.53 L 163.19,208.22 L 165.28,211 L 168.75,214.47 L 170.83,215.86 L 172.22,217.95 L 172.92,218.64 L 174.31,219.34 L 174.31,219.34 L 174.31,219.34 L 174.31,219.34" fill="none" stroke="#89d185" stroke-width="2"></path><path d="M 220.28,210.04 L 220.14,210.31 L 220.14,210.31 L 220.14,209.61 L 220.14,209.61 L 220.14,209.61 L 219.44,209.61 L 216.67,210.31 L 212.5,210.31 L 205.56,211 L 201.39,211 L 198.61,211 L 197.22,211 L 196.53,211 L 196.53,211" fill="none" stroke="#89d185" stroke-width="2"></path><path d="M 216.11,217.68 L 215.97,217.95 L 215.97,217.95 L 215.97,218.64 L 215.97,218.64 L 215.28,218.64 L 213.89,218.64 L 210.42,218.64 L 206.94,218.64 L 204.17,218.64 L 200.69,218.64 L 197.92,218.64 L 195.14,218.64 L 194.44,218.64 L 193.75,218.64 L 193.75,218.64 L 193.75,218.64" fill="none" stroke="#89d185" stroke-width="2"></path><path d="M 234.86,201.7 L 234.72,201.28 L 235.42,201.28 L 235.42,200.59 L 236.11,200.59 L 236.11,200.59 L 236.11,199.89 L 236.11,200.59 L 235.42,204.06 L 234.72,207.53 L 234.72,211 L 234.72,214.47 L 234.72,216.56 L 234.72,218.64 L 235.42,219.34 L 236.11,220.03" fill="none" stroke="#89d185" stroke-width="2"></path><path d="M 250.84,206.56 L 250.69,206.84 L 250,206.84 L 248.61,207.53 L 246.53,208.22 L 245.83,209.61 L 244.44,211 L 244.44,213.09 L 244.44,213.78 L 245.14,214.47 L 245.83,214.47 L 246.53,214.47 L 248.61,213.78 L 250.69,212.39 L 252.08,210.31 L 252.08,209.61 L 252.08,208.22 L 251.39,207.53 L 250.69,207.53 L 250,207.53 L 247.92,207.53" fill="none" stroke="#89d185" stroke-width="2"></path><path d="M 265.42,204.48 L 265.28,204.06 L 265.28,204.06 L 265.97,204.06 L 265.97,204.06 L 265.97,204.06 L 265.97,204.06 L 265.97,204.06 L 265.28,204.75" fill="none" stroke="#89d185" stroke-width="2"></path><path d="M 264.03,215.59 L 263.89,215.86 L 263.19,216.56 L 262.5,216.56 L 262.5,217.25 L 262.5,217.25 L 262.5,217.25 L 262.5,217.25 L 264.58,215.86 L 265.97,215.86 L 268.06,215.86 L 268.75,216.56 L 269.44,217.95 L 268.06,220.03 L 261.11,223.5" fill="none" stroke="#89d185" stroke-width="2"></path><path d="M 443.89,396.15 L 443.89,396.15 L 443.75,395.72 L 443.75,395.72 L 443.75,395.03 L 443.75,394.34 L 443.06,394.34 L 443.06,394.34 L 443.06,394.34 L 443.06,394.34 L 443.06,395.72 L 443.06,398.5 L 443.06,401.28 L 443.75,404.06 L 443.75,406.84 L 444.44,409.61 L 444.44,411 L 445.14,412.39" fill="none" stroke="#89d185" stroke-width="2"></path><path d="M 459.17,399.62 L 459.17,399.62 L 459.03,399.89 L 458.33,399.89 L 458.33,399.89 L 458.33,399.89 L 457.64,400.59 L 454.86,401.97 L 453.47,403.36 L 452.08,404.75 L 451.39,406.14 L 450.69,407.53 L 450,408.22 L 450,408.22 L 450,408.22 L 451.39,408.22 L 454.17,408.22 L 456.25,407.53 L 459.03,406.84 L 461.11,405.45 L 463.89,403.36 L 463.89,401.97 L 463.89,401.28 L 461.81,400.59 L 459.03,400.59 L 452.78,400.59" fill="none" stroke="#89d185" stroke-width="2"></path><path d="M 261.95,332.95 L 261.81,333.22 L 261.81,333.22 L 261.81,333.22 L 261.81,333.22 L 261.81,333.22 L 261.11,333.92 L 260.42,336 L 258.33,338.78 L 256.25,342.25 L 254.86,345.03 L 253.47,347.11 L 252.08,348.5 L 250.69,349.89 L 250,350.59 L 250,349.89" fill="none" stroke="#89d185" stroke-width="2"></path><path d="M 252.92,335.73 L 252.78,336 L 252.08,336 L 252.08,336 L 252.08,336 L 252.08,336 L 252.08,336 L 252.08,336 L 252.78,337.39 L 254.86,338.78 L 256.94,340.17 L 261.11,342.95 L 262.5,345.03 L 263.89,347.11 L 264.58,348.5 L 265.28,349.2 L 265.28,350.59 L 265.28,351.28" fill="none" stroke="#89d185" stroke-width="2"></path><path d="M 268.89,344.06 L 268.75,344.34 L 268.75,343.64 L 268.75,343.64 L 268.75,343.64 L 268.75,343.64 L 268.75,343.64 L 268.75,343.64 L 268.75,343.64 L 270.83,342.95 L 275,342.25 L 279.17,341.56 L 284.72,340.86 L 290.97,340.17 L 298.61,340.17 L 308.33,340.86 L 313.89,342.25 L 318.75,343.64 L 322.92,345.72 L 329.17,349.89 L 331.94,352.67 L 334.72,356.14 L 336.81,359.61 L 338.19,365.86 L 338.19,370.03 L 337.5,374.2 L 336.11,378.36 L 334.03,382.53 L 331.94,387.39 L 331.94,390.86 L 331.94,392.95 L 333.33,395.03 L 335.42,396.42 L 340.28,397.81 L 344.44,398.5 L 348.61,399.2 L 352.78,399.2 L 357.64,399.89 L 361.81,399.89 L 365.97,399.89 L 370.83,399.89 L 376.39,399.2 L 379.86,398.5 L 382.64,398.5 L 386.11,397.81 L 387.5,397.81 L 388.19,397.81 L 388.19,397.81 L 388.19,397.81 L 388.19,397.81 L 388.19,397.81 L 387.5,397.11 L 385.42,395.72 L 383.33,393.64 L 382.64,391.56 L 381.25,388.78 L 381.25,387.39 L 380.56,386.7 L 380.56,386.7 L 379.86,386 L 379.86,386 L 379.86,386 L 379.86,386 L 379.86,386 L 380.56,386.7 L 381.94,388.09 L 383.33,389.47 L 386.11,390.86 L 388.89,392.25 L 390.28,392.95 L 391.67,393.64 L 393.06,393.64 L 394.44,394.34 L 395.14,394.34 L 395.83,394.34 L 395.83,395.03 L 395.83,395.03 L 395.14,395.72 L 392.36,397.11 L 388.89,398.5 L 385.42,399.89 L 382.64,401.28 L 379.86,402.67 L 378.47,403.36 L 378.47,403.36 L 378.47,403.36 L 378.47,403.36 L 377.78,401.97 L 377.78,399.89 L 377.78,398.5 L 377.78,396.42 L 377.78,392.95 L 377.78,390.86 L 377.78,388.78 L 377.78,387.39 L 377.78,387.39 L 377.78,387.39 L 377.78,388.09 L 377.08,388.78" fill="none" stroke="#89d185" stroke-width="2"></path><path d="M 380.7,387.81 L 380.7,387.81 L 380.56,388.09 L 380.56,388.09 L 380.56,388.09 L 380.56,388.09 L 380.56,388.09 L 380.56,387.39 L 380.56,387.39 L 380.56,387.39 L 380.56,387.39 L 380.56,387.39 L 380.56,387.39 L 380.56,388.09 L 380.56,388.09 L 380.56,388.78 L 380.56,389.47 L 380.56,390.17 L 380.56,390.17 L 380.56,390.86 L 380.56,390.86 L 379.86,390.86 L 379.86,391.56 L 379.17,391.56" fill="none" stroke="#89d185" stroke-width="2"></path><path d="M 259.17,358.65 L 259.03,358.92 L 260.42,358.92" fill="none" stroke="#f14c4c" stroke-width="2"></path><path d="M 261.25,358.65 L 261.11,358.92 L 260.42,358.22 L 260.42,358.22 L 261.11,357.53 L 261.81,357.53 L 262.5,356.84 L 263.89,356.14 L 265.97,355.45 L 270.14,354.06 L 272.92,352.67 L 275.69,351.97 L 277.08,351.28 L 277.78,351.28 L 277.08,351.97 L 275,352.67 L 269.44,354.75 L 257.64,358.22 L 253.47,359.61 L 244.44,361.7 L 240.97,362.39 L 239.58,362.39 L 239.58,362.39 L 241.67,362.39 L 246.53,361.7 L 253.47,360.31 L 268.75,358.22 L 277.08,356.84 L 281.25,356.14 L 282.64,356.14 L 281.25,356.14 L 274.31,358.22 L 267.36,360.31 L 260.42,361.7 L 254.86,363.09 L 253.47,363.78 L 254.17,364.47 L 256.25,364.47 L 260.42,363.78 L 261.81,363.78 L 265.28,363.78 L 265.97,363.78 L 266.67,364.47 L 265.97,365.17 L 265.97,365.86" fill="none" stroke="#f14c4c" stroke-width="2"></path><path d="M 233.47,305.18 L 233.33,305.45 L 233.33,304.75 L 233.33,304.75 L 233.33,304.75 L 233.33,304.75 L 233.33,304.75 L 233.33,304.75 L 233.33,304.75 L 233.33,307.53 L 232.64,311 L 232.64,314.47 L 233.33,319.34 L 233.33,322.11 L 234.03,323.5 L 234.03,324.2 L 234.72,324.2 L 235.42,324.2 L 239.58,323.5 L 243.06,322.81 L 245.83,322.11 L 247.92,322.11 L 248.61,322.11 L 249.31,322.81 L 250.69,322.81 L 252.08,322.81" fill="none" stroke="#f14c4c" stroke-width="2"></path><path d="M 255.7,312.81 L 255.56,313.09 L 255.56,313.09 L 255.56,313.09 L 255.56,313.09 L 255.56,313.09" fill="none" stroke="#f14c4c" stroke-width="2"></path><path d="M 255,311.43 L 254.86,311.7 L 254.86,311.7 L 254.17,311 L 254.17,311 L 254.17,311 L 254.86,312.39 L 256.94,314.47 L 259.03,316.56 L 261.81,319.34 L 263.89,321.42 L 264.58,321.42 L 265.28,321.42 L 265.97,320.72 L 267.36,317.25 L 267.36,313.78 L 267.36,311.7 L 267.36,310.31 L 267.36,309.61 L 267.36,309.61 L 267.36,309.61 L 267.36,309.61" fill="none" stroke="#f14c4c" stroke-width="2"></path><path d="M 286.25,312.81 L 286.11,313.09 L 284.72,313.09 L 283.33,313.78 L 281.25,315.17 L 279.17,316.56 L 277.08,317.95 L 276.39,320.03 L 275.69,320.72 L 276.39,321.42 L 277.08,321.42 L 279.17,320.72 L 281.25,318.64 L 282.64,316.56 L 283.33,314.47 L 283.33,313.78 L 283.33,313.78 L 283.33,313.78 L 284.03,315.17 L 285.42,317.95 L 287.5,319.34 L 288.89,320.72 L 289.58,320.72 L 290.97,320.72 L 292.36,319.34 L 293.75,315.17 L 293.75,310.31 L 293.75,306.14 L 292.36,300.59 L 291.67,298.5 L 290.97,297.11 L 290.97,296.42 L 290.97,296.42 L 290.97,296.42 L 293.06,299.89 L 294.44,304.06 L 296.53,308.22 L 298.61,313.09 L 300,315.17 L 301.39,317.25 L 302.08,316.56 L 303.47,316.56 L 304.86,315.86" fill="none" stroke="#f14c4c" stroke-width="2"></path><path d="M 308.47,310.73 L 308.33,311 L 308.33,311 L 308.33,311 L 308.33,311.7 L 307.64,313.09 L 307.64,313.78 L 308.33,315.17 L 308.33,315.17 L 308.33,315.86 L 309.72,314.47 L 311.11,312.39 L 311.81,311.7 L 311.81,311.7 L 311.81,311.7 L 311.81,311.7 L 313.19,312.39 L 314.58,313.09 L 315.97,314.47 L 317.36,315.17 L 318.06,315.17" fill="none" stroke="#f14c4c" stroke-width="2"></path><path d="M 321.67,310.04 L 321.53,310.31 L 321.53,310.31 L 321.53,310.31 L 321.53,311 L 322.92,311.7 L 323.61,312.39 L 324.31,312.39 L 325,311.7 L 327.08,311 L 329.17,308.92 L 329.17,307.53 L 328.47,306.84 L 327.08,306.84 L 325.69,307.53 L 322.92,309.61 L 320.83,311.7 L 320.14,313.78 L 320.14,316.56 L 324.31,319.34 L 330.56,320.03 L 338.89,320.03 L 343.75,320.03" fill="none" stroke="#f14c4c" stroke-width="2"></path><path d="M 548.75,316.98 L 548.61,317.25 L 548.61,317.25 L 548.61,317.95 L 549.31,318.64 L 550.69,320.03 L 552.08,321.42 L 554.86,324.89 L 556.25,328.36 L 557.64,331.84 L 559.03,337.39 L 558.33,340.86 L 556.25,343.64 L 552.78,347.11 L 547.92,350.59 L 538.89,354.75 L 531.25,356.84 L 525,358.92 L 518.06,359.61 L 506.25,360.31 L 497.92,361 L 490.97,360.31 L 485.42,359.61 L 481.94,359.61 L 478.47,358.92 L 477.08,359.61 L 475,360.31 L 473.61,361.7 L 470.83,364.47 L 468.75,366.56 L 466.67,370.03 L 465.97,372.81 L 465.28,374.89 L 463.89,379.06 L 463.19,381.14 L 461.81,383.22 L 461.81,386 L 460.42,388.09 L 460.42,389.47 L 460.42,389.47 L 460.42,389.47 L 460.42,389.47 L 459.72,389.47 L 459.03,389.47 L 458.33,388.09 L 456.94,387.39 L 455.56,386.7 L 454.17,386 L 453.47,385.31 L 452.78,384.61 L 452.78,383.92 L 452.08,383.22 L 452.08,383.22 L 452.08,383.22 L 452.08,383.22 L 452.08,383.22 L 452.08,383.22 L 452.08,383.92 L 453.47,385.31 L 454.17,386.7 L 454.86,388.78 L 455.56,392.25 L 455.56,393.64 L 455.56,395.72 L 455.56,397.11 L 455.56,397.11 L 455.56,397.81 L 455.56,397.81 L 455.56,397.81 L 456.94,397.11 L 459.03,395.72 L 461.11,394.34 L 463.89,392.95 L 466.67,390.86 L 468.06,390.17 L 468.75,390.17 L 468.75,389.47 L 469.44,389.47 L 469.44,389.47 L 469.44,388.09 L 468.75,387.39 L 467.36,386.7 L 464.58,385.31 L 461.81,384.61 L 459.72,383.92 L 458.33,383.92 L 457.64,383.92 L 456.94,383.92 L 456.94,383.92 L 456.25,383.92 L 456.25,383.92 L 456.25,383.92 L 456.25,383.92 L 456.94,383.92" fill="none" stroke="#f14c4c" stroke-width="2"></path><path d="M 543.89,292.68 L 543.89,292.68 L 543.75,292.95 L 543.75,292.25 L 543.75,292.25 L 543.75,292.25 L 543.75,292.25 L 543.75,292.25 L 543.75,292.25 L 543.06,293.64 L 544.44,295.03 L 545.83,297.11 L 549.31,301.28 L 551.39,304.06 L 552.78,306.84 L 554.17,308.22 L 555.56,309.61 L 555.56,310.31" fill="none" stroke="#cca700" stroke-width="2"></path><path d="M 558.47,292.68 L 558.33,292.95 L 557.64,292.95 L 557.64,292.95 L 556.25,294.34 L 555.56,295.72 L 555.56,298.5 L 555.56,299.89 L 556.94,300.59 L 557.64,300.59 L 559.03,300.59 L 561.11,299.2 L 562.5,297.11 L 563.89,295.72 L 563.89,294.34 L 562.5,292.95 L 561.11,292.25 L 559.03,292.25 L 556.94,292.95 L 553.47,294.34 L 551.39,294.34" fill="none" stroke="#cca700" stroke-width="2"></path><path d="M 568.2,308.65 L 568.06,308.92 L 568.06,308.92 L 568.06,308.92 L 568.06,310.31 L 568.06,308.92 L 568.06,308.92 L 568.06,308.92 L 568.06,308.92 L 568.06,308.92 L 568.06,310.31 L 568.75,313.09 L 568.75,315.17 L 569.44,317.25 L 569.44,318.64 L 569.44,320.03 L 568.75,320.72 L 568.75,320.72 L 568.75,320.72 L 568.75,321.42 L 568.06,320.03 L 568.06,317.95 L 568.06,315.17 L 568.06,312.39 L 568.75,309.61 L 569.44,306.84 L 570.14,305.45 L 571.53,304.75 L 572.22,304.06 L 573.61,304.06 L 575,304.06 L 577.08,304.75 L 577.78,305.45 L 578.47,306.84 L 577.78,308.92 L 574.31,311 L 571.53,311.7 L 568.75,312.39 L 567.36,312.39 L 567.36,312.39 L 567.36,312.39 L 567.36,312.39 L 569.44,313.09 L 573.61,313.78 L 577.08,315.17 L 580.56,316.56 L 581.94,317.25 L 581.94,317.95 L 582.64,318.64 L 582.64,318.64 L 582.64,318.64" fill="none" stroke="#f14c4c" stroke-width="2"></path><path d="M 584.86,309.34 L 584.86,309.34 L 584.72,308.92 L 584.72,308.92 L 584.72,308.92 L 585.42,309.61 L 586.81,310.31 L 588.89,311.7 L 590.28,313.09 L 590.97,314.47 L 592.36,315.17 L 592.36,315.86 L 593.06,315.86 L 593.06,315.86 L 593.75,315.17 L 595.14,313.78 L 597.22,310.31 L 597.92,306.84 L 598.61,304.75 L 599.31,304.06 L 599.31,304.06 L 598.61,303.36 L 597.92,304.75" fill="none" stroke="#f14c4c" stroke-width="2"></path><path d="M 609.86,308.65 L 609.72,308.92 L 609.72,308.92 L 609.72,308.92 L 608.33,308.92 L 605.56,310.31 L 604.17,311.7 L 603.47,313.09 L 602.78,314.47 L 602.08,314.47 L 602.08,315.17 L 602.78,315.17 L 603.47,314.47 L 604.86,313.78 L 606.94,311.7 L 607.64,310.31 L 607.64,310.31 L 608.33,309.61 L 608.33,311 L 609.72,312.39 L 611.11,313.78 L 612.5,314.47 L 613.19,314.47 L 614.58,314.47 L 615.97,313.09 L 616.67,311 L 617.36,305.45 L 618.75,300.59 L 619.44,297.11 L 620.14,294.34 L 620.14,292.95 L 620.14,292.25 L 620.14,292.25 L 620.14,292.95 L 620.83,294.34 L 621.53,299.89 L 622.22,304.75 L 622.92,308.92 L 622.92,312.39 L 622.22,314.47 L 622.22,315.17 L 622.22,315.17" fill="none" stroke="#f14c4c" stroke-width="2"></path><path d="M 630,305.18 L 630,305.18 L 629.17,305.45 L 629.17,304.75 L 629.17,305.45 L 629.17,306.14 L 629.17,307.53 L 629.17,308.92 L 629.17,309.61 L 629.86,310.31 L 629.86,310.31 L 630.56,309.61 L 631.94,308.92 L 634.72,306.84 L 635.42,305.45 L 635.42,305.45 L 635.42,305.45 L 636.81,306.84 L 638.19,308.22 L 639.58,309.61 L 640.97,310.31 L 641.67,310.31 L 642.36,310.31" fill="none" stroke="#f14c4c" stroke-width="2"></path><path d="M 647.36,303.09 L 647.22,303.36 L 647.22,303.36 L 647.22,303.36 L 647.22,304.06 L 648.61,305.45 L 649.31,306.14 L 649.31,306.14 L 650,306.14 L 651.39,306.14 L 652.78,304.06 L 652.78,302.67 L 652.78,301.97 L 652.08,301.97 L 649.31,302.67 L 646.53,304.06 L 645.83,306.14 L 646.53,308.22 L 650.69,311 L 654.86,312.39 L 660.42,313.09 L 663.89,313.09" fill="none" stroke="#f14c4c" stroke-width="2"></path><path d="M 404.31,487.81 L 404.17,488.09 L 404.17,488.09 L 404.17,488.09 L 404.17,488.09 L 404.86,487.39 L 404.86,488.09 L 406.25,490.17 L 407.64,492.25 L 409.03,495.72 L 409.72,497.11 L 409.72,497.81 L 409.72,497.81 L 409.72,497.81 L 409.72,496.42 L 409.72,494.34 L 409.72,492.25 L 410.42,491.56 L 411.11,490.86 L 411.11,490.86 L 411.81,490.86 L 414.58,492.25 L 415.28,493.64 L 416.67,495.03 L 416.67,496.42 L 416.67,497.81 L 416.67,497.81 L 416.67,497.11 L 416.67,495.72 L 417.36,493.64 L 418.06,492.25 L 418.75,492.25 L 420.14,492.25 L 420.83,492.95 L 422.92,493.64 L 423.61,495.03 L 425,496.42 L 425.69,497.11 L 426.39,497.81 L 426.39,497.81" fill="none" stroke="#3794ff" stroke-width="2"></path><path d="M 428.61,494.06 L 428.47,494.34 L 428.47,493.64 L 429.17,494.34 L 430.56,494.34 L 432.64,494.34 L 434.03,493.64 L 436.11,492.25 L 437.5,490.86 L 438.19,489.47 L 437.5,488.78 L 436.81,488.09 L 434.72,488.78 L 431.94,490.17 L 430.56,491.56 L 428.47,492.95 L 427.78,494.34 L 427.08,495.72 L 428.47,497.11 L 431.94,499.2 L 434.72,499.2 L 436.81,499.2 L 440.28,498.5 L 443.06,497.11 L 444.44,495.03 L 445.14,492.95 L 445.83,492.25 L 445.83,491.56 L 445.83,491.56 L 445.83,491.56 L 445.83,492.25 L 447.22,494.34 L 447.22,495.03 L 447.92,495.03 L 447.92,495.72 L 447.92,495.72 L 448.61,494.34 L 449.31,492.95 L 450,492.95 L 450.69,492.25 L 450.69,492.25 L 451.39,492.95 L 452.08,493.64 L 452.78,494.34 L 452.78,495.03 L 453.47,495.03 L 453.47,495.03 L 453.47,493.64 L 454.17,492.95 L 454.86,492.25 L 455.56,492.25 L 455.56,492.25 L 456.94,492.95 L 458.33,494.34 L 459.72,495.72 L 461.11,496.42 L 461.81,497.11 L 463.89,497.11 L 465.97,495.03" fill="none" stroke="#3794ff" stroke-width="2"></path><path d="M 468.2,491.29 L 468.2,491.29 L 468.06,491.56 L 468.06,491.56 L 467.36,492.25 L 467.36,493.64 L 467.36,494.34 L 468.75,495.03 L 470.14,494.34 L 472.22,493.64 L 474.31,492.25 L 475.69,491.56 L 475.69,490.17 L 474.31,489.47 L 472.22,489.47 L 470.14,489.47 L 467.36,490.17 L 464.58,490.86" fill="none" stroke="#3794ff" stroke-width="2"></path><path d="M 477.92,487.81 L 478.47,488.09 L 481.25,488.09 L 484.72,488.78 L 486.11,489.47 L 487.5,490.17 L 488.19,490.86 L 488.19,490.86 L 488.19,490.86 L 488.19,489.47 L 488.19,487.39 L 488.19,484.61 L 488.89,481.14 L 489.58,481.14 L 489.58,481.14" fill="none" stroke="#3794ff" stroke-width="2"></path><path d="M 496.67,485.04 L 496.53,485.31 L 497.22,486 L 498.61,487.39 L 499.31,488.09 L 501.39,488.78 L 502.78,488.78 L 506.25,487.39 L 506.94,485.31 L 507.64,483.22 L 507.64,481.84 L 507.64,481.14 L 506.94,481.84 L 506.94,483.22 L 506.25,485.31 L 506.25,488.09 L 508.33,490.86 L 510.42,492.25 L 512.5,493.64 L 513.89,495.03 L 513.19,497.81 L 509.72,500.59 L 502.78,503.36 L 493.06,506.84 L 481.94,510.31 L 467.36,513.78 L 463.89,514.47" fill="none" stroke="#3794ff" stroke-width="2"></path><path d="M 27.22,431.56 L 27.08,431.84 L 27.08,431.84 L 27.08,431.84 L 27.08,431.14 L 27.08,431.14 L 27.78,431.14 L 28.47,430.45 L 31.25,428.36 L 33.33,426.97 L 34.72,424.89 L 36.11,423.5 L 36.81,422.81 L 36.81,422.11 L 36.81,422.11 L 35.42,421.42 L 31.94,422.11 L 28.47,422.11 L 25,423.5 L 23.61,423.5 L 22.92,424.2 L 22.92,424.89 L 25,424.89 L 27.78,426.28 L 31.25,426.97 L 34.72,427.67 L 37.5,429.06 L 38.19,430.45 L 38.89,431.14 L 38.89,431.84 L 38.89,433.22 L 37.5,434.61 L 35.42,435.31 L 34.03,435.31 L 31.94,436 L 30.56,436 L 30.56,436" fill="none" stroke="#cca700" stroke-width="2"></path><path d="M 59.17,421.15 L 59.03,421.42 L 59.03,421.42 L 59.03,420.72 L 59.72,420.72 L 59.72,420.72 L 59.72,420.72 L 59.03,420.72 L 58.33,422.11 L 56.25,424.2 L 53.47,428.36 L 51.39,430.45 L 50,432.53 L 49.31,434.61 L 48.61,436 L 48.61,437.39 L 48.61,436.7" fill="none" stroke="#cca700" stroke-width="2"></path><path d="M 50.14,422.54 L 50,422.81 L 50,422.11 L 49.31,422.11 L 49.31,422.11 L 49.31,422.11 L 49.31,422.11 L 49.31,422.81 L 49.31,423.5 L 50.69,424.89 L 52.78,426.28 L 54.17,428.36 L 57.64,430.45 L 59.03,431.84 L 59.72,433.22 L 59.72,434.61 L 60.42,435.31 L 60.42,436 L 60.42,436 L 60.42,436 L 60.42,436 L 60.42,436 L 60.42,435.31 L 59.72,434.61" fill="none" stroke="#cca700" stroke-width="2"></path><path d="M 68.2,428.79 L 68.06,429.06 L 68.06,429.06 L 68.06,429.06 L 68.06,429.06 L 68.75,428.36 L 70.14,428.36 L 72.92,428.36 L 76.39,429.06 L 83.33,429.75 L 88.19,429.75 L 92.36,429.75 L 95.83,429.75 L 97.22,429.75 L 99.31,429.75 L 99.31,429.75 L 100,429.06 L 99.31,429.06 L 97.92,427.67 L 96.53,426.97 L 94.44,426.28 L 93.06,425.59 L 91.67,424.89 L 90.97,424.2 L 90.97,424.2 L 90.28,424.2 L 90.28,424.2 L 90.28,424.2 L 90.28,424.2 L 90.28,424.2 L 90.28,424.2 L 91.67,424.89 L 95.14,426.28 L 97.92,426.97 L 102.08,426.97 L 105.56,426.97 L 106.94,426.97 L 107.64,426.97 L 108.33,426.97 L 108.33,427.67 L 107.64,428.36 L 104.86,429.75 L 102.08,431.14 L 100,432.53 L 97.22,433.22 L 95.83,433.92 L 95.83,433.92 L 95.14,433.92 L 95.14,433.22 L 95.14,431.84 L 95.14,428.36 L 95.83,426.97 L 95.83,425.59 L 95.83,424.89 L 94.44,425.59" fill="none" stroke="#cca700" stroke-width="2"></path><path d="M 121.67,415.59 L 120.83,415.86 L 120.83,415.17 L 120.83,415.17 L 120.83,415.17 L 120.83,415.17 L 120.83,416.56 L 120.83,418.64 L 120.83,421.42 L 120.83,424.89 L 120.83,426.97 L 120.83,429.06 L 120.83,430.45 L 120.83,430.45 L 120.83,430.45 L 120.83,430.45 L 122.22,429.06 L 124.31,426.97 L 126.39,425.59 L 127.08,424.89 L 127.78,424.89 L 127.78,424.89 L 127.78,424.89 L 129.17,425.59 L 130.56,426.97 L 131.94,427.67 L 132.64,429.06 L 134.03,429.75 L 134.03,430.45 L 134.03,430.45 L 134.72,429.75" fill="none" stroke="#cca700" stroke-width="2"></path><path d="M 139.72,423.93 L 139.58,424.2 L 139.58,424.2 L 139.58,424.2 L 139.58,424.2 L 139.58,424.2 L 139.58,424.89 L 139.58,426.28 L 139.58,427.67 L 139.58,428.36 L 139.58,428.36 L 140.28,429.06 L 142.36,428.36 L 143.06,427.67 L 143.75,426.97 L 144.44,426.28 L 144.44,425.59 L 143.75,424.89 L 142.36,424.89 L 140.97,424.2 L 139.58,424.2" fill="none" stroke="#cca700" stroke-width="2"></path><path d="M 148.06,416.29 L 147.92,416.56 L 147.92,416.56 L 147.92,416.56 L 147.92,416.56 L 147.92,416.56 L 147.92,417.25 L 149.31,418.64 L 150,420.72 L 150.69,423.5 L 150.69,424.89 L 150,426.28 L 150,426.97 L 150,426.97" fill="none" stroke="#cca700" stroke-width="2"></path><path d="M 160.56,412.12 L 160.42,411.7 L 160.42,411.7 L 160.42,411 L 160.42,411 L 160.42,411 L 160.42,411 L 160.42,411 L 160.42,411 L 160.42,412.39 L 161.81,415.17 L 162.5,417.25 L 162.5,419.34 L 163.19,421.42 L 163.19,423.5 L 162.5,424.89 L 161.11,426.97 L 160.42,428.36 L 159.72,429.06 L 158.33,429.75 L 157.64,429.75 L 156.94,429.75 L 156.25,429.06 L 155.56,427.67 L 155.56,426.28 L 154.86,424.89 L 154.86,423.5 L 155.56,422.81 L 155.56,422.11 L 156.25,421.42 L 156.25,421.42 L 156.94,421.42 L 159.03,421.42 L 163.19,421.42 L 165.97,422.11 L 166.67,422.11" fill="none" stroke="#cca700" stroke-width="2"></path><path d="M 187.64,419.76 L 187.5,420.03 L 186.11,419.34 L 186.11,419.34 L 185.42,419.34 L 183.33,419.34 L 180.56,420.72 L 177.78,422.11 L 176.39,423.5 L 175.69,424.89 L 176.39,425.59 L 177.78,426.28 L 178.47,426.28 L 181.25,425.59 L 185.42,423.5 L 188.89,421.42 L 190.28,420.72 L 190.97,420.72 L 190.97,420.72 L 190.97,420.72 L 190.28,422.81 L 189.58,424.2 L 189.58,425.59 L 189.58,426.97 L 190.97,426.97 L 191.67,426.28" fill="none" stroke="#cca700" stroke-width="2"></path><path d="M 203.61,410.73 L 203.47,411 L 202.78,410.31 L 202.78,410.31 L 202.78,410.31 L 202.78,411 L 203.47,413.78 L 204.17,416.56 L 204.86,419.34 L 204.86,422.11 L 204.86,424.89 L 202.78,426.97 L 201.39,427.67 L 199.31,428.36 L 198.61,429.06 L 197.92,429.06 L 197.22,428.36 L 197.22,426.97 L 197.22,424.89 L 198.61,423.5 L 199.31,422.81 L 200,422.11 L 200,422.11 L 201.39,422.11 L 202.78,422.11 L 204.86,422.81 L 207.64,422.81 L 208.33,422.81" fill="none" stroke="#cca700" stroke-width="2"></path><path d="M 216.81,412.81 L 216.67,413.09 L 216.67,413.09 L 216.67,413.09 L 216.67,413.09 L 216.67,413.09 L 216.67,413.09 L 216.67,414.47 L 216.67,415.86 L 217.36,418.64 L 217.36,421.42 L 217.36,423.5 L 217.36,425.59 L 215.28,426.97 L 214.58,427.67 L 213.89,427.67 L 213.19,427.67 L 212.5,426.97 L 211.81,424.89 L 211.11,423.5 L 211.11,422.81 L 210.42,422.11 L 211.11,421.42 L 211.81,421.42 L 213.19,420.72 L 215.28,420.72 L 217.36,420.03 L 219.44,420.03 L 220.14,420.03 L 220.83,420.03 L 221.53,420.03" fill="none" stroke="#cca700" stroke-width="2"></path><path d="M 228.61,419.06 L 228.47,419.34 L 228.47,419.34 L 228.47,419.34 L 227.78,420.72 L 227.78,422.11 L 227.08,422.81 L 225.69,423.5 L 225,424.2 L 224.31,424.2 L 224.31,424.2 L 224.31,423.5 L 225.69,422.81 L 229.17,419.34 L 231.94,417.25 L 235.42,415.86 L 236.11,415.17 L 236.11,415.17 L 236.81,416.56 L 236.81,417.25 L 236.81,418.64 L 236.81,420.03 L 237.5,420.03 L 237.5,420.72 L 238.19,420.72 L 239.58,420.72 L 241.67,420.72 L 244.44,419.34 L 246.53,417.95 L 247.22,417.25 L 247.22,417.25 L 246.53,416.56 L 244.44,417.25 L 241.67,418.64 L 238.19,419.34 L 235.42,421.42 L 234.72,422.81 L 234.72,423.5 L 236.81,424.2 L 238.89,424.2 L 243.75,424.2" fill="none" stroke="#cca700" stroke-width="2"></path><path d="M 259.86,414.9 L 259.72,415.17 L 258.33,415.86 L 256.94,416.56 L 254.86,417.25 L 253.47,417.95 L 252.78,418.64 L 252.78,420.03 L 253.47,420.72 L 255.56,421.42 L 257.64,422.11 L 259.03,422.81 L 259.03,423.5 L 259.03,423.5 L 258.33,424.2 L 256.94,424.89 L 254.17,425.59 L 252.78,425.59 L 251.39,425.59" fill="none" stroke="#cca700" stroke-width="2"></path><path d="M 270.97,414.9 L 270.97,414.9 L 270.83,415.17 L 270.83,415.17 L 270.83,415.17 L 270.14,415.17 L 269.44,415.17 L 268.06,415.86 L 267.36,416.56 L 265.97,417.25 L 265.97,417.95 L 266.67,418.64 L 268.75,419.34 L 272.22,420.03 L 275,420.03 L 277.08,420.72 L 277.78,420.72 L 277.08,421.42 L 275,422.81 L 272.92,423.5 L 270.83,424.2 L 267.36,424.2 L 266.67,424.89" fill="none" stroke="#cca700" stroke-width="2"></path><path d="M 80.7,444.76 L 80.7,444.76 L 80.56,445.03 L 80.56,444.34 L 80.56,444.34 L 80.56,444.34 L 80.56,444.34 L 80.56,444.34 L 80.56,446.42 L 80.56,448.5 L 80.56,451.97 L 80.56,454.75 L 78.47,458.92 L 77.08,460.31 L 75,461.7 L 75,461.7 L 74.31,461.7 L 74.31,461.7 L 75.69,461.7 L 78.47,461 L 82.64,460.31 L 89.58,459.61 L 93.75,459.61 L 96.53,459.61 L 97.22,459.61 L 97.22,459.61 L 97.92,459.61 L 97.92,459.61 L 97.92,459.61 L 97.92,459.61 L 97.92,459.61 L 97.92,459.61 L 97.22,459.61 L 97.22,459.61" fill="none" stroke="#cca700" stroke-width="2"></path><path d="M 108.47,452.4 L 108.33,452.67 L 108.33,452.67 L 108.33,451.97 L 108.33,451.97 L 108.33,451.97 L 108.33,452.67 L 108.33,454.06 L 109.72,456.84 L 109.72,458.22 L 110.42,458.92 L 110.42,459.61 L 111.11,459.61 L 111.11,460.31 L 111.11,459.61 L 111.81,459.61 L 113.89,458.22 L 117.36,454.06 L 119.44,451.97 L 120.14,451.28 L 120.14,451.28 L 120.14,450.59 L 120.14,450.59 L 120.14,450.59 L 120.14,450.59 L 120.14,451.28" fill="none" stroke="#cca700" stroke-width="2"></path><path d="M 134.17,453.09 L 134.17,453.09 L 132.64,453.36 L 131.94,453.36 L 129.86,454.06 L 127.78,454.75 L 125.69,456.14 L 123.61,458.22 L 122.92,458.92 L 122.92,458.92 L 123.61,459.61 L 124.31,458.92 L 127.08,458.22 L 129.86,456.84 L 132.64,455.45 L 134.72,454.75 L 134.72,454.06 L 134.72,454.06 L 134.72,454.75 L 134.03,456.14 L 134.03,457.53 L 134.03,458.92 L 134.03,458.92 L 134.03,458.92 L 136.11,458.22 L 140.28,456.14 L 143.06,452.67 L 145.14,449.89 L 145.83,447.81 L 145.83,447.11 L 145.83,447.11 L 145.83,446.42 L 145.83,446.42 L 145.83,447.11 L 145.83,449.2 L 145.14,451.28 L 145.14,454.06 L 144.44,456.84 L 143.75,458.22 L 142.36,459.61 L 142.36,460.31 L 143.06,459.61 L 145.14,458.92" fill="none" stroke="#cca700" stroke-width="2"></path><path d="M 155.7,451.7 L 155.7,451.7 L 155.56,451.97 L 155.56,452.67 L 155.56,453.36 L 154.86,454.75 L 154.17,456.14 L 153.47,457.53 L 153.47,457.53 L 153.47,457.53 L 153.47,457.53 L 154.17,457.53 L 156.94,456.14 L 159.72,454.75 L 161.11,454.06 L 162.5,453.36 L 162.5,453.36 L 161.81,453.36 L 161.81,454.75 L 161.81,456.14 L 162.5,457.53 L 162.5,458.22 L 162.5,458.92 L 163.19,458.92 L 165.28,457.53" fill="none" stroke="#cca700" stroke-width="2"></path><path d="M 173.75,451.01 L 173.61,451.28 L 173.61,451.28 L 173.61,451.28 L 173.61,451.97 L 173.61,452.67 L 173.61,453.36 L 173.61,453.36 L 174.31,453.36 L 175.69,453.36 L 177.08,452.67 L 179.17,451.28 L 179.86,450.59 L 179.86,450.59 L 179.17,450.59 L 175.69,451.28 L 173.61,452.67 L 170.83,454.06 L 169.44,455.45 L 168.75,456.84 L 168.75,458.22 L 170.83,458.22 L 174.31,458.92 L 178.47,458.92 L 184.03,458.22" fill="none" stroke="#cca700" stroke-width="2"></path><path d="M 202.92,454.48 L 202.92,454.48 L 202.78,454.75 L 202.78,454.75 L 202.08,455.45 L 200.69,456.84 L 197.22,458.22 L 193.06,459.61 L 192.36,459.61 L 191.67,459.61 L 194.44,459.61" fill="none" stroke="#cca700" stroke-width="2"></path><path d="M 31.39,489.9 L 31.25,490.17 L 31.25,490.17 L 31.25,490.17 L 31.25,490.86 L 30.56,493.64 L 29.86,496.42 L 28.47,499.2 L 27.78,501.97 L 27.08,505.45 L 27.08,506.84 L 27.08,506.84 L 27.78,506.84" fill="none" stroke="#cca700" stroke-width="2"></path><path d="M 45.28,496.84 L 45.14,497.11 L 45.14,497.11 L 45.14,497.11 L 45.14,497.81 L 44.44,499.89 L 44.44,500.59 L 45.14,501.28 L 45.83,501.28 L 47.22,501.28 L 49.31,499.89 L 50.69,498.5 L 50.69,497.11 L 50.69,497.11 L 50,496.42 L 47.92,496.42 L 45.83,497.11 L 43.06,497.11" fill="none" stroke="#cca700" stroke-width="2"></path><path d="M 69.59,496.84 L 69.44,497.11 L 69.44,497.11 L 72.92,497.11 L 76.39,497.11 L 81.94,497.11 L 90.28,496.42 L 95.83,496.42 L 99.31,496.42 L 100,496.42 L 100.69,496.42 L 100.69,496.42 L 100,496.42 L 100,496.42 L 97.92,495.72 L 94.44,495.03 L 93.06,493.64 L 93.06,492.25 L 92.36,490.86 L 92.36,490.86 L 92.36,490.86 L 92.36,490.86 L 93.06,490.86 L 94.44,491.56 L 100,492.95 L 104.17,493.64 L 108.33,494.34 L 111.81,495.03 L 114.58,495.03 L 115.97,495.03 L 115.97,495.03 L 115.28,495.03 L 113.19,495.72 L 108.33,497.81 L 104.86,499.2 L 100.69,500.59 L 97.92,501.28 L 97.22,501.97 L 97.22,501.97 L 97.22,501.97 L 97.22,501.28 L 97.92,499.2 L 98.61,495.72 L 98.61,493.64 L 99.31,492.25 L 99.31,492.25 L 99.31,492.25 L 98.61,492.25 L 97.22,492.95" fill="none" stroke="#cca700" stroke-width="2"></path><path d="M 148.75,481.56 L 148.61,481.84 L 147.22,481.14 L 147.22,481.14 L 147.22,481.14 L 147.22,481.14 L 147.22,482.53 L 147.22,484.61 L 146.53,488.09 L 146.53,490.17 L 146.53,492.95 L 146.53,496.42 L 146.53,497.81 L 146.53,499.2 L 146.53,499.2" fill="none" stroke="#cca700" stroke-width="2"></path><path d="M 151.53,489.9 L 151.39,490.17 L 151.39,490.17 L 151.39,490.17 L 150.69,490.17 L 149.31,490.17 L 147.22,490.17 L 143.06,490.86 L 140.97,490.86 L 140.97,490.86 L 140.97,490.86 L 142.36,490.86 L 145.14,490.17 L 148.61,490.17 L 151.39,489.47 L 152.78,489.47 L 154.17,489.47 L 154.17,489.47 L 153.47,490.17 L 151.39,490.17 L 148.61,490.86 L 145.83,490.86 L 144.44,491.56 L 144.44,491.56 L 144.44,491.56" fill="none" stroke="#cca700" stroke-width="2"></path><path d="M 161.95,480.18 L 161.95,480.18 L 161.81,480.45 L 161.81,480.45 L 161.81,480.45 L 161.81,481.14 L 161.81,482.53 L 161.81,485.31 L 162.5,488.09 L 162.5,490.86 L 163.19,494.34 L 163.19,495.72 L 163.19,497.11 L 163.19,497.11 L 163.19,497.11 L 163.89,497.11 L 165.97,495.72 L 168.06,494.34 L 170.83,492.95 L 172.92,492.25 L 173.61,492.25 L 174.31,492.95 L 175,494.34 L 175.69,495.03 L 177.08,497.11 L 177.78,497.11 L 177.78,497.81 L 179.17,497.11 L 179.86,497.11" fill="none" stroke="#cca700" stroke-width="2"></path><path d="M 187.64,488.51 L 187.5,488.78 L 186.81,489.47 L 186.11,489.47 L 186.11,490.86 L 186.11,491.56 L 186.81,491.56 L 187.5,491.56 L 189.58,490.86 L 191.67,490.17 L 192.36,489.47 L 193.06,488.78 L 193.06,488.78 L 191.67,488.78 L 189.58,488.78 L 187.5,489.47 L 186.11,490.86 L 184.03,492.25 L 182.64,494.34 L 183.33,495.03 L 184.03,495.72 L 186.11,497.11 L 190.97,497.11 L 195.83,497.11 L 197.92,496.42" fill="none" stroke="#cca700" stroke-width="2"></path><path d="M 210.56,487.12 L 210.56,487.12 L 210.42,487.39 L 210.42,487.39 L 210.42,488.09 L 210.42,488.78 L 209.72,490.17 L 209.72,491.56 L 210.42,494.34 L 211.11,495.03 L 211.11,495.03 L 212.5,495.72 L 213.89,495.72 L 215.28,494.34 L 216.67,492.95 L 218.75,490.17 L 220.83,488.09 L 221.53,486.7 L 221.53,486 L 220.83,486 L 220.83,486 L 220.83,486" fill="none" stroke="#cca700" stroke-width="2"></path><path d="M 241.11,488.51 L 240.97,488.78 L 239.58,488.78 L 238.89,488.78 L 236.81,488.78 L 235.42,489.47 L 233.33,490.17 L 231.25,491.56 L 230.56,492.95 L 230.56,493.64 L 230.56,494.34 L 230.56,494.34 L 231.25,494.34 L 233.33,494.34 L 235.42,492.95 L 238.19,491.56 L 241.67,489.47 L 242.36,489.47 L 242.36,489.47 L 242.36,489.47 L 242.36,490.17 L 241.67,491.56 L 241.67,492.95 L 241.67,493.64 L 241.67,493.64 L 243.06,494.34 L 245.14,493.64 L 246.53,492.25 L 248.61,490.17 L 252.08,485.31 L 254.86,481.14 L 256.25,476.97 L 256.94,474.2 L 256.94,472.81 L 256.94,472.81 L 256.94,472.81 L 256.94,473.5 L 256.25,476.28 L 254.86,479.75 L 252.78,484.61 L 252.08,487.39 L 251.39,489.47 L 250.69,491.56 L 250.69,492.25 L 250.69,492.95 L 250.69,492.95 L 252.08,492.25 L 254.17,491.56 L 257.64,488.78 L 258.33,487.39 L 259.03,487.39 L 259.03,487.39 L 259.03,487.39 L 259.72,487.39 L 259.72,488.78 L 259.72,490.17 L 259.72,490.86 L 260.42,491.56 L 260.42,491.56 L 261.11,491.56 L 262.5,491.56 L 265.97,490.17" fill="none" stroke="#cca700" stroke-width="2"></path><path d="M 272.36,484.34 L 272.22,485.31 L 272.22,486 L 272.22,486.7 L 272.92,487.39 L 273.61,488.09 L 273.61,488.09 L 275,487.39 L 276.39,487.39 L 278.47,485.31 L 278.47,484.61 L 279.17,483.22 L 279.17,483.22 L 277.78,483.22 L 275,483.92 L 271.53,486 L 269.44,487.39 L 268.75,488.78 L 269.44,490.86 L 271.53,491.56 L 274.31,492.25 L 277.78,492.95 L 281.25,492.95 L 288.19,491.56" fill="none" stroke="#cca700" stroke-width="2"></path><path d="M 91.11,518.37 L 90.97,517.95 L 90.97,517.95 L 90.97,517.95 L 90.97,517.95 L 90.97,517.95 L 90.97,519.34 L 91.67,520.72 L 91.67,522.81 L 92.36,526.97 L 92.36,529.06 L 92.36,531.14 L 91.67,532.53 L 91.67,533.22 L 91.67,533.92 L 91.67,533.92 L 91.67,533.22 L 91.67,531.84 L 91.67,529.75 L 92.36,526.28 L 93.06,523.5 L 93.75,521.42 L 94.44,519.34 L 96.53,516.56 L 97.22,515.17 L 97.92,514.47 L 98.61,514.47 L 99.31,513.78 L 100,513.78 L 100,513.78 L 101.39,513.78 L 103.47,514.47 L 106.94,516.56 L 108.33,517.95 L 109.03,519.34 L 108.33,520.72 L 105.56,522.11 L 102.78,523.5 L 96.53,524.89 L 92.36,524.89 L 90.28,525.59 L 90.28,525.59 L 90.28,525.59 L 91.67,525.59 L 93.75,525.59 L 100,526.97 L 104.17,528.36 L 108.33,529.75 L 111.81,531.14 L 114.58,531.84 L 117.36,533.92 L 118.06,534.61 L 118.06,534.61 L 118.75,534.61 L 118.75,535.31 L 118.75,535.31 L 118.75,535.31 L 118.75,535.31 L 118.75,534.61" fill="none" stroke="#cca700" stroke-width="2"></path><path d="M 125.14,520.45 L 125.14,520.45 L 125,520.72 L 125,520.72 L 125,520.72 L 125,520.72 L 125.69,520.72 L 127.08,523.5 L 127.78,525.59 L 129.17,527.67 L 130.56,529.75 L 131.94,530.45 L 132.64,531.14 L 133.33,531.14 L 134.03,530.45 L 135.42,529.06 L 136.81,526.28 L 137.5,523.5 L 138.19,522.11 L 138.19,520.72 L 138.19,520.72 L 138.19,520.03 L 138.19,520.03" fill="none" stroke="#cca700" stroke-width="2"></path><path d="M 153.61,524.62 L 153.47,524.89 L 152.08,524.2 L 150,524.2 L 147.92,524.89 L 145.83,526.28 L 144.44,527.67 L 143.06,529.75 L 143.06,530.45 L 143.06,530.45 L 145.14,531.14 L 147.92,530.45 L 152.08,528.36 L 154.17,526.97 L 156.25,525.59 L 156.94,524.89 L 156.94,524.89 L 156.25,526.28 L 156.25,527.67 L 156.25,529.06 L 156.25,530.45 L 156.94,531.14 L 158.33,531.14 L 159.72,529.75 L 162.5,528.36 L 165.97,522.81 L 168.06,518.64 L 169.44,515.86 L 170.14,515.17 L 170.14,515.17 L 170.14,515.17 L 169.44,515.86 L 168.75,517.95 L 168.06,521.42 L 165.97,526.28 L 165.28,529.06 L 164.58,531.14 L 164.58,531.84 L 164.58,532.53 L 165.97,531.84 L 168.06,530.45 L 171.53,528.36 L 175.69,524.89 L 178.47,523.5 L 179.17,523.5 L 179.17,523.5 L 179.17,524.2 L 179.17,525.59 L 179.86,527.67 L 179.86,529.06 L 179.86,529.06 L 179.86,529.06 L 180.56,529.06 L 181.94,527.67 L 186.11,524.89 L 186.81,524.2 L 186.81,524.89 L 186.81,526.28 L 186.81,526.97 L 187.5,527.67 L 188.19,528.36 L 188.89,528.36 L 189.58,528.36" fill="none" stroke="#cca700" stroke-width="2"></path><path d="M 203.61,520.45 L 203.47,520.72 L 202.78,521.42 L 202.78,522.11 L 202.78,522.81 L 202.78,523.5 L 202.78,523.5 L 204.17,522.81 L 206.25,522.11 L 207.64,520.72 L 209.03,519.34 L 209.72,518.64 L 209.03,518.64 L 206.94,519.34 L 204.17,520.72 L 201.39,522.11 L 198.61,525.59 L 198.61,527.67 L 200,529.06 L 202.08,529.75 L 206.94,530.45 L 211.11,529.75 L 213.89,529.75" fill="none" stroke="#cca700" stroke-width="2"></path><path d="M 236.95,521.84 L 236.81,522.11 L 236.81,522.11 L 236.81,522.11 L 238.19,522.81 L 238.19,522.81" fill="none" stroke="#cca700" stroke-width="2"></path></svg>