<svg id="svg" xmlns="http://www.w3.org/2000/svg" viewBox="59.44000244140625 20.450000762939453 565.1400146484375 459.5799865722656" height="459.5799865722656"><path d="M 69.59,39.2 L 69.44,39.47 L 70.14,38.09 L 70.14,38.09 L 70.14,37.39 L 70.14,37.39 L 70.83,38.09 L 71.53,42.25 L 72.22,46.42 L 72.92,50.59 L 72.92,54.75 L 73.61,56.84 L 74.31,57.53" fill="none" stroke="#89d185" stroke-width="2"></path><path d="M 85.56,47.54 L 85.42,47.81 L 86.11,47.81 L 86.11,47.81 L 86.11,48.5 L 86.81,49.2 L 87.5,51.28 L 88.19,53.36 L 88.19,55.45 L 88.19,56.14 L 88.19,56.14 L 88.19,56.14 L 87.5,55.45 L 88.19,53.36 L 89.58,50.59 L 90.97,49.2 L 91.67,49.2 L 91.67,49.2 L 93.06,49.89 L 95.83,51.28 L 99.31,53.36 L 102.08,55.45 L 103.47,56.14 L 104.17,56.14" fill="none" stroke="#89d185" stroke-width="2"></path><path d="M 111.25,32.95 L 111.11,32.53 L 111.11,31.14 L 111.81,30.45 L 111.81,30.45 L 111.81,30.45 L 113.19,33.22 L 115.28,36.7 L 118.06,40.86 L 118.75,46.42 L 118.75,50.59 L 115.97,55.45 L 113.89,58.22" fill="none" stroke="#89d185" stroke-width="2"></path><path d="M 126.53,44.06 L 126.53,44.06 L 126.39,44.34 L 127.08,44.34 L 127.08,43.64 L 127.08,43.64 L 127.08,43.64 L 125.69,43.64 L 121.53,43.64 L 113.89,43.64 L 109.03,43.64 L 104.86,43.64 L 103.47,43.64 L 102.78,44.34 L 103.47,44.34 L 106.25,44.34" fill="none" stroke="#89d185" stroke-width="2"></path><path d="M 167.5,40.59 L 167.36,40.86 L 167.36,40.86 L 167.36,40.86 L 167.36,41.56 L 165.97,42.95 L 161.81,45.03 L 156.94,48.5 L 150.69,52.67 L 147.92,54.75 L 146.53,56.14 L 145.83,56.84 L 145.14,56.84" fill="none" stroke="#89d185" stroke-width="2"></path><path d="M 146.67,43.37 L 146.53,43.64 L 146.53,42.95 L 146.53,42.95 L 147.22,44.34 L 150.69,47.81 L 154.17,50.59 L 156.94,53.36 L 159.72,55.45 L 162.5,57.53 L 165.97,58.92 L 166.67,58.92" fill="none" stroke="#89d185" stroke-width="2"></path><path d="M 217.5,45.45 L 217.36,45.72 L 217.36,46.42 L 216.67,46.42 L 215.97,46.42 L 213.19,46.42 L 208.33,45.72 L 203.47,45.72 L 197.92,45.72 L 191.67,46.42 L 188.89,47.11 L 187.5,47.11 L 188.19,47.81" fill="none" stroke="#89d185" stroke-width="2"></path><path d="M 206.39,53.09 L 206.25,53.36 L 206.25,53.36 L 206.25,54.06 L 204.86,54.75 L 203.47,54.75 L 198.61,55.45 L 194.44,55.45 L 190.28,56.14 L 184.72,56.14 L 182.64,56.14 L 182.64,56.14" fill="none" stroke="#89d185" stroke-width="2"></path><path d="M 237.64,34.34 L 237.64,34.34 L 236.81,33.92 L 236.81,33.22 L 236.81,33.22 L 236.81,33.22 L 236.81,33.92 L 236.11,37.39 L 234.72,41.56 L 233.33,45.72 L 233.33,49.2 L 234.03,52.67 L 236.81,54.75 L 238.89,54.75" fill="none" stroke="#89d185" stroke-width="2"></path><path d="M 256.39,42.68 L 256.25,42.95 L 254.17,43.64 L 252.08,44.34 L 251.39,45.03 L 250,46.42 L 249.31,47.11 L 250,48.5 L 251.39,49.2 L 252.78,49.89 L 254.86,49.89 L 257.64,49.89 L 259.03,48.5 L 260.42,47.81 L 261.11,45.72 L 260.42,44.34 L 259.03,42.25 L 258.33,42.25 L 256.94,42.25" fill="none" stroke="#89d185" stroke-width="2"></path><path d="M 279.31,39.2 L 279.17,39.47 L 280.56,38.78 L 281.94,38.09 L 282.64,38.09 L 283.33,38.09 L 284.03,39.47" fill="none" stroke="#89d185" stroke-width="2"></path><path d="M 280.7,50.31 L 279.86,50.59 L 278.47,50.59 L 275.69,50.59 L 275,50.59 L 274.31,49.89 L 274.31,49.2 L 275,49.2 L 275.69,49.2 L 277.08,49.89 L 278.47,51.28 L 279.17,52.67 L 277.08,55.45 L 270.83,57.53 L 265.97,58.22" fill="none" stroke="#89d185" stroke-width="2"></path><rect x="359.72" y="227.67" fill="none" stroke="#3794ff" stroke-width="2" width="106.38999999999999" height="203.73999999999998" rx="10" ry="10" d="M 359.72 237.67 a 10 10 0 0 1 10 -10 h 86.38999999999999 a 10 10 0 0 1 10 10 v 183.73999999999998 a 10 10 0 0 1 -10 10 h -86.38999999999999 a 10 10 0 0 1 -10 -10 Z"></rect><line x1="464.72" y1="339.2" x2="359.72" y2="340.17" fill="none" stroke="#3794ff" stroke-width="2" d="M 464.72 339.2 L 359.72 340.17"></line><line x1="464.72" y1="378.09" x2="359.72" y2="379.75" fill="none" stroke="#3794ff" stroke-width="2" d="M 464.72 378.09 L 359.72 379.75"></line><path d="M 405,352.4 L 404.86,352.67 L 404.86,351.97 L 404.86,351.97 L 404.86,351.28 L 405.56,351.28 L 405.56,351.28 L 405.56,351.28 L 405.56,351.28 L 405.56,351.97 L 406.25,354.06 L 406.94,358.92 L 406.94,362.39 L 406.94,365.86 L 407.64,367.95 L 407.64,370.03 L 407.64,370.72" fill="none" stroke="#89d185" stroke-width="2"></path><path d="M 422.36,355.87 L 422.36,355.87 L 422.22,356.14 L 421.53,356.14 L 421.53,356.14 L 419.44,356.14 L 416.67,357.53 L 413.89,358.92 L 411.81,360.31 L 409.72,363.09 L 409.72,363.78 L 410.42,365.17 L 411.81,365.17 L 414.58,365.86 L 419.44,365.86 L 422.22,364.47 L 424.31,363.78 L 426.39,361.7 L 426.39,359.61 L 425.69,358.22 L 423.61,358.22 L 420.14,358.22 L 414.58,358.92" fill="none" stroke="#89d185" stroke-width="2"></path><path d="M 236.95,278.79 L 236.81,279.06 L 236.11,278.36 L 236.11,278.36 L 236.11,278.36 L 236.11,279.06 L 234.72,281.14 L 232.64,283.92 L 230.56,287.39 L 228.47,290.86 L 226.39,294.34 L 224.31,298.5 L 224.31,300.59 L 223.61,301.97 L 223.61,301.97 L 224.31,301.97" fill="none" stroke="#89d185" stroke-width="2"></path><path d="M 216.11,283.65 L 215.97,283.92 L 215.97,283.92 L 215.97,283.22 L 215.97,283.22 L 215.97,283.22 L 216.67,283.92 L 218.75,286 L 222.92,288.78 L 231.25,292.25 L 236.11,294.34 L 239.58,295.72 L 241.67,296.42 L 242.36,297.81 L 243.06,298.5" fill="none" stroke="#89d185" stroke-width="2"></path><path d="M 245.28,291.98 L 245.14,292.25 L 245.14,291.56 L 245.14,291.56 L 245.83,291.56 L 245.83,291.56 L 245.83,291.56 L 245.83,291.56 L 246.53,290.86 L 247.92,290.86 L 250,290.86 L 254.17,290.17 L 256.94,290.17 L 260.42,290.17 L 263.19,290.17 L 268.06,291.56 L 271.53,292.25 L 275.69,293.64 L 279.86,295.72 L 283.33,297.11 L 288.89,300.59 L 292.36,303.36 L 295.14,305.45 L 297.22,308.22 L 298.61,311 L 300,315.86 L 300,319.34 L 300,322.11 L 300,325.59 L 300,330.45 L 299.31,333.22 L 298.61,336.7 L 297.92,338.78 L 297.92,341.56 L 298.61,345.72 L 300,348.5 L 302.08,350.59 L 304.17,352.67 L 307.64,354.75 L 311.11,356.14 L 314.58,357.53 L 318.06,358.22 L 321.53,359.61 L 326.39,360.31 L 329.86,360.31 L 334.03,361 L 338.89,361 L 343.75,361 L 345.83,361 L 347.22,361.7 L 349.31,361.7 L 350,362.39 L 350.69,362.39 L 350.69,362.39 L 350.69,362.39 L 350.69,361.7 L 350,360.31 L 349.31,358.92 L 348.61,357.53 L 347.92,356.14 L 347.92,355.45 L 347.92,354.06 L 347.22,354.06 L 347.22,354.06 L 347.22,354.06 L 347.22,354.06 L 347.22,354.06 L 347.22,354.06 L 347.22,354.06 L 347.22,354.06 L 347.22,354.06 L 347.22,354.06 L 347.22,353.36 L 347.22,353.36 L 346.53,352.67 L 346.53,352.67 L 346.53,352.67 L 346.53,352.67 L 346.53,352.67 L 346.53,352.67 L 347.22,352.67 L 349.31,354.06 L 351.39,354.75 L 354.86,356.14 L 358.33,356.84 L 363.19,358.22 L 365.28,358.22 L 365.97,358.92 L 366.67,358.92 L 366.67,358.92 L 366.67,358.92 L 366.67,358.92 L 366.67,359.61 L 365.28,360.31 L 363.19,361 L 359.03,363.09 L 356.25,364.47 L 353.47,365.86 L 350.69,367.25 L 349.31,367.95 L 348.61,368.64 L 348.61,368.64 L 348.61,368.64 L 348.61,367.95 L 347.92,366.56 L 347.22,365.17 L 347.22,363.78 L 347.22,361.7 L 347.92,358.92 L 348.61,357.53 L 348.61,356.84 L 349.31,355.45 L 349.31,355.45 L 349.31,355.45 L 349.31,354.75 L 349.31,354.75 L 349.31,354.75 L 349.31,354.75 L 349.31,354.75 L 349.31,354.75 L 349.31,354.75 L 349.31,354.75 L 348.61,354.75" fill="none" stroke="#89d185" stroke-width="2"></path><path d="M 241.11,265.59 L 238.89,265.17 L 237.5,264.47 L 236.11,263.78 L 234.72,263.78 L 232.64,263.78 L 229.86,263.78 L 226.39,264.47 L 220.14,265.86 L 215.97,266.56 L 211.11,267.25 L 206.94,268.64 L 202.78,270.03 L 199.31,271.42 L 195.14,275.59 L 193.06,278.36 L 191.67,281.84 L 191.67,286 L 192.36,288.78 L 193.75,291.56 L 195.14,294.34 L 197.22,296.42 L 201.39,299.2 L 204.17,301.28 L 207.64,302.67 L 211.81,304.75 L 216.67,305.45 L 225,306.84 L 229.86,306.84 L 234.72,307.53 L 238.89,307.53 L 243.06,306.84 L 247.22,306.84 L 249.31,306.14 L 250.69,306.14 L 253.47,305.45 L 256.25,304.06 L 259.03,303.36 L 261.81,301.97 L 264.58,299.89 L 265.28,298.5 L 265.28,295.72 L 265.28,293.64 L 263.89,290.86 L 261.81,288.09 L 259.72,286 L 256.94,283.92 L 254.17,281.84 L 251.39,279.75 L 247.22,277.67 L 240.97,274.89 L 236.81,274.2 L 232.64,272.81 L 228.47,271.42 L 222.92,270.72 L 218.75,270.03" fill="none" stroke="#f14c4c" stroke-width="2"></path><path d="M 180.7,232.95 L 180.56,232.53 L 180.56,231.84 L 180.56,231.84 L 180.56,231.84 L 180.56,232.53 L 181.25,234.61 L 183.33,238.78 L 184.72,242.95 L 186.11,248.5 L 187.5,251.28 L 188.19,253.36 L 188.19,254.06" fill="none" stroke="#f14c4c" stroke-width="2"></path><path d="M 200.84,244.06 L 200.69,244.34 L 200.69,244.34 L 200.69,243.64 L 200.69,243.64 L 200.69,243.64 L 201.39,244.34 L 202.08,246.42 L 204.17,249.2 L 205.56,251.28 L 208.33,254.06 L 209.72,254.75 L 209.72,254.75 L 209.72,254.75 L 211.11,253.36 L 213.19,249.2 L 213.89,245.72 L 215.28,242.95 L 215.28,241.56 L 215.28,241.56 L 215.28,241.56 L 215.97,241.56 L 215.97,242.25" fill="none" stroke="#f14c4c" stroke-width="2"></path><path d="M 228.61,246.15 L 228.61,246.15 L 227.78,245.72 L 226.39,245.72 L 225.69,245.72 L 222.92,246.42 L 220.14,247.11 L 218.06,248.5 L 217.36,250.59 L 216.67,252.67 L 218.06,253.36 L 219.44,253.36 L 220.83,253.36 L 224.31,251.97 L 226.39,250.59 L 229.17,247.81 L 231.25,245.72 L 231.94,245.03 L 231.94,245.03 L 231.94,245.72 L 231.25,247.11 L 230.56,249.2 L 230.56,250.59 L 231.25,252.67 L 231.94,253.36 L 234.03,253.36 L 236.11,251.97" fill="none" stroke="#f14c4c" stroke-width="2"></path><path d="M 238.34,233.65 L 238.19,233.92 L 238.19,233.92 L 238.19,233.22 L 238.19,233.92 L 238.19,235.31 L 238.89,238.78 L 239.58,242.25 L 240.28,246.42 L 240.28,249.89 L 240.28,251.97 L 240.28,252.67 L 240.28,252.67 L 240.28,252.67" fill="none" stroke="#f14c4c" stroke-width="2"></path><path d="M 247.36,244.06 L 247.22,244.34 L 247.22,244.34 L 247.22,244.34 L 247.22,245.03 L 247.22,246.42 L 247.92,248.5 L 247.92,249.89 L 249.31,250.59 L 250,251.28 L 250,251.28 L 251.39,250.59 L 253.47,249.2 L 254.86,247.11 L 256.25,245.03 L 256.25,244.34 L 256.25,244.34 L 256.25,245.03 L 256.25,245.72 L 256.25,247.81 L 256.25,249.2 L 256.94,249.89 L 256.94,251.28 L 258.33,251.28 L 258.33,250.59" fill="none" stroke="#f14c4c" stroke-width="2"></path><path d="M 265.42,244.06 L 265.42,244.06 L 265.28,244.34 L 265.28,244.34 L 265.97,245.03 L 267.36,246.42 L 268.75,247.11 L 270.14,247.11 L 270.83,247.11 L 273.61,246.42 L 275,245.03 L 275.69,242.25 L 275,242.25 L 274.31,242.25 L 271.53,242.25 L 268.06,244.34 L 265.28,246.42 L 264.58,249.89 L 267.36,251.97 L 272.22,253.36 L 279.17,254.06 L 287.5,254.06" fill="none" stroke="#f14c4c" stroke-width="2"></path><path d="M 189.03,257.95 L 189.03,257.95 L 188.89,258.22 L 188.89,258.22 L 188.89,258.22 L 188.89,258.22 L 189.58,258.22 L 190.28,257.53 L 190.97,257.53 L 192.36,257.53 L 193.75,256.84 L 195.14,256.84 L 195.14,256.84 L 195.83,256.14 L 195.83,256.14 L 196.53,256.14 L 197.92,255.45 L 199.31,255.45 L 200,255.45 L 200,255.45 L 200,255.45 L 200,255.45 L 200,255.45 L 198.61,255.45 L 196.53,255.45 L 193.06,256.14 L 191.67,256.14 L 190.28,256.14 L 190.28,256.14 L 190.28,256.14 L 189.58,256.84 L 189.58,256.84 L 190.97,256.14 L 192.36,256.14 L 195.14,255.45 L 195.83,255.45 L 195.83,255.45 L 195.83,255.45 L 195.83,255.45 L 195.83,255.45 L 195.83,255.45 L 195.83,255.45 L 193.75,255.45 L 192.36,255.45 L 190.97,255.45 L 190.28,255.45 L 190.28,255.45 L 188.89,255.45 L 188.89,254.75 L 188.19,254.75 L 188.19,254.75 L 187.5,254.75 L 187.5,254.06 L 187.5,254.06 L 187.5,254.06" fill="none" stroke="#f14c4c" stroke-width="2"></path><path d="M 496.67,279.48 L 496.53,279.75 L 496.53,279.75 L 496.53,279.06 L 496.53,279.06 L 496.53,279.06 L 496.53,279.06 L 497.22,279.75 L 499.31,282.53 L 501.39,285.31 L 502.78,288.78 L 503.47,291.56 L 501.39,297.11 L 497.92,300.59 L 493.06,304.06 L 486.11,307.53 L 477.78,310.31 L 463.19,314.47 L 454.17,316.56 L 447.22,317.25 L 442.36,317.95 L 437.5,318.64 L 435.42,319.34 L 433.33,320.03 L 431.25,320.72 L 427.78,323.5 L 425.69,326.28 L 423.61,328.36 L 420.83,331.14 L 419.44,333.22 L 416.67,336.7 L 415.28,338.78 L 415.28,340.17 L 415.28,341.56 L 415.28,342.25 L 415.28,342.25 L 415.28,342.25 L 415.28,342.25 L 415.28,342.25 L 414.58,341.56 L 413.89,340.86 L 412.5,340.17 L 412.5,338.78 L 411.81,336.7 L 411.81,334.61 L 411.11,333.22 L 411.11,333.22 L 411.11,332.53 L 411.11,332.53 L 411.11,332.53 L 411.11,333.22 L 411.11,335.31 L 411.81,337.39 L 412.5,340.17 L 412.5,342.25 L 411.81,344.34 L 411.81,346.42 L 410.42,347.81 L 410.42,348.5 L 410.42,348.5 L 410.42,348.5 L 410.42,348.5 L 410.42,347.81 L 411.81,347.11 L 414.58,345.72 L 417.36,344.34 L 421.53,342.95 L 423.61,342.25 L 424.31,342.25 L 425,341.56 L 425,341.56 L 425,341.56 L 425,341.56 L 425,341.56 L 425,340.86 L 422.92,339.47 L 420.83,338.78 L 418.06,336.7 L 415.28,336 L 411.81,334.61 L 409.72,333.92 L 409.03,333.92 L 407.64,333.22 L 407.64,333.22 L 407.64,333.22 L 407.64,333.22 L 407.64,333.22 L 407.64,333.22 L 406.94,333.22 L 406.94,333.92 L 406.94,334.61" fill="none" stroke="#f14c4c" stroke-width="2"></path><path d="M 495.97,254.48 L 495.83,254.06 L 495.83,253.36 L 495.83,253.36 L 495.83,253.36 L 495.83,253.36 L 495.83,254.06 L 497.22,255.45 L 499.31,259.61 L 501.39,263.09 L 502.78,265.86 L 504.17,267.95 L 504.86,269.34 L 504.86,270.72 L 504.86,270.72 L 504.86,271.42 L 504.86,270.72 L 502.78,270.03 L 500.69,267.95 L 497.92,265.17 L 496.53,263.09 L 495.83,261 L 495.14,258.92 L 493.75,256.14 L 493.75,254.75 L 493.75,254.06 L 494.44,253.36 L 494.44,252.67 L 495.14,251.97 L 496.53,251.97 L 498.61,251.97 L 501.39,251.97 L 504.17,251.97 L 505.56,253.36 L 506.25,254.75 L 506.25,256.14 L 505.56,258.22 L 503.47,259.61 L 500.69,261 L 498.61,261.7 L 497.22,261.7 L 496.53,261.7 L 496.53,261.7 L 497.22,261.7 L 499.31,261.7 L 505.56,261.7 L 511.11,261.7 L 515.97,262.39 L 519.44,263.78 L 520.83,265.17 L 522.22,265.86 L 522.22,266.56 L 522.22,266.56 L 522.22,266.56 L 522.22,266.56 L 521.53,266.56 L 520.14,266.56 L 518.06,265.86" fill="none" stroke="#f14c4c" stroke-width="2"></path><path d="M 520.97,253.09 L 520.97,253.09 L 520.14,252.67 L 520.14,252.67 L 520.14,252.67 L 520.83,253.36 L 520.83,253.36 L 522.22,254.75 L 523.61,256.84 L 527.08,258.92 L 529.17,260.31 L 529.86,261 L 530.56,261 L 530.56,261 L 530.56,260.31 L 531.25,258.22 L 531.94,256.14 L 531.25,252.67 L 529.86,249.89 L 529.17,249.2 L 529.17,248.5 L 529.17,248.5 L 529.17,248.5 L 527.78,249.2 L 527.78,250.59" fill="none" stroke="#f14c4c" stroke-width="2"></path><path d="M 550.14,250.31 L 550.14,250.31 L 550,250.59 L 547.92,250.59 L 546.53,250.59 L 544.44,251.28 L 541.67,252.67 L 538.89,254.75 L 538.19,256.14 L 538.19,257.53 L 539.58,258.22 L 540.97,258.22 L 543.75,258.22 L 545.83,256.84 L 547.92,254.75 L 549.31,252.67 L 550,251.28 L 550,251.28 L 550,251.28 L 550.69,251.97 L 552.08,253.36 L 554.86,255.45 L 556.25,256.84 L 557.64,256.84 L 559.72,256.14 L 561.11,254.75 L 561.81,251.97 L 562.5,247.81 L 562.5,242.25 L 561.11,238.09 L 559.03,234.61 L 558.33,233.22 L 558.33,233.22 L 558.33,232.53 L 558.33,232.53 L 559.03,233.92 L 560.42,236.7 L 563.89,241.56 L 565.97,245.72 L 567.36,248.5 L 568.75,251.28 L 570.14,253.36 L 570.83,254.06 L 571.53,254.06 L 572.92,253.36 L 573.61,252.67" fill="none" stroke="#f14c4c" stroke-width="2"></path><path d="M 577.22,244.76 L 577.08,245.03 L 576.39,244.34 L 576.39,244.34 L 576.39,244.34 L 576.39,244.34 L 576.39,245.03 L 576.39,245.72 L 577.08,247.81 L 577.78,249.2 L 578.47,249.2 L 579.17,249.89 L 579.17,249.2 L 580.56,247.11 L 581.25,245.03 L 581.94,243.64 L 581.94,243.64 L 581.94,243.64 L 581.94,243.64 L 582.64,244.34 L 584.03,245.72 L 585.42,247.11 L 587.5,248.5 L 588.89,249.2 L 589.58,249.2 L 590.97,249.2" fill="none" stroke="#f14c4c" stroke-width="2"></path><path d="M 593.89,241.98 L 593.89,241.98 L 593.75,242.25 L 593.75,242.25 L 594.44,242.95 L 595.83,243.64 L 597.22,243.64 L 598.61,244.34 L 600,243.64 L 601.39,242.95 L 602.08,242.25 L 602.08,240.17 L 602.08,239.47 L 600.69,239.47 L 599.31,239.47 L 597.22,240.17 L 592.36,243.64 L 590.28,245.72 L 590.28,247.81 L 592.36,249.2 L 600.69,250.59 L 607.64,250.59 L 614.58,250.59" fill="none" stroke="#f14c4c" stroke-width="2"></path><path d="M 544.59,271.84 L 544.44,271.42 L 544.44,271.42 L 544.44,270.72 L 543.75,270.72 L 543.75,270.72 L 543.75,270.72 L 546.53,272.11 L 548.61,274.89 L 550.69,277.67 L 552.08,280.45 L 554.86,283.92 L 556.25,285.31 L 556.94,286.7 L 557.64,287.39 L 557.64,287.39" fill="none" stroke="#cca700" stroke-width="2"></path><path d="M 569.59,269.76 L 569.44,270.03 L 568.75,270.03 L 567.36,270.03 L 566.67,270.72 L 564.58,272.11 L 563.89,273.5 L 562.5,275.59 L 561.81,277.67 L 561.81,279.06 L 563.19,279.75 L 564.58,279.75 L 566.67,280.45 L 568.75,279.75 L 570.14,278.36 L 571.53,276.97 L 572.22,275.59 L 572.22,273.5 L 571.53,272.81 L 570.14,272.81 L 568.06,272.11 L 564.58,272.81 L 562.5,274.2 L 560.42,274.89" fill="none" stroke="#cca700" stroke-width="2"></path><path d="M 580,282.26 L 579.86,282.53 L 581.25,282.53 L 581.25,281.84 L 581.25,281.84 L 581.25,281.84 L 579.86,282.53 L 576.39,283.92 L 568.06,287.39 L 562.5,289.47 L 559.03,290.86 L 557.64,291.56 L 557.64,291.56 L 558.33,292.25 L 561.81,291.56 L 565.97,290.17 L 570.83,288.78 L 577.78,286.7 L 580.56,286 L 581.94,286 L 582.64,286 L 582.64,286 L 581.94,286.7 L 578.47,288.78 L 575,290.17 L 572.22,290.86 L 571.53,290.86 L 571.53,290.86 L 571.53,290.86 L 573.61,290.86 L 576.39,290.17 L 577.78,289.47 L 577.78,289.47 L 577.78,289.47 L 577.78,289.47 L 576.39,290.86 L 575,291.56 L 574.31,291.56 L 573.61,291.56 L 573.61,291.56 L 573.61,291.56 L 575,291.56" fill="none" stroke="#cca700" stroke-width="2"></path><path d="M 246.67,303.09 L 246.67,303.09 L 246.53,303.36 L 246.53,302.67 L 246.53,302.67 L 245.83,302.67 L 244.44,303.36 L 241.67,304.75 L 235.42,308.22 L 229.86,311 L 226.39,313.09 L 225,313.78 L 225,313.78 L 226.39,313.78 L 229.86,312.39 L 234.72,310.31 L 240.28,307.53 L 246.53,304.06 L 248.61,303.36 L 248.61,303.36 L 248.61,303.36 L 247.22,304.75 L 244.44,306.14 L 241.67,308.22 L 240.28,309.61 L 238.89,310.31 L 238.89,310.31 L 238.89,310.31 L 239.58,310.31" fill="none" stroke="#cca700" stroke-width="2"></path><path d="M 381.39,446.15 L 381.39,446.15 L 381.25,446.42 L 381.25,446.42 L 381.25,446.42 L 381.94,447.11 L 382.64,448.5 L 382.64,451.97 L 382.64,454.06 L 381.94,455.45 L 381.25,456.14 L 381.25,456.84 L 381.25,456.14 L 381.25,454.06 L 380.56,451.97 L 381.25,450.59 L 381.94,449.2 L 382.64,449.2 L 383.33,449.2 L 384.72,449.89 L 387.5,450.59 L 389.58,451.97 L 390.28,452.67 L 390.97,452.67 L 390.97,452.67 L 390.97,451.97 L 391.67,449.89 L 392.36,449.2 L 392.36,449.2 L 392.36,449.2 L 393.75,448.5 L 394.44,449.2 L 395.83,450.59 L 397.22,451.28 L 397.92,452.67 L 398.61,454.06 L 399.31,454.06 L 399.31,454.75 L 399.31,454.75 L 399.31,454.06" fill="none" stroke="#3794ff" stroke-width="2"></path><path d="M 403.61,448.93 L 403.47,449.2 L 403.47,449.2 L 404.17,449.89 L 405.56,450.59 L 406.25,451.28 L 407.64,451.28 L 409.03,451.28 L 409.72,451.28 L 412.5,449.89 L 413.19,449.2 L 413.19,448.5 L 412.5,447.81 L 411.11,446.42 L 410.42,446.42 L 409.03,446.42 L 406.25,447.81 L 404.86,448.5 L 403.47,449.89 L 403.47,451.28 L 403.47,452.67 L 404.17,453.36 L 406.25,454.75 L 407.64,455.45 L 409.03,455.45 L 411.11,455.45 L 411.81,455.45 L 414.58,454.06 L 415.97,452.67 L 418.06,451.28 L 418.75,450.59 L 418.75,449.89 L 418.75,449.89 L 418.75,449.89 L 419.44,449.89 L 419.44,449.89 L 420.14,451.28 L 420.83,451.97 L 421.53,453.36 L 421.53,454.06 L 421.53,454.06 L 421.53,454.06 L 421.53,452.67 L 422.22,451.28 L 422.92,449.2 L 423.61,449.2 L 423.61,449.2 L 424.31,449.2 L 425.69,449.89 L 427.08,451.28 L 427.78,451.28 L 427.78,451.28 L 427.78,451.28 L 429.17,450.59 L 429.86,449.2 L 429.86,449.2 L 429.86,449.2 L 430.56,449.2 L 431.94,450.59 L 432.64,451.97 L 434.03,452.67 L 434.72,454.06 L 436.11,454.75 L 436.11,454.75 L 436.11,454.75" fill="none" stroke="#3794ff" stroke-width="2"></path><path d="M 441.11,449.62 L 440.97,449.89 L 440.97,449.89 L 440.97,449.89 L 440.97,449.89 L 441.67,449.89 L 441.67,450.59 L 442.36,451.28 L 443.75,451.97 L 445.14,451.97 L 447.22,451.97 L 448.61,451.28 L 449.31,449.89 L 449.31,449.2 L 448.61,448.5 L 447.22,448.5 L 445.83,447.81 L 443.75,447.81 L 441.67,448.5 L 439.58,449.2 L 438.89,449.2" fill="none" stroke="#3794ff" stroke-width="2"></path><path d="M 455,444.06 L 454.86,444.34 L 454.86,444.34 L 454.86,443.64 L 454.86,443.64 L 454.86,443.64 L 454.86,443.64 L 454.17,443.64 L 454.17,443.64 L 453.47,443.64 L 453.47,443.64 L 453.47,443.64 L 453.47,443.64 L 453.47,443.64 L 453.47,443.64 L 453.47,443.64 L 453.47,443.64 L 454.17,444.34 L 455.56,445.72 L 456.94,448.5 L 457.64,450.59 L 457.64,452.67 L 457.64,454.06 L 457.64,455.45 L 456.94,455.45 L 456.94,455.45 L 456.25,455.45 L 455.56,454.75 L 455.56,452.67 L 456.94,450.59 L 458.33,448.5 L 460.42,447.11 L 461.81,445.72 L 463.89,444.34 L 464.58,443.64" fill="none" stroke="#3794ff" stroke-width="2"></path><path d="M 469.59,443.37 L 469.44,443.64 L 469.44,443.64 L 469.44,444.34 L 470.14,445.03 L 470.83,445.72 L 471.53,447.81 L 471.53,448.5 L 472.22,449.2 L 472.22,449.89 L 472.92,449.89 L 473.61,449.89 L 475.69,448.5 L 476.39,447.11 L 477.08,445.03 L 478.47,442.25 L 478.47,440.86 L 478.47,440.86 L 478.47,440.86 L 478.47,440.86 L 478.47,440.86 L 477.78,445.03 L 477.78,447.11 L 478.47,450.59 L 479.17,452.67 L 479.86,454.75 L 479.86,456.84 L 477.08,458.22 L 470.83,461 L 465.28,463.09 L 458.33,465.17 L 450.69,467.25 L 441.67,469.34 L 438.89,470.03 L 438.19,470.03 L 438.89,470.03" fill="none" stroke="#3794ff" stroke-width="2"></path></svg>