<svg id="svg" xmlns="http://www.w3.org/2000/svg" viewBox="159.1699981689453 222.52999877929688 342.1700439453125 251.66998291015625" height="251.66998291015625"><rect x="384.17" y="240.03" fill="none" stroke="#3794ff" stroke-width="2" width="107.16999999999996" height="224.17000000000002" rx="10" ry="10" d="M 384.17 250.03 a 10 10 0 0 1 10 -10 h 87.16999999999996 a 10 10 0 0 1 10 10 v 204.17000000000002 a 10 10 0 0 1 -10 10 h -87.16999999999996 a 10 10 0 0 1 -10 -10 Z"></rect><line x1="488.84" y1="280.86" x2="383.33" y2="280.86" fill="none" stroke="#89d185" stroke-width="2" d="M 488.84 280.86 L 383.33 280.86"></line><line x1="488.84" y1="321.69" x2="385.83" y2="320.86" fill="none" stroke="#89d185" stroke-width="2" d="M 488.84 321.69 L 385.83 320.86"></line><line x1="490.51" y1="359.19" x2="383.33" y2="360.86" fill="none" stroke="#b180d7" stroke-width="2" d="M 490.51 359.19 L 383.33 360.86"></line><line x1="489.67" y1="399.19" x2="383.33" y2="399.19" fill="none" stroke="#b180d7" stroke-width="2" d="M 489.67 399.19 L 383.33 399.19"></line><path d="M 403.84,299.19 L 404.17,299.19 L 404.17,299.19 L 404.17,299.19 L 404.17,299.19 L 404.17,299.19 L 404.17,299.19 L 404.17,299.19 L 404.17,299.19 L 404.17,299.19 L 404.17,299.19 L 402.5,299.19 L 399.17,299.19 L 396.67,300.03 L 395.83,300.03 L 394.17,300.03 L 394.17,300.03 L 393.33,300.86 L 393.33,300.86 L 393.33,301.69 L 392.5,301.69 L 392.5,302.53 L 392.5,303.36 L 392.5,304.19 L 392.5,305.03 L 393.33,305.86 L 393.33,306.69 L 393.33,306.69 L 393.33,306.69 L 393.33,306.69 L 393.33,306.69 L 393.33,306.69 L 393.33,306.69 L 394.17,306.69 L 395.83,305.86 L 399.17,305.86 L 403.33,305.86 L 405.83,305.86 L 408.33,306.69 L 409.17,306.69 L 410,307.53 L 410,308.36 L 407.5,309.19 L 404.17,310.03 L 401.67,310.03 L 398.33,310.86 L 396.67,310.86 L 395.83,310.86" fill="none" stroke="#f14c4c" stroke-width="2"></path><path d="M 418.84,296.69 L 419.17,296.69 L 419.17,296.69 L 419.17,295.86 L 419.17,295.86 L 419.17,295.86 L 419.17,295.86 L 419.17,295.86 L 419.17,295.86 L 419.17,295.86 L 419.17,295.86 L 419.17,296.69 L 420,299.19 L 420,301.69 L 420.83,304.19 L 421.67,307.53 L 421.67,308.36 L 421.67,309.19 L 422.5,309.19 L 422.5,309.19 L 422.5,308.36 L 422.5,307.53 L 422.5,306.69 L 423.33,305.86 L 424.17,304.19 L 425,303.36 L 427.5,302.53 L 430,301.69 L 431.67,301.69 L 433.33,301.69 L 435,301.69 L 435,302.53 L 435.83,303.36 L 435.83,304.19 L 435,305.03 L 433.33,306.69 L 431.67,306.69 L 430.83,307.53 L 429.17,307.53 L 426.67,307.53 L 425.83,307.53 L 424.17,307.53 L 423.33,307.53 L 423.33,307.53 L 422.5,306.69" fill="none" stroke="#f14c4c" stroke-width="2"></path><path d="M 447.17,303.36 L 447.17,303.36 L 446.67,303.36 L 446.67,303.36 L 446.67,303.36 L 446.67,303.36 L 446.67,303.36 L 446.67,302.53 L 445.83,302.53 L 445.83,302.53 L 444.17,302.53 L 442.5,302.53 L 440.83,302.53 L 440,303.36 L 439.17,304.19 L 438.33,305.03 L 439.17,305.86 L 440.83,307.53 L 442.5,307.53 L 443.33,308.36 L 445,308.36 L 445.83,307.53 L 446.67,307.53 L 447.5,305.86 L 448.33,305.03 L 449.17,303.36 L 449.17,303.36 L 449.17,303.36 L 450,302.53 L 450,302.53 L 450,303.36 L 450,304.19 L 450,305.86 L 450,306.69 L 450,307.53 L 450.83,307.53 L 450.83,307.53 L 451.67,307.53 L 451.67,306.69 L 452.5,305.86 L 453.33,304.19 L 454.17,303.36 L 455,302.53 L 455,302.53 L 455,302.53 L 455,302.53 L 455.83,302.53 L 455.83,304.19 L 455.83,305.03 L 455.83,306.69 L 455.83,306.69 L 455.83,306.69 L 455.83,306.69 L 456.67,305.86 L 457.5,305.03 L 458.33,304.19 L 458.33,304.19 L 458.33,304.19 L 458.33,304.19 L 459.17,305.03 L 459.17,305.86 L 460.83,307.53 L 461.67,307.53 L 461.67,308.36 L 461.67,308.36 L 463.33,307.53 L 465,305.86 L 465,305.03" fill="none" stroke="#f14c4c" stroke-width="2"></path><path d="M 470.51,295.86 L 470.83,295.03 L 470.83,295.03 L 470.83,294.19 L 471.67,294.19 L 471.67,294.19 L 471.67,294.19 L 471.67,294.19 L 471.67,294.19 L 470.83,295.03 L 470.83,295.86 L 470.83,297.53 L 470,299.19 L 470,302.53 L 470.83,305.03 L 471.67,306.69 L 472.5,308.36 L 472.5,310.03 L 473.33,310.86 L 474.17,311.69 L 474.17,311.69 L 474.17,311.69 L 474.17,310.86" fill="none" stroke="#f14c4c" stroke-width="2"></path><path d="M 478.84,302.53 L 478.84,302.53 L 479.17,302.53 L 479.17,301.69 L 479.17,301.69 L 479.17,301.69 L 479.17,301.69 L 479.17,301.69 L 479.17,301.69 L 479.17,301.69 L 479.17,301.69 L 479.17,301.69 L 479.17,301.69 L 479.17,301.69 L 480,301.69 L 480,300.86 L 480,300.86 L 480,300.03 L 480,300.03 L 480.83,300.03 L 480.83,300.03 L 480.83,300.03 L 480,300.03 L 478.33,301.69 L 476.67,302.53 L 472.5,303.36 L 470.83,304.19 L 470,304.19 L 470,304.19 L 470,305.03 L 472.5,305.86 L 475,305.86 L 477.5,306.69 L 480.83,308.36 L 482.5,309.19 L 483.33,310.03 L 484.17,310.86 L 484.17,311.69" fill="none" stroke="#f14c4c" stroke-width="2"></path><path d="M 403.01,379.19 L 403.01,379.19 L 403.33,378.36 L 404.17,378.36 L 405,378.36 L 405.83,377.53 L 405.83,377.53 L 407.5,377.53 L 408.33,377.53 L 409.17,377.53 L 410,377.53 L 410,377.53 L 410,377.53 L 410,377.53 L 410,377.53 L 410,377.53 L 407.5,377.53 L 405.83,378.36 L 403.33,378.36 L 400.83,379.19 L 399.17,379.19 L 397.5,380.03 L 397.5,380.03 L 397.5,380.03 L 397.5,380.03 L 397.5,380.03 L 397.5,380.03 L 397.5,380.03 L 397.5,380.03 L 397.5,380.03 L 397.5,380.86 L 398.33,381.69 L 398.33,382.53 L 399.17,384.19 L 400,385.03 L 400,385.86 L 400,385.86 L 400,385.86 L 400,385.86 L 400,385.86 L 399.17,385.86 L 399.17,385.86 L 399.17,385.86 L 400.83,385.03 L 401.67,385.03 L 403.33,385.03 L 405,384.19 L 405.83,384.19 L 408.33,385.03 L 409.17,385.86 L 409.17,385.86 L 408.33,386.69 L 405.83,388.36 L 403.33,389.19 L 400.83,390.03 L 397.5,390.86 L 395.83,391.69" fill="none" stroke="#f14c4c" stroke-width="2"></path><path d="M 420.51,375.86 L 420.83,375.03 L 420.83,375.03 L 420.83,374.19 L 420.83,374.19 L 420.83,374.19 L 420.83,373.36 L 420.83,373.36 L 420.83,373.36 L 420,373.36 L 420,373.36 L 420,373.36 L 420,373.36 L 420,373.36 L 420,372.53 L 420,372.53 L 420,372.53 L 420,373.36 L 420,375.03 L 420,378.36 L 420,380.86 L 420,383.36 L 420,385.03 L 419.17,386.69 L 419.17,386.69 L 419.17,386.69 L 419.17,386.69 L 419.17,385.03 L 419.17,383.36 L 419.17,382.53 L 420,381.69 L 420.83,380.86 L 422.5,380.86 L 424.17,380.86 L 426.67,380.86 L 428.33,381.69 L 430.83,383.36 L 431.67,384.19 L 431.67,385.03 L 431.67,385.86 L 430,386.69 L 426.67,387.53 L 425,387.53 L 422.5,387.53 L 421.67,387.53 L 420.83,387.53" fill="none" stroke="#f14c4c" stroke-width="2"></path><path d="M 443.84,381.69 L 444.17,381.69 L 444.17,381.69 L 444.17,381.69 L 444.17,381.69 L 444.17,381.69 L 444.17,381.69 L 444.17,381.69 L 444.17,381.69 L 444.17,381.69 L 444.17,381.69 L 443.33,381.69 L 443.33,381.69 L 442.5,381.69 L 441.67,381.69 L 440,381.69 L 437.5,382.53 L 435.83,382.53 L 435,383.36 L 435,384.19 L 434.17,384.19 L 435,385.86 L 436.67,385.86 L 439.17,386.69 L 440.83,386.69 L 444.17,387.53 L 445.83,387.53 L 446.67,387.53 L 446.67,387.53 L 446.67,387.53 L 447.5,386.69 L 448.33,385.86 L 449.17,384.19 L 450,383.36 L 450,382.53 L 450,381.69 L 450,381.69 L 450,381.69 L 450,381.69 L 450,381.69 L 449.17,382.53 L 449.17,383.36 L 449.17,384.19 L 449.17,385.86 L 449.17,387.53 L 449.17,387.53 L 449.17,388.36 L 449.17,388.36 L 450,388.36" fill="none" stroke="#f14c4c" stroke-width="2"></path><path d="M 457.17,380.03 L 457.5,380.03 L 457.5,380.03 L 457.5,380.03 L 457.5,380.86 L 458.33,381.69 L 458.33,382.53 L 458.33,384.19 L 459.17,385.03 L 459.17,386.69 L 459.17,386.69 L 459.17,386.69 L 459.17,386.69 L 460,385.86 L 460.83,385.03 L 461.67,383.36 L 461.67,382.53 L 461.67,382.53 L 462.5,382.53 L 462.5,382.53 L 462.5,382.53 L 463.33,384.19 L 465.83,385.03 L 466.67,385.86 L 468.33,386.69 L 468.33,386.69" fill="none" stroke="#f14c4c" stroke-width="2"></path><path d="M 469.67,375.86 L 470,375.86 L 470,375.03 L 470,374.19 L 470,374.19 L 470,373.36 L 470,373.36 L 470,373.36 L 470.83,374.19 L 471.67,376.69 L 473.33,379.19 L 474.17,381.69 L 475,384.19 L 475.83,385.86 L 475,387.53 L 475,387.53 L 475,387.53 L 475,386.69 L 475,385.03 L 475.83,383.36 L 476.67,380.86 L 477.5,379.19 L 478.33,377.53 L 479.17,375.86 L 480.83,375.86 L 480.83,375.86 L 481.67,375.03 L 482.5,375.03 L 482.5,375.86 L 482.5,376.69 L 480.83,377.53 L 478.33,379.19 L 475.83,380.03 L 475.83,380.86 L 475,381.69 L 477.5,382.53 L 480,384.19 L 483.33,385.03 L 485.83,385.86 L 487.5,387.53" fill="none" stroke="#f14c4c" stroke-width="2"></path><path d="M 450.51,381.69 L 450.83,381.69 L 450.83,381.69 L 450.83,381.69 L 450.83,381.69 L 450.83,381.69 L 450.83,381.69 L 450,381.69 L 448.33,381.69 L 447.5,381.69 L 445.83,380.86 L 445,380.86 L 445,380.86 L 445,380.86 L 444.17,380.86 L 444.17,380.86 L 444.17,380.86 L 444.17,380.86 L 444.17,380.86 L 443.33,380.86 L 443.33,380.86 L 442.5,380.86 L 441.67,380.86 L 441.67,380.86 L 440.83,380.86 L 440.83,380.86 L 440.83,381.69" fill="none" stroke="#f14c4c" stroke-width="2"></path><path d="M 271.51,265.03 L 271.67,265.03 L 271.67,265.03 L 271.67,265.03 L 272.5,265.03 L 272.5,265.03 L 272.5,266.69 L 274.17,269.19 L 275,272.53 L 275,275.86 L 275,280.86 L 275,285.03 L 275,288.36 L 275,290.86 L 275.83,294.19 L 278.33,295.03 L 282.5,295.86 L 287.5,296.69 L 295,297.53 L 307.5,297.53 L 317.5,297.53 L 326.67,297.53 L 334.17,297.53 L 342.5,297.53 L 348.33,296.69 L 353.33,296.69 L 357.5,296.69 L 360.83,296.69 L 365,297.53 L 367.5,297.53 L 369.17,298.36 L 370.83,298.36 L 371.67,298.36 L 371.67,298.36 L 371.67,298.36 L 370.83,298.36 L 369.17,297.53 L 367.5,295.86 L 365.83,293.36 L 364.17,291.69 L 363.33,290.03 L 363.33,289.19 L 363.33,289.19 L 363.33,289.19 L 363.33,289.19 L 363.33,289.19 L 363.33,290.86 L 365,291.69 L 366.67,292.53 L 368.33,293.36 L 372.5,295.03 L 374.17,295.03 L 374.17,295.03 L 374.17,295.03 L 375,295.86 L 374.17,296.69 L 373.33,297.53 L 370.83,299.19 L 367.5,300.86 L 361.67,302.53 L 360,303.36 L 359.17,303.36 L 358.33,303.36 L 358.33,303.36 L 358.33,301.69 L 358.33,299.19 L 360,296.69 L 360.83,294.19 L 361.67,291.69 L 361.67,291.69 L 360.83,290.86 L 360,290.86" fill="none" stroke="#89d185" stroke-width="2"></path><path d="M 244.84,242.53 L 245,242.53 L 244.17,242.53 L 242.5,242.53 L 240.83,242.53 L 238.33,243.36 L 237.5,244.19 L 236.67,245.03 L 235.83,245.86 L 235.83,246.69 L 236.67,246.69 L 237.5,246.69 L 240,246.69 L 242.5,245.86 L 244.17,245.03 L 245.83,244.19 L 245.83,244.19 L 246.67,243.36 L 246.67,243.36 L 246.67,243.36 L 246.67,243.36 L 246.67,242.53 L 245.83,242.53 L 244.17,241.69 L 242.5,241.69 L 240.83,241.69" fill="none" stroke="#89d185" stroke-width="2"></path><path d="M 254.01,233.36 L 254.17,233.36 L 254.17,233.36 L 254.17,232.53 L 254.17,232.53 L 254.17,232.53 L 254.17,232.53 L 254.17,235.03 L 254.17,237.53 L 254.17,240.03 L 254.17,243.36 L 254.17,245.03 L 252.5,246.69 L 252.5,246.69 L 251.67,246.69 L 251.67,246.69 L 251.67,246.69 L 253.33,245.03 L 255,243.36 L 256.67,242.53 L 258.33,242.53 L 260,241.69 L 260.83,241.69 L 262.5,242.53 L 263.33,243.36 L 263.33,244.19 L 263.33,245.86 L 261.67,246.69 L 259.17,246.69 L 256.67,246.69 L 254.17,247.53 L 251.67,246.69" fill="none" stroke="#89d185" stroke-width="2"></path><path d="M 271.51,238.36 L 271.67,238.36 L 271.67,238.36 L 272.5,238.36 L 272.5,238.36 L 272.5,238.36 L 274.17,240.03 L 276.67,241.69 L 280,244.19 L 281.67,245.86 L 282.5,246.69 L 283.33,248.36 L 283.33,249.19 L 282.5,250.03 L 280.83,250.86 L 277.5,251.69 L 273.33,251.69 L 267.5,251.69 L 265,252.53 L 263.33,252.53" fill="none" stroke="#89d185" stroke-width="2"></path><path d="M 249.84,259.19 L 250,259.19 L 250,259.19 L 250.83,259.19 L 251.67,259.19 L 251.67,259.19 L 250.83,259.19 L 249.17,259.19 L 244.17,260.03 L 241.67,260.03 L 240.83,260.03 L 240,260.03 L 240,260.03 L 242.5,260.03 L 245.83,260.86 L 249.17,260.86 L 252.5,261.69 L 254.17,261.69 L 255,261.69 L 253.33,262.53 L 250.83,263.36 L 246.67,264.19 L 245,264.19 L 244.17,264.19 L 243.33,265.03 L 243.33,265.03 L 243.33,265.03 L 244.17,265.86 L 245,265.86" fill="none" stroke="#89d185" stroke-width="2"></path><path d="M 257.34,361.69 L 257.5,361.69 L 257.5,361.69 L 258.33,360.86 L 258.33,360.86 L 258.33,360.86 L 260,361.69 L 263.33,363.36 L 266.67,365.03 L 270,366.69 L 277.5,370.86 L 280,371.69 L 285.83,374.19 L 292.5,375.86 L 298.33,377.53 L 307.5,379.19 L 315,380.86 L 322.5,380.86 L 330,381.69 L 336.67,381.69 L 341.67,382.53 L 348.33,382.53 L 351.67,382.53 L 354.17,383.36 L 355.83,383.36 L 357.5,383.36 L 359.17,383.36 L 360.83,383.36 L 362.5,383.36 L 363.33,383.36 L 365,383.36 L 366.67,383.36 L 367.5,383.36 L 367.5,383.36 L 367.5,383.36 L 366.67,382.53 L 365.83,382.53 L 364.17,381.69 L 361.67,380.86 L 358.33,378.36 L 357.5,376.69 L 356.67,375.86 L 356.67,375.03 L 356.67,374.19 L 356.67,374.19 L 356.67,374.19 L 356.67,375.86 L 358.33,376.69 L 361.67,379.19 L 364.17,380.03 L 367.5,380.86 L 370,381.69 L 371.67,381.69 L 371.67,381.69 L 371.67,381.69 L 370.83,382.53 L 370,383.36 L 366.67,384.19 L 363.33,385.03 L 360,385.86 L 358.33,385.86 L 357.5,386.69 L 357.5,386.69 L 356.67,385.03 L 356.67,383.36 L 356.67,381.69 L 357.5,378.36 L 357.5,376.69 L 357.5,376.69 L 357.5,376.69 L 355.83,376.69" fill="none" stroke="#b180d7" stroke-width="2"></path><path d="M 186.51,341.69 L 186.67,341.69 L 186.67,340.86 L 186.67,340.86 L 186.67,340.86 L 185,340.86 L 183.33,341.69 L 180,342.53 L 175,345.03 L 171.67,346.69 L 170,347.53 L 169.17,349.19 L 169.17,350.03 L 170.83,351.69 L 174.17,352.53 L 177.5,353.36 L 180.83,353.36 L 185.83,353.36 L 189.17,352.53 L 191.67,350.86 L 195,350.03 L 196.67,349.19 L 197.5,348.36 L 197.5,347.53 L 197.5,347.53 L 197.5,347.53 L 196.67,347.53 L 195,347.53 L 193.33,348.36 L 191.67,349.19 L 190.83,350.86 L 190.83,350.86 L 191.67,350.86 L 192.5,350.86 L 194.17,350.86 L 197.5,350.03 L 199.17,348.36 L 200,347.53 L 200,346.69 L 200,345.86 L 200,345.03 L 199.17,344.19 L 198.33,344.19" fill="none" stroke="#b180d7" stroke-width="2"></path><path d="M 204.01,343.36 L 204.17,343.36 L 205,344.19 L 207.5,345.03 L 209.17,347.53 L 210,349.19 L 210.83,350.86 L 210.83,351.69 L 211.67,353.36 L 211.67,353.36 L 211.67,353.36 L 210.83,353.36 L 210.83,352.53 L 209.17,349.19 L 208.33,346.69 L 207.5,344.19 L 206.67,342.53 L 205.83,340.03 L 205.83,339.19 L 206.67,338.36 L 206.67,337.53 L 207.5,337.53 L 208.33,336.69 L 209.17,336.69 L 210,337.53 L 211.67,338.36 L 212.5,340.03 L 212.5,340.03 L 212.5,341.69 L 210.83,342.53 L 209.17,342.53 L 207.5,343.36 L 205.83,343.36 L 205.83,343.36" fill="none" stroke="#b180d7" stroke-width="2"></path><path d="M 218.18,340.86 L 218.33,340.86 L 219.17,341.69 L 220.83,342.53 L 222.5,343.36 L 224.17,344.19 L 225.83,345.03 L 226.67,345.03 L 226.67,345.03 L 227.5,344.19 L 228.33,342.53 L 229.17,340.86 L 229.17,339.19 L 228.33,338.36 L 228.33,337.53 L 228.33,337.53 L 228.33,337.53 L 228.33,338.36 L 228.33,340.03 L 228.33,342.53 L 228.33,344.19 L 230,346.69 L 231.67,348.36 L 232.5,350.03 L 232.5,353.36 L 231.67,355.03 L 230,355.86 L 227.5,357.53 L 221.67,359.19 L 218.33,359.19 L 215,360.03 L 213.33,360.03 L 212.5,360.03" fill="none" stroke="#b180d7" stroke-width="2"></path><path d="M 244.84,343.36 L 245,343.36 L 245,343.36 L 245,343.36 L 245,342.53 L 245,342.53 L 245,343.36 L 243.33,343.36 L 240,345.86 L 238.33,346.69 L 237.5,347.53 L 237.5,349.19 L 238.33,350.03 L 239.17,350.03 L 240.83,350.86 L 244.17,350.03 L 246.67,350.03 L 250,348.36 L 250.83,347.53 L 250.83,345.86 L 250,345.03 L 249.17,344.19 L 246.67,343.36 L 245,343.36 L 243.33,343.36 L 242.5,343.36" fill="none" stroke="#b180d7" stroke-width="2"></path><path d="M 249.01,335.03 L 249.01,335.03 L 249.17,335.03 L 249.17,334.19 L 249.17,334.19 L 249.17,334.19 L 249.17,334.19 L 249.17,334.19 L 249.17,335.86 L 250,337.53 L 252.5,340.86 L 254.17,342.53 L 255.83,344.19 L 255.83,345.86 L 256.67,345.86 L 256.67,345.86 L 256.67,345.86 L 256.67,345.86 L 257.5,344.19 L 259.17,342.53 L 260.83,340.86 L 261.67,340.86 L 263.33,340.86 L 264.17,340.86 L 265.83,341.69 L 266.67,342.53 L 267.5,343.36 L 267.5,345.03 L 265.83,346.69 L 264.17,346.69 L 262.5,347.53 L 260.83,347.53 L 260,347.53 L 259.17,346.69" fill="none" stroke="#b180d7" stroke-width="2"></path><path d="M 272.34,337.53 L 272.5,337.53 L 271.67,337.53 L 271.67,337.53 L 271.67,337.53 L 271.67,337.53 L 271.67,338.36 L 272.5,339.19 L 274.17,340.86 L 275.83,342.53 L 278.33,343.36 L 281.67,345.86 L 282.5,347.53 L 283.33,348.36 L 284.17,350.03 L 283.33,350.86 L 283.33,350.86 L 281.67,351.69 L 278.33,351.69 L 275,352.53 L 270.83,353.36" fill="none" stroke="#b180d7" stroke-width="2"></path></svg>